<svg xmlns="http://www.w3.org/2000/svg" width="294" height="661" viewBox="0 0 294 661"><style>.st0{fill:#999;}</style><path class="st0" d="M124.8 34c4.1 0 7.2.1 10.4 0 2.1-.1 2.9 1.1 3.6 2.8 10.8 25.9 21.6 51.8 32.5 77.7 12.2 28.9 24.5 57.8 36.7 86.7 11.1 26.3 22.1 52.7 33.1 79 5.9 13.9 11.8 27.8 17.8 41.7.9 2.1 1.1 3.9.1 6.2-15.9 37.6-31.7 75.3-47.6 112.9l-52.8 124.8c-6.3 15-12.9 29.9-18.8 45-1.7 4.4-4 6-8.4 5.3-1.9-.3-4 .5-6.3-.8 3.4-8.4 6.8-16.8 10.4-25.2l30-71.1c10.2-24 20.3-48 30.5-72l49.5-117c1.3-3 1.7-5.9.3-9.1-9.5-22.1-18.8-44.3-28.2-66.5-10.3-24.3-20.5-48.7-30.7-73-10.5-24.9-21.1-49.8-31.7-74.8-10-23.9-20-47.8-30.4-72.6z"/></svg>