<?xml version="1.0" encoding="utf-8"?>
<!-- Generator: Adobe Illustrator 19.0.0, SVG Export Plug-In . SVG Version: 6.00 Build 0)  -->
<svg version="1.1" id="Layer_1" xmlns="http://www.w3.org/2000/svg" xmlns:xlink="http://www.w3.org/1999/xlink" x="0px" y="0px"
	 viewBox="0 0 500 500" style="enable-background:new 0 0 500 500;" xml:space="preserve">
<style type="text/css">
	.st0{fill:#E7E7E7;}
</style>
<g>
	<g>
		<path class="st0" d="M201.4,484.2c3.2-5.7,6.1-10.9,9.1-16.1c16-27.4,32-54.8,48-82.2c12.2-20.9,24.5-41.8,36.7-62.8
			c13.2-22.7,26.5-45.3,39.5-68.1c1-1.8,0.5-5.3-0.6-7.3c-7.2-12.9-14.8-25.6-22.3-38.3c-12.5-21.4-24.9-42.8-37.3-64.2
			c-11.8-20.2-23.7-40.4-35.5-60.6c-12-20.5-24.1-40.9-35.9-61.6c-0.9-1.6,0.2-4.4,0.3-6.6c2.1,1.2,5.1,1.8,6.2,3.6
			c6.7,10.8,13.1,21.9,19.5,32.9c6.9,11.9,13.8,23.7,20.7,35.6c9.8,17,19.5,34.2,29.5,51.2c13.5,23,27.1,46,40.6,69
			c7.9,13.4,15.6,26.9,23.2,40.4c0.8,1.4,0.8,3.8,0.1,5.2c-5.7,10.5-11.6,20.8-17.6,31.1c-10.3,17.9-20.8,35.7-31.2,53.5
			c-10.4,17.8-21,35.6-31.4,53.5c-11,18.9-21.8,37.9-32.8,56.7c-7,12.1-14.2,24.1-21.6,36c-0.8,1.4-3,2.3-4.7,2.5
			C203.4,487.7,202.4,485.4,201.4,484.2z"/>
	</g>
</g>
</svg>
