<svg xmlns="http://www.w3.org/2000/svg" width="92.5" height="87.6"><style>.st0{fill:#6EBEC5;} .st1{fill:#0C3757;} .st2{fill:none;} .st3{fill:#EB5A49;}</style><g id="XMLID_1_"><path class="st0" d="M80.8 80.5L67.7 68.6l4.7-5.18L85.5 75.3z"/><path class="st1" d="M47.4 7.3L89.1 45 75.7 59.7 92.5 75 81.1 87.6 64.3 72.3 51 87.1 9.3 49.4l-1.9-1.7.1-.1C-2.3 37-2.6 20.3 7.3 9.3c10-11 26.6-12.3 38.2-3.6l.1-.1 1.8 1.7zm34.6 38L56 21.8l-10.1-9.1-.1.1c-.5-.6-1.1-1.2-1.8-1.8-.6-.6-1.3-1.1-1.9-1.6-9.5-6.9-23-5.7-31.1 3.2-8.1 8.9-8 22.5-.1 31.2.5.6 1.1 1.2 1.8 1.8.6.6 1.3 1.1 1.9 1.6l-.1.1 10.1 9.1 26 23.5 10-11L72 56.4l10-11.1zm3.5 30L72.4 63.4l-4.7 5.2 13.1 11.9 4.7-5.2z"/><path class="st1" d="M56.5 31.8l16 14.5c1 .9 1.1 2.5.2 3.5-.9 1-2.5 1.1-3.5.2L55.3 37.4l-4.1-3.7-6.5-5.9c-1-.9-1.1-2.5-.2-3.5.9-1 2.5-1.1 3.5-.2l3.8 3.4 4.7 4.3zM51 45.5l12.3 11.1c1 .9 1.1 2.5.2 3.5-.9 1-2.5 1.1-3.5.2L47.6 49.2l-3.7-3.4-8.6-7.8c-1-.9-1.1-2.5-.2-3.5.9-1 2.5-1.1 3.5-.2l8.6 7.8 3.8 3.4zM40.1 54.2L54 66.8c1 .9 1.1 2.5.2 3.5-.9 1-2.5 1.1-3.5.2L34.6 56l-4.8-4.3-3.8-3.4c-1-.9-1.1-2.5-.2-3.5.9-1 2.5-1.1 3.5-.2l6.5 5.9 4.3 3.7z"/></g><path class="st2" d="M35.2 34.5c-.9 1-.8 2.6.2 3.5l8.6 7.8 3.7 3.4L60 60.3c1 .9 2.6.8 3.5-.2.9-1 .8-2.6-.2-3.5L51 45.5l-3.7-3.4-8.6-7.8c-1-.9-2.6-.8-3.5.2zM25.9 44.7c-.9 1-.8 2.6.2 3.5l3.8 3.4 4.8 4.3 16 14.5c1 .9 2.6.8 3.5-.2.9-1 .8-2.6-.2-3.5L40.1 54.2 36 50.5l-6.5-5.9c-1.1-1-2.7-.9-3.6.1zM44.4 24.3c-.9 1-.8 2.6.2 3.5l6.5 5.9 4.1 3.7 14 12.6c1 .9 2.6.9 3.5-.2.9-1 .8-2.6-.2-3.5l-16-14.5-4.8-4.3-3.7-3.4c-1.1-.9-2.6-.8-3.6.2z"/><path class="st3" d="M44.1 11c-.6-.6-1.3-1.1-1.9-1.6-9.5-6.9-23-5.7-31.1 3.2-8.1 8.9-8 22.5-.1 31.2.5.6 1.1 1.2 1.8 1.8.6.6 1.3 1.1 1.9 1.6l-.1.1 10.1 9.1 26 23.5 10-11L72 56.4l10-11-26-23.6-10.1-9.1-.1.1c-.5-.6-1.1-1.2-1.7-1.8zM36 50.5l4.1 3.7L54 66.8c1 .9 1.1 2.5.2 3.5-.9 1-2.5 1.1-3.5.2L34.6 56l-4.8-4.3-3.8-3.4c-1-.9-1.1-2.5-.2-3.5.9-1 2.5-1.1 3.5-.2l6.7 5.9zm11.3-8.4l3.7 3.4 12.3 11.1c1 .9 1.1 2.5.2 3.5-.9 1-2.5 1.1-3.5.2L47.6 49.2l-3.7-3.4-8.6-7.8c-1-.9-1.1-2.5-.2-3.5.9-1 2.5-1.1 3.5-.2l8.7 7.8zm4.4-14.6l4.8 4.3 16 14.5c1 .9 1.1 2.5.2 3.5-.9 1-2.5 1.1-3.5.2L55.3 37.4l-4.1-3.7-6.5-5.9c-1-.9-1.1-2.5-.2-3.5.9-1 2.5-1.1 3.5-.2l3.7 3.4zm-10.3-8.8L20 42.3c-.9 1-2.5 1.1-3.5.2-7.5-6.8-8.1-18.5-1.3-26s18.5-8.1 26.1-1.3c1 .9 1 2.4.1 3.5z"/><path class="st1" d="M15.2 16.4c-6.8 7.5-6.2 19.2 1.3 26 1 .9 2.6.8 3.5-.2l21.4-23.6c.9-1 .8-2.6-.2-3.5-7.5-6.8-19.2-6.2-26 1.3zm2.9 20.5c-3.8-5-3.7-12.3.7-17.1 4.4-4.9 11.6-5.8 17-2.5L18.1 36.9z"/></svg>