<svg xmlns="http://www.w3.org/2000/svg" width="495" height="471" viewBox="0 0 495 471"><style>.st0{fill:#FECB43;}</style><path class="st0" d="M476.6 187.1C428.4 221 381.4 254 334 287.3c18.4 55 36.8 109.9 55.2 164.9-.3.2-.5.4-.8.6-7.3-5.3-14.6-10.6-21.9-16-37.9-28-75.8-56-113.5-84.2-3.8-2.8-6-2.2-9.4.3-44.1 32.8-88.3 65.5-132.5 98.1-.8.6-1.6 1.1-2.7 1.8-.8-2.4.5-4.1 1.1-5.8 17.1-51.1 34.1-102.2 51.4-153.2 1.6-4.9 1-7.4-3.5-10.5-44.1-30.7-88.1-61.7-132.1-92.7-1.3-.9-3-1.4-3.9-3.7h159c3.5 0 7-.3 10.5.1 3.7.4 5.1-1.2 6.2-4.6 10.5-33.8 21.2-67.6 31.9-101.4l17.4-55.2c.5-1.7 1.2-3.4 1.9-5.5 1.8 1.9 2 4.3 2.6 6.3 16.4 52 32.9 104 49.1 156.1 1.4 4.6 4.3 4.2 7.5 4.2 37 0 74-.1 111-.1h54c.8.1 1.8.2 4.1.3z"/></svg>