<svg xmlns="http://www.w3.org/2000/svg" width="494" height="534" viewBox="0 0 493.8 534"><style type="text/css">  
	.st0{fill:#FEFEFE;}
	.st1{fill:#010101;}
</style><path class="st0" d="M1 534C1 356.4 1 178.8 1 1.1c164.2 0 328.4 0 492.8 0 0 177.6 0 355.2 0 532.9C329.7 534 165.4 534 1 534zM15.5 116.1c1.1 12.3 1.8 27.2 3.9 41.8C29.6 229.2 55.8 294 98.2 352.2c45.9 63 104.1 110.6 176.5 140.2 37.9 15.5 77.1 25.2 118.3 25.6 8.5 0.1 16.4-1.9 24-5.8 19.6-10.1 35.2-24.9 49.8-41.1 12-13.4 14.2-28.2 9.4-45 -5.8-20.5-16.8-35.8-37.7-42.9 -24.4-8.4-48.7-17-73-25.7 -12.5-4.5-23.7-2-33.8 5.8 -10.4 8-20.6 16.4-30.6 24.9 -11.3 9.5-11.3 9.9-24 1.8 -44.6-28.4-83.2-63.3-113.6-106.8 -15.2-21.7-28.8-44.4-38-69.5 -1.1-2.9-0.8-4.6 1.6-6.8 7.9-6.9 15.9-13.8 23.3-21.2 6.3-6.2 12.2-12.8 17.7-19.7 4.9-6.2 6.8-13.5 5.2-21.6 -3.2-16.7-5.5-33.6-9.5-50 -3.9-16-9.3-31.6-14.7-47.1 -1.4-4.2-4.3-8.8-7.9-11.2 -8-5.6-16.5-10.6-25.4-14.7 -11.8-5.5-24.5-6.6-36.1 0.1C57 34.6 37.2 51 23.3 73.5c-3.2 5.2-5 11.6-6.1 17.7C16 98.5 16.1 106.1 15.5 116.1z"/><path class="st1" d="M15.5 116.1c0.6-10 0.5-17.6 1.8-24.9 1.1-6.1 2.9-12.5 6.1-17.7 13.9-22.5 33.7-39 56.3-52 11.6-6.7 24.3-5.6 36.1-0.1 8.9 4.1 17.4 9.1 25.4 14.7 3.5 2.5 6.4 7 7.9 11.2 5.4 15.6 10.8 31.2 14.7 47.1 4 16.5 6.3 33.4 9.5 50 1.6 8.1-0.3 15.4-5.2 21.6 -5.5 6.9-11.4 13.5-17.7 19.7 -7.5 7.4-15.4 14.3-23.3 21.2 -2.5 2.1-2.7 3.9-1.6 6.8 9.2 25 22.8 47.7 38 69.5 30.4 43.5 69 78.3 113.6 106.8 12.7 8.1 12.7 7.7 24-1.8 10-8.5 20.2-16.8 30.6-24.9 10.1-7.8 21.3-10.3 33.8-5.8 24.3 8.7 48.6 17.4 73 25.7 20.9 7.2 31.9 22.5 37.7 42.9 4.8 16.9 2.6 31.7-9.4 45 -14.6 16.2-30.2 31-49.8 41.1 -7.6 3.9-15.4 5.9-24 5.8 -41.2-0.4-80.5-10.1-118.3-25.6C202.3 462.8 144 415.2 98.2 352.2c-42.4-58.2-68.6-123-78.8-194.3C17.3 143.3 16.6 128.4 15.5 116.1z"/></svg>