<svg xmlns="http://www.w3.org/2000/svg" width="493" height="351" viewBox="0 0 493 351"><style>.st0{fill:#020202;}</style><path class="st0" d="M362.5 208.9H55.1c-19 0-33.5-13.5-34-31.4-.4-17.7 13.5-32.5 31.1-33.3 2-.1 4 0 6 0h298.5c1.9 0 3.9.5 6.8-.8-1.7-1.4-3.1-2.5-4.3-3.7-23.4-23.3-46.8-46.5-70.1-69.9-9.7-9.7-11.9-22.7-6.5-35 5.5-12.5 17.5-20.1 31-19.5 7.8.3 14.6 3.3 20.1 8.8 43.8 43.7 87.6 87.3 131.2 131.1 11.9 12 11.9 29.8.6 42.4-1.9 2.1-3.9 4.1-5.9 6.1-41.5 41.4-83.1 82.9-124.5 124.3-9.2 9.2-20 12.5-32.4 8.6-12.3-3.9-19.7-12.7-22.3-25.3-2.2-11.2 1.5-20.6 9.5-28.6 23-22.9 46-45.9 69-68.8 1.3-1.3 2.8-2.3 4.2-3.5-.1-.6-.4-1.1-.6-1.5z"/></svg>