<svg xmlns="http://www.w3.org/2000/svg" width="534" height="554" viewBox="0 0 534 554"><style>.st0{fill:#010101;}</style><path class="st0" d="M268 498c9.8-12.5 19.3-24.7 28.9-36.8 13.7-17.4 27.4-34.8 41-52.3 2.7-3.5 5.7-5.1 10.2-5 18.5.1 36.9.1 55.5.1 0-2.5-1.7-3.8-2.8-5.3l-41.4-60c-.9-1.4-3-2.7-1.4-4.8 1.6-2 3.4-.5 4.9.2 25.6 10.7 51.1 21.6 76.8 32.1 23.4 9.6 39.7 26.7 52.1 48.2 13.4 23.4 20.3 48.7 22.2 75.4.5 7.6-.5 9.2-7.7 12-25 9.5-50.9 15.3-77.3 19.2-43.9 6.4-88.3 7.2-132.5 10.2-41.6 2.9-82.9-2.1-124.3-3.9-25.8-1.1-51.5-3.8-76.9-8.2-22.5-3.9-44.6-9.2-65.9-17.5-6.8-2.6-7.7-4.1-7.3-11.2 2.3-35.3 13.4-67.3 35.4-95.3 10-12.8 22.7-21.9 37.5-28.1 26-11 52-21.9 78.1-32.8 1.6-.6 3.4-2.3 5-.3 1.6 2-.4 3.4-1.4 4.8-13.9 20.2-27.8 40.3-41.7 60.4-.9 1.3-1.8 2.7-2.8 4.1 1.4 1.4 2.9.7 4.3.7 16.8.1 33.7.2 50.5 0 5-.1 8.4 1.6 11.4 5.5 22 28.3 44.1 56.4 66.2 84.6 1.1 1.1 2.1 2.3 3.4 4zM355.2 188.3c-58.9-10.5-116.2-24.4-164.9-62.2-1.8 4.3-1.2 8.2-1.8 11.8-2 13-6.7 25.4-7.6 38.6-2.7 38.4 10.7 71.5 33.7 101.3 4.4 5.7 4.6 5.8-1.8 9.3-30.4 16.5-62.5 24.3-97.1 18.8-11-1.8-21.7-5.2-31-11.7-4.9-3.5-5.3-7.9-.7-11.9 3.5-3 7.5-5.6 11.1-8.5 30.6-24.8 49-56.7 54.5-95.6 2-14.7 2.2-29.6 3.5-44.3 1.2-14.1 3.1-28.1 6.8-41.8 4.3-15.9 12.9-29 25.5-39.6 45-37.8 118.2-38.3 163.8-1.2 17.1 13.9 26 31.9 29.8 53.1 3.9 21.9 5 44 6.8 66.1 3.3 41.7 21.8 75.5 53.7 102.2 3.8 3.2 8 6 11.9 9.1 5.4 4.4 5.2 9.1-.6 12.8-14 9-29.6 12.8-46 13.2-29.2.6-56.7-6.4-82.2-20.8-5.6-3.1-5.5-3.4-1.7-8.4 19.6-25.5 32.9-53.5 34.3-86.2.1-1.2 0-2.4 0-4.1z"/><path class="st0" d="M268 398c-30.3-1.7-53.8-14.3-67.6-42.5-2-4.1-2-8 .7-11.8 2.5-3.4 6.1-4.5 10.2-3.8 4.2.7 6.3 3.6 8.1 7.3 8.8 18.2 24 27.9 43.7 29.5 20.3 1.7 37.2-5.6 49.4-22.4 1.8-2.5 3.1-5.5 4.5-8.3 2.9-5.6 8.4-7.8 13.8-5.5 5.2 2.3 7.6 8.2 5.1 13.8-10 22.5-27.6 35.7-51.1 41.5-5.4 1.5-11 2.1-16.8 2.2z"/></svg>