<svg xmlns="http://www.w3.org/2000/svg" width="83" height="83" viewBox="0 0 82.5 82.5"><style type="text/css">  
	.st0{fill:#FEFCFC;}
	.st1{fill:#EC0303;}
	.st2{fill:#FEF7F7;}
</style><path class="st0" d="M82.5 20.5c0 14.2 0 28.3 0 42.5 -0.2-0.3-0.4-0.6-0.5-1 -2.2-7.8-9.3-12.9-16.9-12.3 -8.2 0.7-14.3 6.6-15.3 14.8 -0.9 7.6 4 14.9 11.7 17.3 0.5 0.2 1 0.4 1.5 0.6 -14.5 0-29 0-43.5 0 0.2-0.1 0.4-0.3 0.6-0.4 8.2-1.9 13.7-8.8 13.3-16.7 -0.5-8.3-6.5-14.6-14.8-15.7 -7.7-1-15 4.1-17.5 11.9 -0.1 0.4-0.4 0.9-0.6 1.3 0-14.3 0-28.7 0-43 0.3 0.8 0.7 1.6 1 2.5 2.6 7.1 9.8 11.7 17.1 10.8 8.1-1 14-7.1 14.8-15.2C34 10.8 29.2 3.7 22 1.3c-0.8-0.3-1.7-0.6-2.5-0.8 14.5 0 29 0 43.5 0 -0.3 0.2-0.7 0.4-1.1 0.5C54.1 3.4 49 10.4 49.7 18c0.7 8 6.4 14.1 14.4 15.2 7.6 1.1 14.8-3.5 17.6-11.3C81.9 21.4 82.2 21 82.5 20.5z"/><path class="st1" d="M82.5 20.5c-0.3 0.5-0.6 0.9-0.8 1.4 -2.9 7.8-10 12.4-17.6 11.3 -8-1.1-13.7-7.2-14.4-15.2C49 10.4 54.1 3.4 61.9 1c0.4-0.1 0.7-0.3 1.1-0.5 2 0 4 0 6 0 2.3 1.1 4.8 2 7 3.4 3.7 2.3 5.2 6.2 6.5 10.1C82.5 16.2 82.5 18.3 82.5 20.5z"/><path class="st1" d="M19.5 0.5c0.8 0.3 1.7 0.6 2.5 0.8 7.2 2.4 11.9 9.4 11.3 16.7 -0.7 8.1-6.7 14.2-14.8 15.2 -7.3 0.9-14.5-3.7-17.1-10.8 -0.3-0.8-0.7-1.7-1-2.5 0-2.2 0-4.3 0-6.5 0.3-0.7 0.7-1.4 1-2.2 1.7-4.6 4.9-7.8 9.4-9.7 0.9-0.4 1.8-0.8 2.6-1.1C15.5 0.5 17.5 0.5 19.5 0.5z"/><path class="st1" d="M63 82.5c-0.5-0.2-1-0.5-1.5-0.6 -7.7-2.5-12.6-9.8-11.7-17.3 1-8.2 7.1-14.1 15.3-14.8C72.7 49 79.8 54.2 82 62c0.1 0.4 0.3 0.7 0.5 1 0 2.2 0 4.3 0 6.5 -1.2 2.3-2.2 4.7-3.7 6.9 -2.3 3.4-6.1 4.9-9.8 6.1C67 82.5 65 82.5 63 82.5z"/><path class="st1" d="M0.5 63c0.2-0.4 0.4-0.9 0.6-1.3 2.5-7.9 9.8-12.9 17.5-11.9 8.3 1.1 14.3 7.4 14.8 15.7 0.4 7.9-5.1 14.8-13.3 16.7 -0.2 0-0.4 0.2-0.6 0.4 -2 0-4 0-6 0 -0.7-0.3-1.4-0.7-2.2-1 -4.4-1.7-7.6-4.6-9.5-8.9 -0.5-1-0.9-2.1-1.4-3.1C0.5 67.3 0.5 65.2 0.5 63z"/><path class="st2" d="M82.5 14c-1.3-3.9-2.9-7.8-6.5-10.1 -2.2-1.4-4.6-2.3-7-3.4 4.5 0 8.9 0 13.5 0C82.5 5 82.5 9.5 82.5 14z"/><path class="st2" d="M69 82.5c3.8-1.3 7.5-2.7 9.8-6.1 1.5-2.1 2.5-4.6 3.7-6.9 0 4.3 0 8.7 0 13C78 82.5 73.5 82.5 69 82.5z"/><path class="st2" d="M13.5 0.5c-0.9 0.4-1.8 0.8-2.6 1.1 -4.5 1.9-7.7 5.1-9.4 9.7 -0.3 0.7-0.7 1.4-1 2.2 0-4.3 0-8.7 0-13C4.8 0.5 9.2 0.5 13.5 0.5z"/><path class="st2" d="M0.5 69.5c0.5 1 0.9 2.1 1.4 3.1 1.9 4.3 5.1 7.3 9.5 8.9 0.7 0.3 1.4 0.7 2.2 1 -4.3 0-8.7 0-13 0C0.5 78.2 0.5 73.8 0.5 69.5z"/></svg>