<svg xmlns="http://www.w3.org/2000/svg" width="117.2" height="160.9"><style>.st0{fill:#0C3757;} .st1{fill:#FAFFFF;} .st2{fill:#EB5A49;} .st3{fill:#6EBEC5;}</style><path class="st0" d="M57.1 155.6c-3.9 0-7.5-.8-10-1.7-1.3-.5-2-1.9-1.5-3.2.5-1.3 1.9-2 3.2-1.5.7.2 17.3 6 24.7-8.1 5.6-10.6 20.1-13.5 40.9-8 .3.1.5.1.7.2 1.2.2 2.1 1.2 2.1 2.5 0 1.4-1.1 2.5-2.5 2.5-.4 0-.6-.1-1.6-.3-10.6-2.8-29.3-5.8-35.2 5.5-4.9 9.4-13.4 12.1-20.8 12.1z"/><g id="XMLID_1_"><path class="st1" d="M55.8 153v.1c0 1.4-.3 2.3-.6 2.7H24.5c-.2-.4-.6-1.4-.6-2.7v-.1c0-1.4.3-2.3.6-2.7H55.3c.1.4.5 1.4.5 2.7z"/><path class="st2" d="M49.5 56.3v89H30.2v-89c0-1 .8-2 2.2-2.9 1.2-.8 3-1.4 5-1.7.7-.1 1.5-.2 2.3-.2h.3c.8 0 1.6.1 2.3.2 2 .3 3.8.9 5 1.7 1.4.9 2.2 1.9 2.2 2.9zM39 111.1V85.4c0-1.4-1.1-2.5-2.5-2.5S34 84 34 85.4v25.7c0 1.4 1.1 2.5 2.5 2.5s2.5-1.2 2.5-2.5z"/><path class="st1" d="M42.3 15.6v31.1c-.8-.1-1.5-.1-2.3-.1h-.3c-.8 0-1.6 0-2.3.1V15.6h4.9z"/><path class="st3" d="M74.7 7.7v.1c0 1.5-1.2 2.7-2.7 2.7H7.7C6.2 10.6 5 9.4 5 7.9v-.2C5 6.2 6.2 5 7.7 5H72c1.5 0 2.7 1.2 2.7 2.7z"/><path class="st0" d="M79.7 7.7v.1c0 4.3-3.5 7.7-7.7 7.7H47.3v32.2c4.3 1.7 7.2 4.8 7.2 8.5v89h1.2c2.9 0 5.1 3.2 5.1 7.7v.1c0 4.5-2.1 7.7-5.1 7.7H24c-2.9 0-5.1-3.2-5.1-7.7s2.1-7.7 5.1-7.7h1.2v-89c0-3.7 2.8-6.8 7.2-8.5V15.6H7.7C3.5 15.6 0 12.1 0 7.9v-.2C0 3.5 3.5 0 7.7 0H72c4.3 0 7.7 3.5 7.7 7.7zm-5 .2v-.2C74.7 6.2 73.5 5 72 5H7.7C6.2 5 5 6.2 5 7.7v.1c0 1.5 1.2 2.7 2.7 2.7H72c1.5.1 2.7-1.1 2.7-2.6zM55.8 153.2v-.2c0-1.4-.3-2.3-.6-2.7H24.4c-.2.4-.6 1.4-.6 2.7v.1c0 1.4.3 2.3.6 2.7H55c.4-.3.8-1.2.8-2.6zm-6.3-7.9v-89c0-1-.8-2-2.2-2.9-1.2-.8-3-1.4-5-1.7-.8-.1-1.5-.2-2.3-.2h-.3c-.8 0-1.6.1-2.3.2-2 .3-3.8.9-5 1.7-1.4.9-2.2 1.9-2.2 2.9v89h19.3zm-7.2-98.6V15.6h-4.9v31.1c.8-.1 1.5-.1 2.3-.1h.3c.8-.1 1.6 0 2.3.1z"/><path class="st0" d="M39 85.4v25.7c0 1.4-1.1 2.5-2.5 2.5s-2.5-1.1-2.5-2.5V85.4c0-1.4 1.1-2.5 2.5-2.5S39 84 39 85.4z"/></g><path class="st0" d="M36.5 138.8c-1.4 0-2.5-1.1-2.5-2.5v-10.5c0-1.4 1.1-2.5 2.5-2.5s2.5 1.1 2.5 2.5v10.5c0 1.4-1.1 2.5-2.5 2.5z"/></svg>