<svg xmlns="http://www.w3.org/2000/svg" width="529" height="528" viewBox="0 0 529 528"><style>.st0{fill:#020202;}</style><path class="st0" d="M314.2 378.5c-94.4 57.5-206.9 22.7-260.8-56.4-52.7-77.4-42-183.4 25.9-248.7C147.9 7.4 253.5.7 329.4 57.3c76.4 57 104.3 165.9 49 257.1 1.2.9 2.9 1.7 4.2 3l119.5 119.5c12.1 12.1 12.1 25 .1 37l-27.9 27.9c-11.9 11.8-24.7 11.8-36.7-.2-39.8-39.8-79.6-79.7-119.5-119.5l-3.9-3.6zM84.7 213.1c.1 71.5 57.7 129.1 129.1 129.1 71.3 0 129.1-57.7 129.2-129.1.1-71.5-57.9-129.5-129.4-129.3-71.4.1-129 57.8-128.9 129.3z"/></svg>