<svg xmlns="http://www.w3.org/2000/svg" width="446.7" height="446.6" viewBox="0 0 446.7 446.6"><style>.st0{fill:#010101;}</style><path class="st0" d="M.7 138.9v-27.1c1.6-.8 1.2-2.4 1.4-3.6 3.2-22.8 12-43.3 26.6-61 19.7-24 44.9-39.1 75.7-44.5 2.5-.4 5.5.3 7.5-2h25.6c.5 1.4 1.8.7 2.8.9 17.5 2.2 34 7.5 49.1 16.7 1.8 1.1 3.5 1.1 5.5.8 10.6-1.6 21.2-2.4 31.9-2.2 29.7.6 58.1 6.9 84.9 19.6 15.9 7.5 30.8 16.8 44.2 28.1 16.4 13.8 30.5 29.7 42.1 47.8 13.9 21.7 23.4 45.2 28.5 70.4 4.7 23.2 5.5 46.6 1.8 70.1-.3 2.1.1 3.9 1.2 5.7 8.5 14.2 13.6 29.7 16 46 2.9 20.4.5 40.2-6.4 59.5-8.7 24.2-23.7 43.8-44.5 58.9-15.7 11.4-33.2 18.5-52.4 21.8-29.8 5-57.5-.5-83.6-15.3-1.9-1.1-3.6-1.5-5.7-1.2-5.9.8-11.8 1.5-17.7 1.9-23.7 1.4-46.9-1.3-69.7-7.9-22-6.4-42.3-16.3-61.1-29.6-15.2-10.7-28.7-23.3-40.5-37.6C49.8 338 38.7 319 30.7 298.3c-6.8-17.7-11-36-12.9-54.9-1.7-16.4-1.1-32.7 1.3-49 .3-2 0-3.7-1.1-5.4-7.6-12.9-12.7-26.7-15.3-41.4-.5-2.9 0-6.1-2-8.7zm216.9 218.9c6 .7 11.7-.1 17.3-.3 18.8-.8 36.9-4.5 53.9-12.7 19.4-9.3 33.9-23.2 41.7-43.5 4.3-11.3 5.2-23.2 4-35.1-1.4-15.4-7.5-28.8-19-39.5-12.4-11.4-27.5-17.9-43.3-22.9-20.1-6.4-40.8-10.7-61.3-15.8-12-3-23.7-6.6-33.1-15.4-7.3-6.8-8.3-18.9-2.3-26.9 6.4-8.6 15.4-12.9 25.4-15.2 11.8-2.7 23.8-2.4 35.7-.5 9.3 1.5 16.9 6.2 23.2 13.3 6.1 6.9 10 15.2 15.2 22.7 2.7 3.8 5.4 7.9 9.5 9.9 19 8.9 38.5-4.7 38.1-23.5-.3-10.2-4-19.2-10.1-27.2-14.3-18.6-34-27.9-56.3-32.6-17.9-3.8-36.1-3.9-54.2-2-22.6 2.3-44 8.3-62 23.4-9.5 8-16 18-19.7 29.8-2.7 8.8-3 17.7-2.1 26.8.9 10 3.9 19.3 9.8 27.5 8.3 11.5 19.4 19.7 32.3 25.5 21 9.5 43.4 14.2 65.7 19.4 12.3 2.9 24.7 5.5 35.9 12 16.8 9.7 19 26.8 12.4 39.4-5.2 9.9-14.2 15.4-24.4 19-13.9 4.8-28.3 5.7-42.8 3.2-15.2-2.6-27.1-10-34.8-23.8-2.9-5.2-5.4-10.5-8-15.8-4.3-9-9.7-16.9-20.5-19.1-16.2-3.3-33 8.5-31.2 26.7 1.6 15.5 8.7 28.2 18.6 39.5 11.8 13.5 26.8 22.4 44 27.6 13.9 4.1 28.2 5.8 42.4 6.1z"/></svg>