<svg xmlns="http://www.w3.org/2000/svg" width="402" height="525" viewBox="0 0 402 525"><style>.st0{fill:#252122;}</style><path class="st0" d="M114.3 301.8c-12.6-15.3-22.8-31.4-30.3-49.2-1.2-2.7-3.2-3.5-5.5-4.4-28.9-10.8-44-44.5-32.5-72.4 2.9-7.1 7-13.3 13.2-17.9 2.3-1.7 2.9-3.5 3-6.2.2-18.7 2.4-37.2 8.4-55 11.5-34 34.9-56 69.1-65.5 41.9-11.7 84.3-11.8 126.2.5 40.9 12 63.8 40.7 72.3 81.7 2.7 12.8 3.8 25.7 4 38.7 0 1.8-.1 3.3 1.6 4.8 17.3 15 22.9 35.6 15.2 56.7-6.1 16.8-17.5 28.9-34.5 35-2.1.8-3.3 1.9-4.1 3.8-3.8 8.9-8.3 17.4-13.4 25.6-5 8.1-10.5 15.8-16.6 23.1.8 2 2.8 2.3 4.3 3.1 47.9 27.5 78.6 67.4 89.1 122.1 2.8 14.5 2.6 29.2 2.5 43.8v14.5c0 11.9-6.3 18.2-18.1 18.2H228.7c-63.7 0-127.3-.2-191 .2-12.7.1-20.2-7.7-19.7-19.9.8-18.9-1-38 2.6-56.8C31 371.6 62 331.7 110 304.2c1.2-.7 2.5-1.4 4.3-2.4zM282 90.8c-.2 0-.5-.1-.7-.1-1.2 2.9-2.2 5.8-3.5 8.5-5.9 12.3-14.2 22.1-27.8 26.2-8 2.4-16.2 2-24.3 1-20.3-2.5-40.6-5.5-60.9-7.9-10.2-1.2-20.6-1.8-30.8.5-9 2-12 5.9-12 15v51.5c0 3.8-.1 7.7-4.4 9.1-4.3 1.5-8.1.3-10.9-3.6-2.6-3.7-5.6-7-9.6-9.3-8-4.5-16.3-3-20.3 3.6-7.8 12.8 2.2 32.6 17.1 33.8 7.8.6 12.8 4.3 15.6 11.8 12.5 33.1 33.9 59.3 62.6 79.7 23.4 16.7 36.5 16.7 59.9 0 28.6-20.4 50-46.6 62.5-79.7 2.6-7 7.3-11.6 14.6-11.5 11.9.1 22.3-14.4 20.7-26.5-1.5-11.5-10.4-16.5-21.1-11.9-4.8 2-8.2 5.7-11.1 9.8-2.9 4.1-6.6 5.6-11.2 4-4.6-1.6-4.4-5.6-4.4-9.6v-49-45.4zm-49.8 380H306v-21.7c0-1.5-.1-3.1.4-4.4 1.5-3.8 4.4-6 8.6-5.4 4.5.7 7 3.7 7 8.4v23.1h31.7c3.4-52.2-15.6-94.1-57.1-126.9-1.3 1.6-2.2 3-3.3 4.2-13.2 14.2-26.3 28.3-39.5 42.4-6.1 6.6-10.4 6.4-15.9-.6-3.5-4.4-7-8.8-10.6-13.4-3.8 3-7.3 5.9-10.9 8.6-2.1 1.5-2.3 3-1.7 5.5 2 8.1 3.5 16.2 5.3 24.4 4.1 18.6 8.2 37.2 12.2 55.8zm-60.4.1l17.5-80.8c.3-1.5 1-2.8-.6-4-4-3.1-8-6.3-12.1-9.6-3.8 4.9-7.3 9.3-10.8 13.8-5.1 6.5-9.5 6.7-15.2.6-13.3-14.2-26.6-28.5-39.9-42.7-1.2-1.3-2.1-3.1-4.5-3.4-40.5 32.2-59.4 74-55.9 126.1H82v-21.7c0-6.3 3-10 7.9-10 4.9-.1 8 3.7 8.1 9.9V471c24.8-.1 49.1-.1 73.8-.1zm111.5-135.5c-10.5-7.4-22.5-10.7-33.4-16.8-9.7 8.1-20.6 14.5-33.1 18.6 10.1 12.8 19.8 25.1 29.6 37.7 12.6-13.4 24.6-26.3 36.9-39.5zm-125.8 39.4c10-12.8 19.7-25.1 29.7-37.8-13-3.8-23.6-10.8-33.2-18.4-11.1 6.2-23.1 9.3-33.2 16.8 12.2 13.3 24.2 26.1 36.7 39.4z"/><path class="st0" d="M226 251.8c-.2 2.7-1.6 5.1-4.6 6.6l-15.6 7.8c-2.8 1.4-5.4 1.2-8.1-.2-4.9-2.5-9.8-4.8-14.7-7.4-4.9-2.6-6.4-6.9-4.1-11.2 2.3-4.2 7-5.9 11.5-2.9 7.9 5.4 15 5.3 23.1.1 5.9-3.7 12.5.2 12.5 7.2z"/></svg>