<svg xmlns="http://www.w3.org/2000/svg" width="324" height="389" viewBox="0 0 324 389"><style>.st0{fill:#040404;}</style><path class="st0" d="M226 389c.2-2-1.7-2.7-2.8-3.7-30.4-30.4-60.8-60.7-91.3-91-.5-.5-.9-1-1-1.1 9.9-10.2 19.6-20.3 29.9-30.9 14.6 14.2 29.1 28.3 44.5 43.4V152.2h43.1v154.3c15.6-15.4 30.1-29.7 44.6-44.1 10.9 9.8 20.1 20.5 30.9 29.6v1c-.4.3-.8.5-1.2.8-31 30.8-62 61.6-93 92.5-.7.7-2.1 1.2-1.8 2.7H226zM99 1c-.1 2.2 1.9 2.9 3.1 4.1 30.5 30.5 61.1 60.9 91.7 91.3.2.2.4.6.2.4-9.9 10.2-19.7 20.3-30 31l-44.5-43.9v153.9h-43V86c-.4-.2-.9-.4-1.3-.6-14.4 14.1-28.9 28.1-44.1 42.9-8.9-9.2-17.5-18.1-26.1-26.9-1.2-1.3-2.2-3-4.1-3.4v-1c.4-.3.8-.5 1.2-.9L94.8 4c.9-.9 2.4-1.4 2.2-3h2z"/></svg>