<svg xmlns="http://www.w3.org/2000/svg" width="384.8" height="384.8" viewBox="0 0 384.8 384.8"><style>.st0{fill:#030104;}</style><path class="st0" d="M.7 308.2v-.8c.6-.4 1.2-.8 1.7-1.3 37.3-37.3 74.6-74.5 111.8-111.8.5-.5 1.3-.9 1.2-1.9-.3-.4-.7-.8-1.2-1.3C77 153.9 39.8 116.6 2.5 79.3 2 78.8 1.3 78.4.7 78v-.8c.9-.8 1.9-1.6 2.8-2.4C27.4 51 51.2 27.1 75.1 3.2c.8-.8 1.5-1.6 2.2-2.5h.8c.1 1 1 1.4 1.6 2L191 114c.6.6 1 1.5 2.2 1.5.4-.4.8-.8 1.3-1.2C231.8 77 269.1 39.7 306.3 2.4c.5-.5.9-1.1 1.3-1.7h.8c.4.5.7 1 1.1 1.4l74 74c.4.4.9.7 1.4 1.1v.8c-.6.4-1.2.8-1.7 1.3-37.2 37.2-74.5 74.4-111.7 111.6-.6.6-1.5 1-1.5 2.6.3.2.9.7 1.4 1.2 37.2 37.2 74.5 74.4 111.7 111.6.5.5 1.1.9 1.7 1.3v.8c-.5.4-1 .7-1.4 1.1l-74 74c-.4.4-.7.9-1.1 1.4h-.8c-.4-.6-.8-1.2-1.3-1.7L194.6 271.6c-.6-.6-1-1.5-2.2-1.5-.4.4-.8.8-1.3 1.2-37.3 37.3-74.6 74.6-111.8 111.9-.5.5-.9 1.1-1.3 1.7h-.8c-.3-.4-.5-.8-.8-1.2-24.7-24.8-49.5-49.5-74.2-74.2-.4-.6-1-.9-1.5-1.3z"/></svg>