<svg xmlns="http://www.w3.org/2000/svg" width="540" height="525" viewBox="0 0 540 525"><style>.st0{fill:#060606;}</style><path class="st0" d="M468.6 340.2c-1.8 5.5-3.6 10.7-5.2 15.9-11.8 36.7-34.8 64.8-66.5 86.2-1.2.8-2.4 2-3.7 2.5-9.1 3.8-11.3 10.7-10.7 20.1.8 10.9.2 22 .2 33-.1 9.3-3.8 13.1-13.1 13.2-20.3.1-40.7.1-61 0-8.8 0-12.6-4.1-12.7-13V486c-28.6 4.2-57 4.5-85.9.1 0 4.4.1 8.5 0 12.6-.2 8.6-4 12.5-12.7 12.5-20.2.1-40.3.1-60.5 0-8.4 0-12.6-4.2-12.7-12.7-.1-11.7-.3-23.3.1-35 .2-5.9-2-9.6-6.8-12.7-23.8-15.2-44-34.1-58.1-58.8-4.4-7.7-8.9-11.6-17.9-10.2-4.2.7-8.7.3-13 .1-8.3-.5-12.4-4.9-12.4-13.1v-83c0-7.3 4.1-11.7 11.4-12.1 4.3-.2 8.7-.1 13 .1 2.5.1 4-.6 4.9-3.1 10.5-29.7 28.8-53.9 52.8-73.9 3-2.5 3.8-5.6 3.8-9.3-.1-17 0-34 0-51 0-4.3.7-8.4 4.3-11.2 4.8-3.8 9.6-2.6 14.4.2 14.6 8.7 29.3 17.2 43.7 26.2 5.6 3.5 10.8 4.6 17.3 2.8 12.8-3.5 25.9-6.3 39.2-9.4-.1-12.2 1.1-24.1 4.7-35.5C241.2 59.8 274 28.1 325.7 18c52.5-10.3 95.5 7.2 126.5 49.8 31.5 43.3 35.7 90.5 10.8 139-4.7 9.2-11.3 17.3-17.6 25.4-1.8 2.4-1.8 4.1-.3 6.5 14.5 22.7 22.3 47.5 23.4 74.4.4 10.4 6.6 17.6 16.3 20.2 9 2.4 18.3-1.4 23.3-9.4 5.1-8 4.3-17.7-2-25.5-1.6-1.9-3.2-3.9-4.3-6.1-1.7-3.3-2.5-6.9 1.1-9.4 3.5-2.5 7.6-2.3 10.6.7 15.4 15.3 16.5 36.5 5.2 51.3-11.8 15.3-36.5 17.7-49.1 5.8-.1-.2-.3-.2-1-.5zM30.3 367.6c7.7 0 15.1.3 22.4-.1 7.7-.4 12.4 2.8 15.6 9.8 7.4 16.3 18 30.3 31.5 42.1 9 7.8 18.7 14.4 29 20.4 6.5 3.8 9.7 9.1 9.5 16.8-.3 11.5-.1 23 0 34.5 0 1.9-.7 4 .5 5.5H196v-14.4c.1-10.3 4.5-14.4 14.4-12.3 28.5 6.2 56.8 6.3 85.3 0 9.7-2.1 14.2 1.9 14.4 11.9.1 4.9 0 9.9 0 14.8h58.5c0-12.7.6-25-.2-37.3-.7-11.9 3.9-19.2 14.3-25.4 30.3-17.9 53.1-43 65.1-76.4 14.3-39.9 4.9-76.7-16.8-111.3-.1-.2-.6-.2-1-.4-39.9 28.7-83 36.4-129.4 17.8-46.9-18.8-70.1-56.1-79.1-104.1-15.2 3.3-29.7 6.4-44.1 9.6-4.4 1-8.5 1.3-12.6-1-14.4-8-28.9-15.9-43.3-23.8-1.5-.8-2.8-2.4-5.2-2.1 0 17-.3 34 .1 50.9.2 8.3-2.7 14.1-9.4 19-22.9 17-39.3 38.6-46.7 66.6-1.8 6.8-4.9 8.9-11.9 9.1-5.9.1-11.9 0-17.9 0-.2 26.8-.2 52.9-.2 79.8zm319.9-108.2c62.7 0 114-51.7 114.1-115 .1-63.9-51.2-115.3-115.3-115.3-61.9 0-113.8 52.1-113.9 114.2-.1 64.5 51.1 116.1 115.1 116.1z"/><path class="st0" d="M145.2 273.6c0 12-9.5 21.5-21.6 21.5-12 0-21.6-9.7-21.6-21.6 0-11.6 9.7-21.2 21.4-21.3 12.1-.1 21.7 9.4 21.8 21.4zM340.1 83.8v-15h14.1v15c12.7 2 24.3 6.2 34.1 14.9-2.6 3.5-5.1 6.8-7.8 10.3-6.1-4.4-12.2-8.5-19.3-10.6-9-2.7-17.9-3.7-27-.7-9 2.9-14.2 9.3-14.7 17.6-.4 8.4 3.3 13.7 12.4 18 7.3 3.4 15.2 5 22.9 6.8 7.2 1.7 14.1 4 20.7 7.3 23.3 11.6 20 41.9 3.4 53.2-5.9 4-12.3 6.5-19.4 7.5-1.6.3-3.2.5-5.1.7v11h-14.2v-11.5c-14.9-2.3-27.9-8.5-39-18.8 2.1-3.7 5.1-6.6 7.8-9.7 2.1.2 3.1 1.9 4.5 3 14.1 11.5 30 16.2 48 12.1 7-1.6 12.4-5.6 15.2-12.5 3.6-9.1.6-17.9-7.9-22.7-6.7-3.9-14.2-5.6-21.7-7.3-8-1.8-15.9-3.8-23.3-7.4-10.9-5.2-17.5-13.4-18-26-.5-13.1 5.2-22.7 16.2-29.4 5.4-3.3 11.4-4.8 18.1-5.8z"/></svg>