<svg id="Layer_1" xmlns="http://www.w3.org/2000/svg" viewBox="0 0 500 500"><style>.st0{fill:#FE0000;}</style><path class="st0" d="M258.3 49.3c-6.8 22.1-5.2 43.9 2.2 66.3 10-7.6 19.4-14.8 29.8-22.7-5.8 20.5-7.9 40.2-7.8 60.6 13.3-5.5 25.4-10.6 38.4-16-3.1 11.3-5.7 21.1-8.5 31.6h6.6c33.5 0 67-.1 100.5 0 35.3.2 64.4 24 71.9 58.5 1 4.8 1.5 9.9 1.5 14.9.2 24.3.1 48.7.1 73-.2 41.1-32.5 73.5-73.7 73.5-113.8.1-227.6.1-341.4 0-41.5 0-73.7-32.4-73.9-73.8-.1-24.2-.1-48.3 0-72.5.2-40.8 32.3-73.2 73.3-73.5 25.3-.2 50.7 0 76 0h5.3c20.1-48 52.8-85.4 93.5-116.5 1.8-1.4 3.8-2.5 5.8-3.8l.4.4z"/><path class="st0" d="M257.8 48.8c.3-.2.6-.4.9-.5-.1.3-.3.7-.4 1l-.5-.5z"/></svg>