<svg xmlns="http://www.w3.org/2000/svg" width="499" height="458" viewBox="0 0 499 458"><style>.st0{fill:#fff;}</style><path class="st0" d="M401.2 378.8v69.4c-17.4-8.7-33.9-16.9-50.5-25.2-15.3-7.6-30.6-15.3-45.9-22.9-12-6-24.2-11.8-35.9-18.3-5.8-3.2-11.8-3.2-17.9-3.3-14.8-.2-29.6-.1-44.4-.1-11.6 0-23.3.3-34.9.3-21.9 0-43.9-.8-65.8-.1-20.2.6-38.7-3.5-55.2-15.1-24.5-17.2-37.3-41.3-37.4-71.2-.3-64.3-.3-128.6 0-192.9.2-51.4 42.3-89.6 94.2-86.6 15.2.9 30.6.2 45.9.3h100.8c18.8 0 37.6.1 56.4 0 15.3 0 30.6-.2 45.9-.2 15.6 0 31.3-.2 46.9.1 39.7.8 73.2 28.2 82.1 66.9 1.6 7 2.2 14.1 2.2 21.3 0 62.8-.3 125.6.1 188.4.3 44-32.1 78.3-69.3 87.1-5.5 1.2-11.1 1.8-17.3 2.1zm-42.9-43.1h5.6c12.3 0 24.6.1 36.9 0 25-.4 43.6-18.9 43.7-43.7.1-64.3.1-128.7 0-193-.1-24.4-18.7-42.9-43.1-43.3-17.1-.2-34.2-.4-51.4-.4-22.3 0-44.5.3-66.8.3-18.1 0-36.2-.3-54.4-.3-24.3 0-48.5.3-72.8.3-18.8.1-37.6.1-56.3 0-24.5-.1-43.4 20.4-43.3 43.7.1 64.5 0 129 .1 193.5 0 19.3 12.4 35.3 30.7 41.1 7.8 2.4 15.8 2 23.7 2 31.6.1 63.2-.1 94.8-.2h59.9c3.3 0 6.6-.1 9.7 1.5 21 10.6 42.1 21.2 63.2 31.7 6.3 3.2 12.7 6.2 19.3 9.4 1.5-7.5.2-14.3.4-21.1.3-6.9.1-13.9.1-21.5z"/><path class="st0" d="M379.9 196.2c-.2 17.5-15.2 32-32.9 31.8-17.8-.2-32.1-14.9-31.9-32.7.2-17.7 15.1-32.2 32.9-31.9 17.8.2 32.1 15 31.9 32.8zM271.8 195.4c.5 17.4-13.5 32.1-31 32.5-18.4.5-33.1-13.6-33.5-32.2-.4-17 14.1-31.9 31.5-32.4 19.3-.5 34.1 16.2 33 32.1zM99.7 195.4c.1-17.8 14.9-32.3 32.7-32 17.6.3 32 14.9 31.9 32.5-.1 17.9-14.6 32.3-32.6 32.2-17.9-.2-32.2-14.7-32-32.7z"/></svg>