<svg xmlns="http://www.w3.org/2000/svg" width="282" height="528" viewBox="0 0 282 528"><style type="text/css">  
	.st0{fill:#020202;}
</style><path class="st0" d="M72 331.7c-23.8 4.2-41.2-3.4-51.3-21.9 -3.1-5.7-4.7-11.6-4.7-18.1 0.1-26.8 0.2-53.6-0.1-80.5 -0.1-13.6 3.6-26 11.1-37.2 12.1-18.1 28.1-30.9 49.8-35.6 2.2-0.5 4.5-0.6 7.4-1 -11.4-17.8-15.7-36.7-9.5-57.2 4.8-16 14.4-28.7 27.9-38.5 25.4-18.4 57-17.4 81.8 2.4 28.6 22.8 34 52.6 17.1 92.9 32.9 6.9 54.8 26 64.7 58.3 1.3 4.1 1.7 8.5 1.7 12.8 0 27.7 0 55.3 0 83 0 23.9-19.6 43.1-43.5 42.6 -4.1-0.1-8.1-1.4-12.4-2.1 0 25.4 0 50.8 0 76.1 0 15.8 0 31.7 0 47.5 0 21.7-13.2 38.9-34.2 44.6 -11.6 3.2-22 0.4-31.6-6.4 -1.3-1-2.6-2-4.2-3.2 -6.1 4.3-12.5 7.9-19.8 9.8 -27.2 7-50.4-19.1-50.2-39.7C72.2 420.3 72 380.2 72 340 72 337.4 72 334.7 72 331.7zM100.1 347.6C100.1 347.6 100.1 347.6 100.1 347.6c0 24.2 0 48.3 0 72.5 0 13.5-0.1 27 0 40.5 0.1 9.2 3.6 12.6 12.8 12.5 1 0 2 0 3-0.1 8.5-0.4 11.8-3.6 11.9-12 0.1-37.8 0.1-75.6 0.1-113.5 0-9.5 5.7-15.7 14.3-15.6 8.2 0.1 13.8 6.3 13.8 15.6 0 14.7 0 29.3 0 44 0 23.3 0 46.7 0.1 70 0 6.6 2.4 10 7.7 11.3 12.1 3 20.1-3.2 20.1-15.5 0-1 0-2 0-3 0-73 0-146 0-218.9 0-2.9 0.3-5.6 1.8-8.2 3.2-5.4 9.5-8.2 15.3-6.9 6.6 1.6 11 7 11 14.2 0.1 19.7 0 39.3 0.1 59 0 8.3 3.3 11.4 11.5 11.5 1 0 2 0 3 0.1 10 0.8 13.2-1.9 13.3-11.8 0.1-28.7 0.3-57.3 0-86 -0.3-22.6-19.7-41.2-42.3-41.4 -8.3-0.1-16.7 0-25 0 -7.6 0-13.7-3.6-15.1-9.8 -1.9-8.5-0.9-15.5 6.6-20.3 19-12.3 25.4-34.5 16.3-55.5 -6.6-15.2-18.9-22.4-34.9-23.3 -17.2-0.9-32 4.4-40.1 20.6 -7.8 15.5-7.4 31.2 3.2 45.7 3.8 5.2 8.9 8.9 13.8 13 5.1 4.2 6.9 13.3 4.4 20.3 -2.2 6-7.4 9.3-15 9.3 -8.3 0.1-16.7 0-25 0 -22.3 0.2-41.7 18.2-42.1 40.4 -0.6 29.1-0.2 58.3-0.1 87.5 0 3.7 0.9 7.5 4.4 9.6 5.9 3.4 12.3 2.9 18.3 0.5 5.1-2.1 5.1-7.3 5.1-12.1 0-18.5 0-37 0-55.5 0-9.9 5.7-16.4 14.2-16.3 8.4 0.1 13.9 6.5 13.9 16.1C100.1 273.3 100.1 310.4 100.1 347.6z"/></svg>