<svg xmlns="http://www.w3.org/2000/svg" width="118.7" height="149.6"><style>.st0{fill:#FAFFFF;} .st1{fill:#EB5A49;} .st2{fill:#0C3757;}</style><g id="XMLID_1_"><path class="st0" d="M62.3 46.1L37 144.6h-7.3l25-99.2z"/><path class="st1" d="M106.6 7.7c6 4.2 8.2 12.6 6.7 25.7-.7 6.5-5.1 11.5-9.9 11.5h-.8l-34-3.1-5.1-.5-7.6-.7-5-.5-38.3-3.5c-3.4-.4-5.7-1.8-6.8-4.2-1.5-3.2-.8-7.8 1.7-11.7 4.8-7.3 13.3-8 21.6-8h4.4c3 0 6.1.2 9.1.4 3.4.2 6.8.4 10.3.4 2.6 0 4.9-.1 7.1-.4 5.7-.7 11.7-2.4 17.4-4.1 7-2 13.7-4 19.6-4 3.9 0 7 .9 9.6 2.7z"/><path class="st2" d="M109.4 3.5c7.7 5.3 10.5 15.3 8.8 30.4-.5 4.5-2.4 8.5-5 11.4-2.6 2.9-6.1 4.6-9.8 4.6-.4 0-.9 0-1.3-.1l-34.8-3.2-25.9 101.1c-.3 1.1-1.3 1.9-2.4 1.9H26.5c-.8 0-1.5-.4-2-1s-.6-1.4-.5-2.1L49.6 45 12 41.5c-5.1-.6-8.9-3.1-10.8-7.1C-1 29.7-.2 23.2 3.3 17.9 9.5 8.4 19.8 7.7 29.1 7.7h4.5c3.1 0 6.2.2 9.3.4 3.3.2 6.7.4 10 .4 2.4 0 4.5-.1 6.5-.3 5.3-.6 11-2.3 16.6-3.9C83 2.2 90.4 0 97 0c4.9 0 9 1.2 12.4 3.5zm3.9 29.8c1.5-13.1-.7-21.5-6.7-25.7C104 5.9 100.9 5 97 5c-5.9 0-12.6 2-19.7 4-5.8 1.7-11.7 3.5-17.4 4.1-2.2.2-4.5.4-7.1.4-3.4 0-6.9-.2-10.3-.4-3-.2-6.1-.4-9.1-.4H29c-8.3 0-16.8.6-21.6 8-2.5 3.9-3.2 8.5-1.7 11.7 1.1 2.4 3.4 3.9 6.8 4.2l38.3 3.5 5 .5 7.6.7 5.1.5 34 3.1h.8c4.9 0 9.2-5.1 10-11.6zM37 144.6l25.2-98.5-7.6-.7-25 99.2H37z"/></g><path class="st2" d="M114 37.2h-.2l-24.1-2c-1.4-.1-2.4-1.3-2.3-2.7.1-1.4 1.3-2.4 2.7-2.3l24.1 2c1.4.1 2.4 1.3 2.3 2.7-.2 1.3-1.3 2.3-2.5 2.3z"/></svg>