<svg xmlns="http://www.w3.org/2000/svg" width="521" height="483" viewBox="0 0 521 483"><style>.st0{fill:#020202;}</style><path class="st0" d="M35.3 452.5c0-10.7-.5-21.2.2-31.7.4-5.6 4.2-10.4 7.5-15 9.2-12.8 21.1-22.7 34.2-31.2 43.5-28.1 90.7-47.5 142.6-50.5 38.1-2.2 76.7-4.4 114.6 4.1 44.9 10 86.8 27.1 123.6 55.2 10.9 8.4 20.5 18 27 30.4 2 3.8 3 7.6 2.9 11.9-.3 8.8-.1 17.6-.1 26.7-150.9.1-301.3.1-452.5.1zM164.6 158.3c.5-11.9-1.1-27.3.9-42.5 6.7-49.6 51.4-86.4 101.1-83.4 50.8 3.1 90.8 44.4 91.5 94.8.3 23 .4 46 0 69-.8 52.7-44.3 94.9-97 94.8-52.7-.1-95.8-42.6-96.6-95.3 0-11.3.1-22.7.1-37.4z"/></svg>