<svg xmlns="http://www.w3.org/2000/svg" width="556" height="556" viewBox="0 0 556 556"><style>.st0{fill:#699ACC;}</style><path class="st0" d="M117.1 149.1v-6.7-71c.1-30.1 21.3-51.2 51.3-51.2h319.5c28 0 49.9 21.5 49.9 49.6.1 139.5.1 279 0 418.4 0 28-22 49.7-49.9 49.8H70c-28.8 0-49.9-21.1-49.9-49.8V199.7c0-29.3 20.6-50.1 49.8-50.4 13.7-.1 27.3 0 41 0 1.8-.2 3.6-.2 6.2-.2zm32.7 288.4H117V181.8H71.9c-13.4 0-19.1 5.7-19.1 19.1v284.9c0 13.6 5.8 19.5 19.5 19.4 58-.5 115.9.1 173.9-.7 79.8-1.1 159.6-.3 239.4-.3 14 0 19.7-5.7 19.7-19.7V73.1c0-13.3-5.9-19.3-19.2-19.3-105.6 0-211.3.2-316.9-.2-12.8 0-19.5 8.5-19.5 19.7.3 119.3.2 238.6.2 357.9-.1 2-.1 3.9-.1 6.3z"/><path class="st0" d="M327 116.9c37.3 0 74.6.5 111.9-.2 19.8-.3 34.7 15.7 34.2 34.2-.5 20.8-.1 41.6-.1 62.5 0 18.9-13.9 32.8-32.8 32.8-74.6.1-149.3.1-223.9 0-21.3 0-34.4-13.4-34.4-34.8v-61c0-19.9 13.6-33.5 33.6-33.6 37.2 0 74.4.1 111.5.1zm0 97h95.4c12 0 18.4-6.6 18.4-18.6v-28.5c-.1-11-6.8-17.7-17.9-17.7H231.5c-10.7 0-17.4 6.9-17.4 17.6v28c0 12.8 6.2 19.2 18.9 19.2 31.4.1 62.7 0 94 0zM472.8 311.4v32H182.2v-32h290.6zM472.8 408.5v32H182.4v-32h290.4z"/></svg>