<svg xmlns="http://www.w3.org/2000/svg" width="467" height="397" viewBox="0 0 467 397"><style>.st0{fill:#028DC1;}</style><path class="st0" d="M18.5 382.9v-43c1.6-1.1 3.5-.6 5.2-.6h65c2.1 0 4 .2 5.5-2.3 11.2-19.1 22.7-38.1 34.1-57.2.6-1 1-2.1 1.9-4-6.7 0-12.9-.1-19.1 0-18.4.4-24.4-6.9-28.8-21.7C75.1 230.6 68 207 61 183.4c-13.8-46-27.6-92.1-41.4-138.2-4.6-15.2 5.9-29.1 22-29.1 42.2 0 84.3.1 126.5 0 10.5 0 17.7 4.5 22.3 13.9 11.2 22.8 22.7 45.6 34.1 68.4 1.5 3.1 3.1 4.1 7.1 4 11.7-.2 23.5-.9 35.2.2 2.9.3 5.9-.5 8.9-.5 15.2-.1 30.4-.3 45.6 0 16.7.4 32.5 4.8 46.6 14 17.3 11.4 29.4 26.9 35.5 46.7 6.4 20.6 5.6 41-3.3 60.8-11.1 24.6-29.7 40.9-55.5 48.6-8.7 2.6-17.7 4-27.7 3.6 3.9 6.7 7.5 12.9 11.2 19 7.8 13 15.9 25.8 23.4 38.9 2.2 3.9 4.4 4.3 8.2 3.1 17-5.5 30.3-15.7 39.2-31.2 5.3-9.2 7.7-19.5 7.6-30.5h44.4c.4 7.1-.6 14.2-2.1 20.9-4.9 22.3-15 41.8-31.8 57.5-16.4 15.4-35.7 24.9-58 28.3-15.4 2.3-30.9.9-46.3.9-96.3.2-192.7.1-289 .1-1.8.1-3.4.1-5.2.1zm71.1-258.7c.1.9.2 1.8.4 2.5 4.1 14.2 8.2 28.4 12.5 42.6 5.8 19.3 11.9 38.4 17.4 57.8 1.1 3.7 2.6 4.3 5.8 4.2 13.4-.1 26.8 0 40.2 0h41.6c14.9 0 29.8-.4 44.7.1 9.7.4 19.5.2 29.2.2 11.5 0 23.1.2 34.7-.2 4.3-.1 8.5 0 12.8-.8 20-3.8 36.8-23.4 34.2-46.5-2.2-20.4-20.3-37.4-40.1-37.6-36.3-.3-72.7 0-109-.2-8 0-14.9-2.8-19.6-10.3-4.5-7.2-7.6-14.9-11.4-22.3-8.8-17.1-17.5-34.1-26-51.3-1.4-2.8-3.4-2.6-5.8-2.6H70.3c1.5 7.6 3.7 14.4 6 21.2h50.8c4.3 0 8 1.3 11.6 3.7 6.1 4.1 8.6 10.5 11.7 16.7 6.2 12.4 12.7 24.6 18.5 37.1 4.3 9.1 9.2 18 13.8 27 .6 1.2 1.2 1.9 2.6 1.8 6.1-.6 12.3.3 18.4 0 16.6-.6 33.2-.2 49.8-.2 10.6 0 21.2.1 31.8.1 11.3 0 22.6.4 33.8-.2.6 0 1.2.3 2 .6 0 13.4-.1 26.8 0 40.1 0 3.4-1.9 3.6-4.5 3.6-48.8 0-97.6.1-146.5-.1-8.5 0-15.5-3.9-19.8-11.7-4.9-8.8-9-18-13.6-26.9-6.5-12.9-13.4-25.5-19.3-38.7-2.8-6.3-6.1-11.3-14.5-9.6-4 .6-8.6-.1-13.3-.1zm212.5 214.9c.2-2.3-.8-3.5-1.5-4.8-11-18.2-22.2-36.4-33.2-54.7-1.3-2.2-2.1-3.9-5.3-3.9-25.5.2-51 .1-76.5.1-2.4 0-3.8.6-5.1 2.9-6.7 11.4-13.8 22.6-20.6 34-5.1 8.6-10 17.3-15.3 26.4h157.5z"/></svg>