<svg id="Layer_1" xmlns="http://www.w3.org/2000/svg" viewBox="0 0 500 500"><style>.st0{fill:#CACACA;} .st1{fill:#DADADA;} .st2{fill:#EDEDED;}</style><path class="st0" d="M7 194.1h173.9c7.7 0 7.6-.1 9.7-7.4 6.2-20.8 12.5-41.6 18.7-62.4 5.3-17.6 10.4-35.3 15.6-53L241.4 16c.4-1.3 1.2-2.6 3-3.9 1.2 3.8 2.4 7.6 3.5 11.3 2.4 7.6 4.8 15.1 7.1 22.7 3.5 11.8 6.7 23.8 10.3 35.6 3.3 10.9 6.9 21.6 10.1 32.5 3.9 13.2 7.5 26.4 11.5 39.6 3.8 12.5 8 24.9 11.7 37.5 1 3.4 3.2 2.8 5.3 2.8h176.9c0 .7.1 1.3.1 2-8.3 6.3-16.6 12.7-25 18.9-36.4 27-72.9 53.9-109.4 80.8-2.8 2.1-5.4 4.5-8.4 6.2-3.7 2.1-3.8 4.8-2.6 8.4 4.2 12.6 8.2 25.2 12.2 37.8 7.6 24.5 15 49 22.7 73.5 4.8 15.3 10.2 30.5 15.2 45.8 2.1 6.4 3.7 13 5.9 20.9-49.8-38.7-98.5-76.5-147.5-114.6-48.9 37.9-97.7 75.8-146.5 113.7-.4-.3-.9-.6-1.3-.9.6-2.1 1-4.2 1.7-6.3l22.2-70.2c7.1-22.4 14.3-44.9 21.5-67.3 3.6-11.2 7.3-22.4 11-33.6 1-2.9.4-4.8-2.2-6.7-32.9-24.2-65.6-48.4-98.4-72.5-14.3-10.6-28.6-21.1-42.9-31.6-1-.7-1.6-2.1-2.3-3.1.1-.5.2-.8.2-1.2zm419.9 18c-41.8 0-83.6 0-125.4-.1-10.5 0-16.5-4.3-19.7-14.3-3.6-11.4-7-22.8-10.5-34.3-6.9-22.9-13.7-45.8-20.6-68.7-2.1-6.8-4.1-13.7-6.6-21.9-1 2.4-1.5 3.3-1.7 4.2-6.2 20.3-12.4 40.7-18.5 61-5.8 19.3-11.2 38.6-17.1 57.8-3.8 12.4-9.4 16.2-22.4 16.2-41.1 0-82.3.1-123.4.1-.4.2-.9.3-1.3.5.4.2.8.3 1.1.5 8.7 6.6 17.3 13.4 26.1 19.9 25.5 18.9 51.1 37.6 76.6 56.4 7 5.1 9.9 12.7 7.6 21-2.6 9.1-5.7 18-8.5 27-9.2 29.1-18.5 58.2-27.7 87.4-1.2 3.9-2.5 7.8-4.1 12.7 2-.9 2.9-1.2 3.7-1.7 10.2-8 20.2-16.2 30.4-24.1 21.6-16.8 43.4-33.5 65.1-50.2 9.8-7.6 18.9-7.2 28.4.5 9.3 7.5 18.9 14.6 28.3 22 11.8 9.2 23.5 18.4 35.3 27.6 11.1 8.6 22.3 17.2 34.2 26.4-.6-2.7-.8-4.7-1.3-6.5-7.1-22.5-14.3-44.9-21.4-67.4-5.7-17.9-11.4-35.7-16.8-53.6-2.4-8.1 0-15.3 6.8-20.4 23.1-17.3 46.4-34.4 69.7-51.6 11.3-8.4 22.6-16.9 33.8-25.4.4-.2.8-.3 1.1-.5-.3-.1-.7-.3-1.2-.5z"/><path class="st1" d="M481 196.1c0-.7-.1-1.3-.1-2 .5.2 1.1.4 1.6.6-.4.5-.9.9-1.5 1.4zM7 194.1c-.1.4-.2.7-.2 1.1-.4-.2-.7-.4-1.1-.6.5-.2.9-.3 1.3-.5z"/><path class="st2" d="M61.1 212.1c0 .3-.1.6-.1 1-.4-.2-.8-.3-1.1-.5.3-.1.7-.3 1.2-.5zM427.1 213.1c-.1-.3-.1-.6-.1-1 .4.2.9.3 1.3.5-.5.2-.8.3-1.2.5z"/></svg>