<svg xmlns="http://www.w3.org/2000/svg" width="537" height="537" viewBox="0 0 537 537"><style>.st0{fill:#050505;}</style><path class="st0" d="M52.3 113.2C39.2 90.6 26.2 68.4 13 45.8 23.3 35.5 33.6 25.3 43.7 15c1.4-1.4 2.5-.9 4-.1 20.8 12.2 41.7 24.4 62.6 36.5 1.8 1 2.3 2.2 1.6 4.1-.2.5-.3 1-.6 1.4-6.2 10.8-2.6 18.1 6.1 26.6 51.2 50.2 101.6 101.1 152.3 151.7 1.3 1.3 2.3 2.9 3.6 4.6 16.1-16.3 31.3-31.8 46.6-47.2 12.1 12.1 23.5 23.5 35.3 35.4-5.7 5.3-11.5 10.9-18.6 17.5 3.1 2.4 5.4 3.8 7.3 5.7 53.8 53.7 107.6 107.3 161.3 161.2 26.2 26.3 26.6 67.3 1.4 93.1-22.2 22.7-65.2 30-94.3.7-49-49.3-98.3-98.3-147.4-147.5-6.6-6.6-13.1-13.3-19.8-20.1-5.8 6.1-11.2 11.9-16.5 17.5-12.3-12.5-23.7-24-35.3-35.8 14.8-14.6 30.1-29.8 44.9-44.4-.2-3.1-1.9-3.9-3-5-53.5-53.5-107-107-160.4-160.6-2.6-2.7-4.8-3.3-8.2-1.9-4.5 1.8-9.3 3.1-14.3 4.8zm400 352.5c-55.9-55.8-111.6-111.5-166.7-166.6-9.2 9.3-18.7 18.8-28.3 28.4.2.2.7.8 1.3 1.4 55 55 110 110.1 165.1 165.1 19.9 19.9 51 20 70.4.6 19.6-19.6 19.3-50.7-.8-70.9-54.3-54.3-108.6-108.6-163-162.9-1.3-1.2-2.6-2.4-3.3-3.1-9.8 9.7-19.3 19.2-29.4 29.4 55.4 55.3 111.2 110.8 167.1 166.6-4 3.9-7.7 7.5-12.4 12zM47.7 33.9C43.8 38 40.3 42 36.4 45.6c-2.3 2.2-2.2 3.8-.7 6.3 6.4 10.7 12.6 21.6 18.9 32.3 5.3 9 5.4 9.2 15.2 5.5 4.3-1.6 7-1.1 10.3 2.3 55.4 55.6 110.9 111 166.4 166.5 1.3 1.3 2.3 2.9 2.7 3 4.5-3.9 8.5-7.3 13.1-11.2-1.6-1.3-3-2.2-4.2-3.4-53.6-53.6-107.1-107.3-161-160.6-7.2-7.1-11.4-13.2-5.5-22.7.1-.1.1-.3.1-.5.8-1.9.6-3.3-1.5-4.5-13.9-7.8-27.8-16.1-42.5-24.7zm273.8 182.9L217.4 320.9c3.2 3.4 6.8 7.2 9.7 10.3 34.6-34.6 69.4-69.4 104.1-104-3.2-3.5-6.7-7.2-9.7-10.4z"/><path class="st0" d="M369.5 88.3c10.3 17.2 19.9 33.2 29.5 49.2.8 1.3 1.7 2.4 3 3.3 16.3 9.8 32.5 19.5 49 29.4 22.6-22.7 45.1-45.3 68.7-68.9 11.3 43.6 8.5 83.9-17.3 120.1-28.2 39.5-67.5 57.8-116.4 56.4 0-3.1-.1-5.7 0-8.3.1-2.6.4-5.3.7-8.2 42.7 1 77.2-14.8 102.2-49.4 16-22.1 22.3-47.2 20.5-74.4-18.2 18.2-36.2 36.3-54.2 54.4-3-.9-4.2-2.3-5.5-3.1-19.2-11.5-38.3-23-57.4-34.4-2.7-1.6-4.7-3.5-6.3-6.2-11.4-19.2-23-38.3-34.5-57.4l-2.8-4.9c18.1-18.1 36.2-36.1 54.7-54.6-8.6-1.6-16.7-.9-24.7.2-61.4 8.8-105.2 63.9-99.9 125.6.7 8 2.1 15.9 5.2 23.3 1.4 3.3.7 5.4-1.8 7.8-6.1 5.8-12 12-18 18-3.8-4.2-7.2-7.9-11.1-12.1 2.4-3.4 6.5-6.8 10.3-10.4 2.6-2.5 3.2-4.8 2.4-8.3-14-61.3 17.2-124.1 74.2-149.8 31.1-14 69.7-14.1 97.4-4.9-22.6 22.6-45.2 45.1-67.9 67.6zM246.6 362c4.7 5 8.1 8.7 11.8 12.7-.3 1.4-1.8 2.3-3 3.4-43 43-85.7 86.3-129.1 128.9-17.7 17.4-39.9 21.9-63.4 15.3-24.2-6.8-39.7-23.3-45.7-47.7-5.8-23.8.3-45 17.6-62.4 52.2-52.5 104.6-104.7 156.9-157 .8-.8 1.7-1.6 2.6-2.4 3.7 3.9 7.3 7.7 11.2 11.9-.4 1.2-2.2 2.3-3.5 3.7-51.8 51.7-103.6 103.3-155.3 155.1-21.9 21.9-19.7 56.4 4.6 75 19.6 15 47.1 13 65.1-4.9 42.3-42.1 84.4-84.3 126.6-126.5 1.4-1.3 2.3-3.2 3.6-5.1z"/><path class="st0" d="M80.7 484.7c-13.9 0-25.1-11.2-25.1-25 0-13.9 11.2-25.1 25.1-25 13.9 0 25.1 11.2 25.2 25 0 13.6-11.4 25-25.2 25zm0-33.6c-4.7 0-8.5 3.8-8.6 8.5-.1 4.7 3.7 8.5 8.5 8.6 4.8.1 8.5-3.7 8.5-8.4.1-4.9-3.6-8.7-8.4-8.7z"/></svg>