<svg xmlns="http://www.w3.org/2000/svg" width="481" height="498" viewBox="0 0 481 498"><style>.st0{fill:#020202;}</style><path class="st0" d="M1 290c39.9 6.7 79.7 13.3 119.6 20 22.5 3.7 45 7.4 67.4 11.2 1.3.2 2.5.7 4.6 1.2-22.9 22.2-45.3 43.9-68.5 66.3 39.6 29.9 83.6 41.4 132.1 34.8 38.8-5.3 72.2-22 100.7-49.6 28.5-27.7 44.7-61 51.4-99.7h72.4c-3.6 30.3-10.9 59.4-25.1 86.3-40 75.8-102.6 120.5-187.1 134.7-6.1 1-12.5.6-18.5 2.8h-40c-.8-1.6-2.3-1-3.5-1.1-49.7-5.2-94.4-22.8-133.5-54.2-.5-.4-1.1-.6-1.8-.9C58.6 455 46.2 468.1 33 482c-1.6-9.6-3-18.1-4.4-26.6-7.5-45.3-15-90.5-22.7-135.7-1.4-8.3-1.8-16.8-4.9-24.7v-5zM1 221c3.1-7 3.1-14.8 4.7-22.2C20 134 54.5 82.7 109.2 45.4c51.1-34.8 108-48.2 169.4-41.7 47.9 5 90.8 22.6 128.7 52.3.9.7 1.9 1.4 3.3 2.5C423.2 45.2 435.8 32 449 18c10.7 64.3 21.3 127.7 32 192-64-10.7-127.6-21.3-192.1-32 23.3-22.5 45.9-44.3 69.2-66.9-54.7-38.8-113.1-47.8-174.8-23C121.5 113 85.6 160.2 73.5 226H1v-5z"/></svg>