<svg xmlns="http://www.w3.org/2000/svg" width="220.6" height="220.6" viewBox="0 0 220.6 220.6" fill="#fff"><path d="M110.5 179.3H57.4c-4.4 0-8.1-1.6-11.2-4.7-3.1-3.1-4.6-6.9-4.6-11.3V92.6 57.4c0-4.4 1.6-8.2 4.7-11.3 2.7-2.7 6-4.2 9.9-4.6.5 0 .9-.1 1.4-.1h105.8c4.5 0 8.3 1.6 11.4 4.7 3 3.1 4.6 6.8 4.6 11.1v106.1c0 7.7-5.6 14.3-13.2 15.6-.9.2-1.8.2-2.7.2-17.7.2-35.4.2-53 .2zM69.4 99.9h-12V158.3c.1 2.2 1.2 3.9 3.2 4.8.8.4 1.6.4 2.5.4h95.1c1.6-.1 3-.7 4.1-2 .8-1 1.2-2.2 1.2-3.5v-57.5-.5h-12c2.2 8.6 1.8 17.1-1.3 25.4-3.1 8.3-8.4 15-15.7 20.1-13.9 9.6-32.2 10-46.5 1.1-7.2-4.5-12.6-10.5-16.1-18.2-4.1-9.3-4.9-18.8-2.5-28.5zm41.1 37c14.6 0 26.5-11.8 26.5-26.4 0-14.7-11.8-26.6-26.5-26.6C95.7 83.9 84 96 84 110.4c0 14.7 11.8 26.5 26.5 26.5zm39.7-53h8c3 0 5.3-2.3 5.3-5.3V62.8c0-.3 0-.6-.1-.9-.5-2.7-2.6-4.4-5.3-4.4h-15.7c-3.1 0-5.4 2.3-5.4 5.4v15.7c0 3.1 2.5 5.5 5.4 5.4 2.6-.1 5.2-.1 7.8-.1z"/></svg>