<svg xmlns="http://www.w3.org/2000/svg" width="557.8" height="106.6" viewBox="0 0 557.8 106.6"><style>.st0{fill:#FECC45;}</style><path class="st0" d="M168.8.8c-.6 2.5.7 4.6 1.4 6.9 3.2 10.3 6.5 20.6 9.6 31 .7 2.4 1.8 3.1 4.2 3.1 12.8-.1 25.6-.1 39.5-.1-6.9 4.9-13.1 9.2-19.2 13.5-4 2.8-8 5.8-12.1 8.4-2.7 1.7-3.4 3.3-2.2 6.5 3.8 10.7 7.3 21.4 10.9 32.2.4 1.1.7 2.3 1.3 4.3-10-7.4-19.3-14.2-28.6-21.1-5.7-4.2-5.6-4.2-11.3 0-9.1 6.7-18.3 13.4-27.5 20l-.5-.5c3.9-11.7 7.6-23.5 11.6-35.1.9-2.7.6-4.2-1.9-5.9-9.8-6.6-19.4-13.6-29.1-20.4-.6-.4-1.1-.9-2.5-1.9h40.1c1.3 0 2.5 0 3-1.6 4-12.9 7.9-25.7 11.9-38.6.1-.2-.1-.5-.2-.7h1.6zM279.4.9c4.2 13.1 8.1 25.2 11.7 37.3.9 2.9 2.2 3.6 5 3.6 12.6-.2 25.2-.1 38.8-.1-6.3 4.5-11.8 8.3-17.3 12.2-4.9 3.5-9.8 7.1-14.9 10.4-2.1 1.4-2.4 2.7-1.6 5 3.8 10.9 7.4 22 11.1 32.9.4 1.2.7 2.3 1.4 4.4-9-6.7-17.3-12.8-25.6-18.9-2.8-2.1-5.4-5.7-8.6-5.7-3.3-.1-5.8 3.6-8.6 5.7l-25.7 18.9 4.2-12.9c2.7-8.2 5.4-16.5 8.3-24.7.8-2.2.3-3.4-1.5-4.7-9.9-6.8-19.6-13.7-29.4-20.6-.7-.5-1.7-.6-1.9-2h32.8c8.9 0 8.9 0 11.6-8.4 3.3-10.5 6.6-20.9 10.2-32.4zM468.6 105.2c3.8-11.7 7.5-23.5 11.6-35.1 1.1-3.1.5-4.6-2.2-6.4-9.6-6.5-19-13.3-28.5-19.9-.6-.4-1.4-.6-1.6-2h7.8c10 0 19.9-.2 29.9.1 3.2.1 4.3-1.1 5.2-3.9 3.5-11.6 7.2-23.1 10.8-34.6.1-.5.4-.9.9-1.8 3.8 11.9 7.3 23.2 10.9 34.6 1.8 5.7 1.8 5.8 7.8 5.8h36.7c-12.2 8.6-23.4 16.5-34.7 24.4 4.4 13.3 8.8 26.4 13.5 40.5-10.6-7.8-20.3-14.7-29.7-22.1-3.5-2.8-5.7-2.7-9.3 0-9.4 7.2-18.7 14.5-28.7 21-.2-.4-.3-.5-.4-.6zM89.8 105.5c-10-7.3-20-14.4-29.9-21.9-2.6-1.9-4.3-2-6.8 0-9.1 7-18.4 13.7-27.6 20.6-.8.6-1.6 1.1-2.7 1.8.1-2.6 1.2-4.6 1.9-6.7 3.1-9.6 6.1-19.2 9.6-28.6 1.4-3.8.5-5.4-2.6-7.5-10-6.7-19.8-13.8-29.8-20.8 1-1.2 2.2-.6 3.2-.7 11.9 0 23.7-.1 35.6 0 2.3 0 3.3-.8 4-2.9 3.5-11.2 7-22.3 10.6-33.5.4-1.1.8-2.3 1.4-4.2 3.2 10.2 6.2 19.7 9.2 29.1 1.2 3.7 1.2 8.5 4 10.7 2.8 2.2 7.5.6 11.4.7 9.8.1 19.7 0 29.5 0 .4 1.4-.7 1.5-1.4 2-9.6 6.8-19.1 13.5-28.8 20.2-2.3 1.6-3 3-2 5.8 4.1 11.8 7.8 23.7 11.7 35.5-.2.2-.3.3-.5.4zM423.8 105.4c-10.1-7.4-20.2-14.6-30.2-22.1-2.3-1.7-3.7-1.5-5.8.1-8.9 6.8-18 13.4-27 20-1.1.8-1.9 2.1-3.8 1.6 3.8-11.4 7.5-22.8 11.5-34.1 1.3-3.6.9-5.5-2.4-7.7-9.5-6.3-18.6-12.9-27.9-19.5-.6-.4-1.1-.9-1.8-1.4 1-1.2 2.2-.6 3.2-.7 11.6 0 23.2-.1 34.8 0 2.8 0 3.9-.9 4.7-3.5 3.5-11.6 7.2-23.1 10.8-34.6.2-.6.1-1.3 1.2-1.7 2 6.3 4 12.5 6 18.8l4.5 14.4c2.1 6.6 2.1 6.6 9.1 6.6h34.4c.2 1.5-1.1 1.6-1.8 2.1-9.7 6.8-19.3 13.7-29.1 20.4-2.3 1.5-2.4 2.9-1.6 5.3 4 11.8 7.8 23.6 11.7 35.5-.1.2-.3.3-.5.5z"/><path class="st0" d="M90.2 105.1c.1.2.4.4.4.5-.3.5-.5.2-.8-.1.2-.1.3-.2.4-.4zM134.9 105.4c-.2.1-.5.2-.7.3.1-.3.1-.5.2-.8.2.2.4.3.5.5zM424.4 104.9c.1.3.1.5.2.8-.2-.1-.5-.2-.7-.3.1-.2.3-.3.5-.5zM468.9 105.5c-.2.3-.4.5-.7.1l.4-.4.3.3z"/></svg>