<svg xmlns="http://www.w3.org/2000/svg" width="32" height="32" viewBox="0 0 415 411.2"><style>.st0{fill:#69c;}</style><path class="st0" d="M205.8 366.6c-89.6-1.5-161-74.8-159.3-164.6 1.7-89.6 75.2-160.5 164.8-158.7 89.2 1.9 160.2 75.2 158.4 164.8-1.9 89.5-75 159.8-163.9 158.5zm145.7-159.2c1.3-78.7-60.8-143.9-140.3-145.7-78.7-1.8-144.4 60.2-146.3 140-2 79.3 60.6 144.9 140.2 146.6 79.4 1.8 144.8-61.2 146.4-140.9z"/><path class="st0" d="M260.9 142.5c0 2.3-.8 4.3-2.1 6.1-26.8 38.2-53.5 76.4-80.2 114.6l-6.3 9c-3.3 4.6-8.7 5.7-12.9 2.8-4.4-3-5.3-8.6-2.1-13.3 19.4-27.8 38.8-55.5 58.3-83.2 9.3-13.3 18.6-26.5 27.8-39.8 1.7-2.5 3.8-4.5 6.9-5 5.5-1 10.5 3.2 10.6 8.8zM205.6 157.1c-.1 16.9-14.1 30.7-31 30.5-17.1-.2-30.8-14.2-30.6-31.3.2-16.9 14.3-30.6 31.2-30.3 17 .2 30.6 14.1 30.4 31.1zm-18.4-.4c0-6.8-5.5-12.4-12.3-12.4-7 0-12.5 5.6-12.5 12.6.1 6.9 5.5 12.3 12.3 12.4 6.9.1 12.6-5.6 12.5-12.6zM210.6 253.2c0-17 13.7-30.8 30.6-30.9 17.1-.1 31 13.9 30.9 30.9-.1 16.9-13.9 30.7-30.8 30.7-16.9.1-30.7-13.7-30.7-30.7zm43.2 0c0-6.9-5.3-12.4-12.2-12.6-6.9-.2-12.6 5.5-12.6 12.4s5.3 12.4 12.2 12.6c6.9.2 12.6-5.4 12.6-12.4z"/></svg>