<svg xmlns="http://www.w3.org/2000/svg" width="78.2" height="78.2"><style>.st0{fill:#EB5A49;} .st1{fill:#6EBEC5;} .st2{fill:#0C3757;}</style><g id="XMLID_1_"><path class="st0" d="M39.1 20.7c10.1 0 18.4 8.2 18.4 18.4 0 10.1-8.2 18.4-18.4 18.4-10.1 0-18.4-8.2-18.4-18.4 0-10.1 8.3-18.4 18.4-18.4zM52 39.1c0-7.2-5.8-13-13-13-7.1 0-13 5.8-13 13 0 7.1 5.8 13 13 13 7.2-.1 13-5.9 13-13z"/><path class="st1" d="M71.7 37.6c1 .6 1.4 1.1 1.4 1.5 0 .3-.4.9-1.4 1.5-2.4 1.3-4 3.5-4.7 6-.7 2.6-.3 5.2 1.1 7.5.6 1 .7 1.7.5 2-.2.3-.8.6-1.9.6h-.3c-2.6 0-5.1 1-7 2.9-1.9 1.9-2.8 4.4-2.8 7 0 1-.2 1.6-.5 1.9-.1.1-.2.2-.5.2-.2 0-.8-.1-1.6-.6-1.5-.9-3.3-1.4-5-1.4-3.5 0-6.8 1.9-8.5 5.1-.5 1-1.1 1.4-1.5 1.4-.3 0-.9-.4-1.5-1.4-1.7-3.1-5-5.1-8.5-5.1-1.8 0-3.5.5-5.1 1.4-.8.5-1.4.6-1.6.6-.3 0-.4-.1-.5-.2-.2-.2-.5-.8-.4-1.9 0-2.7-.9-5.2-2.8-7-1.8-1.9-4.3-2.9-7-2.9h-.3c-1.1 0-1.7-.3-1.9-.6-.2-.3-.1-1 .5-2 1.4-2.3 1.8-5 1.1-7.6-.7-2.6-2.4-4.7-4.7-6C5.4 40 5 39.4 5 39.1c0-.3.4-.9 1.4-1.5 2.3-1.3 4-3.5 4.7-6 .7-2.6.3-5.3-1.1-7.6-.6-1-.7-1.7-.5-2 .2-.3.8-.6 1.9-.6h.3c2.6 0 5.1-1 7-2.9 1.8-1.9 2.8-4.4 2.8-7 0-1 .2-1.7.5-1.9.1-.1.2-.2.5-.2.2 0 .8.1 1.6.6 1.5.9 3.3 1.4 5 1.4 3.5 0 6.8-1.9 8.5-5 .5-1 1.1-1.4 1.5-1.4.3 0 .9.4 1.5 1.4 1.7 3.1 5 5 8.5 5 1.8 0 3.5-.5 5-1.4.8-.5 1.4-.6 1.6-.6.3 0 .4.1.5.2.2.2.5.8.5 1.9 0 2.6.9 5.1 2.8 7 1.8 1.9 4.3 2.9 7 2.9h.3c1.1 0 1.7.3 1.9.6.2.3.1 1-.5 2-1.4 2.3-1.8 5-1.1 7.6.6 2.6 2.3 4.7 4.6 6zm-9.3 1.5c0-12.9-10.5-23.4-23.4-23.4-12.9 0-23.4 10.5-23.4 23.4C15.6 52 26.1 62.5 39 62.5c13 0 23.4-10.5 23.4-23.4z"/><path class="st2" d="M74.2 33.2c2.5 1.4 4 3.5 4 5.8s-1.5 4.4-4 5.8c-1.2.7-2 1.7-2.3 3-.3 1.2-.1 2.6.5 3.7 1.5 2.5 1.7 5 .6 7s-3.4 3.1-6.2 3.1h-.2c-1.4 0-2.6.5-3.5 1.4-.9.9-1.4 2.1-1.4 3.5 0 2.3-.6 4.2-1.9 5.5-1 1.1-2.5 1.7-4 1.7-1.4 0-2.8-.4-4.2-1.3-.8-.5-1.6-.7-2.5-.7-1.7 0-3.3 1-4.2 2.5-1.4 2.5-3.5 4-5.8 4s-4.4-1.5-5.8-4c-.9-1.5-2.5-2.5-4.2-2.5-.9 0-1.7.2-2.5.7-1.4.8-2.8 1.3-4.2 1.3-1.5 0-3-.6-4-1.7-1.3-1.3-1.9-3.2-1.9-5.5 0-1.3-.5-2.5-1.4-3.5-.9-.9-2.1-1.4-3.4-1.4h-.3c-2.8 0-5.1-1.1-6.2-3.1-1.1-2-.9-4.5.6-7 .7-1.1.9-2.5.5-3.7-.3-1.3-1.1-2.3-2.3-3-2.5-1.4-4-3.5-4-5.8s1.5-4.4 4-5.8c1.2-.6 2-1.7 2.3-2.9.3-1.3.1-2.6-.5-3.7-1.5-2.5-1.7-5-.6-7s3.4-3.1 6.2-3.1h.2c1.4 0 2.6-.5 3.5-1.4.9-.9 1.4-2.1 1.4-3.4 0-2.3.6-4.2 1.9-5.5 1.1-1.1 2.5-1.7 4-1.7 1.4 0 2.8.4 4.2 1.3.8.5 1.6.7 2.5.7 1.7 0 3.3-.9 4.2-2.5 1.4-2.5 3.5-4 5.8-4s4.4 1.5 5.8 4c.8 1.5 2.4 2.5 4.2 2.5.9 0 1.7-.2 2.5-.7 1.4-.8 2.8-1.3 4.2-1.3 1.6 0 3 .6 4 1.7 1.3 1.3 1.9 3.2 1.9 5.5 0 1.3.5 2.5 1.3 3.4.9.9 2.1 1.4 3.4 1.4h.3c2.8 0 5.1 1.1 6.2 3.1 1.1 2 .9 4.5-.6 7-.7 1.1-.9 2.5-.5 3.7.4 1.3 1.2 2.3 2.4 2.9zm-1 5.9c0-.3-.4-.9-1.4-1.5-2.4-1.3-4-3.4-4.7-6-.7-2.6-.3-5.3 1.1-7.6.6-1 .7-1.7.5-2-.2-.3-.8-.6-1.9-.6h-.3c-2.6 0-5.1-1-7-2.9-1.9-1.9-2.8-4.4-2.8-7 0-1-.2-1.7-.5-1.9-.1-.1-.2-.2-.5-.2-.2 0-.8.1-1.6.6-1.5.9-3.3 1.4-5 1.4-3.5 0-6.8-1.9-8.5-5-.6-1-1.2-1.4-1.5-1.4-.3 0-.9.4-1.5 1.4-1.7 3.1-5 5-8.5 5-1.8 0-3.5-.5-5-1.4-.8-.5-1.4-.6-1.6-.6-.3 0-.4.1-.5.2-.2.2-.5.8-.5 1.9 0 2.6-.9 5.1-2.8 7-1.8 1.9-4.3 2.9-7 2.9h-.3c-1.1 0-1.7.3-1.9.6-.2.3-.1 1 .5 2 1.4 2.3 1.8 5 1.1 7.6-.7 2.6-2.4 4.7-4.7 6-1 .5-1.4 1.1-1.4 1.5 0 .3.4.9 1.4 1.5 2.3 1.3 4 3.5 4.7 6 .7 2.6.3 5.3-1.1 7.6-.6 1-.7 1.7-.5 2 .2.3.8.6 1.9.6h.3c2.7 0 5.1 1 7 2.9 1.8 1.9 2.8 4.4 2.8 7 0 1 .2 1.6.4 1.9.1.1.2.2.5.2.2 0 .8-.1 1.6-.6 1.5-.9 3.3-1.4 5.1-1.4 3.5 0 6.8 1.9 8.5 5.1.5 1 1.1 1.4 1.5 1.4.3 0 .9-.4 1.5-1.4 1.7-3.1 5-5.1 8.5-5.1 1.8 0 3.5.5 5 1.4.8.5 1.4.6 1.6.6.3 0 .4-.1.5-.2.2-.2.5-.8.5-1.9 0-2.7.9-5.2 2.8-7 1.8-1.9 4.3-2.9 7-2.9h.3c1.1 0 1.7-.3 1.9-.6.2-.3.1-1-.5-2-1.4-2.3-1.8-5-1.1-7.5.7-2.6 2.4-4.7 4.7-6 .9-.7 1.4-1.3 1.4-1.6z"/><path class="st2" d="M39.1 15.7c12.9 0 23.4 10.5 23.4 23.4C62.4 52 52 62.5 39.1 62.5c-12.9 0-23.4-10.5-23.4-23.4 0-12.9 10.5-23.4 23.4-23.4zm18.3 23.4c0-10.1-8.2-18.4-18.4-18.4-10 0-18.3 8.3-18.3 18.4 0 10.1 8.2 18.4 18.4 18.4 10.1 0 18.3-8.3 18.3-18.4z"/><path class="st2" d="M39.1 26.1c7.2 0 13 5.8 13 13 0 7.1-5.8 13-13 13-7.1 0-13-5.8-13-13s5.8-13 13-13zm7.9 13c0-4.4-3.6-8-8-8s-8 3.6-8 8 3.6 8 8 8c4.5-.1 8-3.6 8-8z"/></g></svg>