<svg xmlns="http://www.w3.org/2000/svg" width="449" height="296" viewBox="0 0 449 296"><style>.st0{fill:#060606;}</style><path class="st0" d="M301.3 147.1c32.2-26.2 71.9-21.7 96.8-1.9 25.8 20.5 35.7 55.4 24.2 86.4-11.7 31.6-41.6 51-76.2 49.4-26.5-1.2-63.4-20.5-71-67.5-9.1-.4-18.2-.7-27.3-1.2-29.8-1.9-48.1-15.8-57.9-43.9-1.1-3.1-2.1-6.4-3.5-9.3-8-16.5-22.2-23.5-39.3-26.1-4.5 7.8-4.4 8.1 1.8 13.2 25.7 20.9 34.9 56.3 22.8 86.8-12.4 31-43 50.3-76.2 48-41.1-2.8-71.7-37.5-70.5-79.8 1.1-39.2 34.6-71.6 74.6-72.2 5.3-.1 10.7.1 15.9 1.3 5 1.2 9.9 2.7 15.1 4.1 3.5-9.3 5.5-19.1 7.3-28.8 2.1-11.1 4.1-22.2 6.4-33.3.6-2.9-.1-4.6-2.2-6.5-5.8-5.1-11.4-10.3-17-15.5-4.6-4.3-4.8-7.4-1.1-12.6 13-18.1 36-25.6 59.3-19.3 11.4 3.1 21.7 8.4 31.3 15.1 3.9 2.7 4.8 7 2.4 10.4-2.3 3.2-6.2 3.9-10.2 1.4-10.7-7-21.7-13-34.6-14.6-13.1-1.7-24.3 2.3-34 12.3 5.7 5.3 11.1 10.6 16.9 15.5 4.1 3.4 5.4 7 4.1 12.3-2 7.9-3.3 15.9-4.9 24.1 45.7 5 80.9 25.5 102.7 68.1 7.1-14.9 13.8-28.9 20.7-43.3-5.5-1.4-10.6-1.5-15.6-1.4-3.3 0-6.3-.7-8.9-2.6-1.6-1.2-3.2-2.7-2.9-4.9.3-2.3 2.1-3.3 4-4 2.8-1 5.8-1.4 8.8-1.5 17.3-.2 34.6-1.2 51.4-5.8 3.6-1 7.3-.8 10.7.9 5.2 2.6 5.9 7.3 1.6 11.2-8.5 7.5-18.2 11.8-29.7 10.2-3.9-.5-5.2 1-6.6 4-3.8 8.4-3.9 8.3 3 14.5 2.6 2.2 5.2 4.5 7.8 6.8zm-176.2 1.4c-19.3-10.7-58.1-8-77.9 26-17 29.3-6.4 67.3 23.6 84.3 29.7 16.8 67.7 6 84.1-24.1 18.3-33.4 1-67.7-16.9-78.5l-2.1 4.5c-7.6 16.8-16.7 32.5-28.2 47-3.6 4.6-7.6 5.5-11.1 2.7-3.6-2.7-3.6-6.9-.1-11.4 11.1-14.1 19.8-29.5 27.1-45.9.7-1.3 1.8-2.8 1.5-4.6zm165.3 64.6c.9 25.9 25.1 49.5 54.2 53.4 27.9 3.7 56.5-14.9 65.4-42.6 9.3-28.8-3.7-59.9-30.4-73.9-26.1-13.7-55.9-4.7-66.6 7.5 15.3 13.6 30.5 27.3 45.8 40.9 2.9 2.6 4.6 5.4 3.1 9.2-1.4 3.6-4.5 4.5-8.1 4.6-19.3.3-38.6.7-58 1-1.8 0-3.6-.1-5.4-.1zm-49.7-16c2.1-4.2 3.8-8.4 6-12.2 1.8-3.2 1.7-6 .3-9.4-13.9-34-39.2-54.5-74.4-63.4-6.7-1.7-13.5-3.1-20.8-3.1-.6 3.4-1.2 6.4-1.7 9.5 2.4.5 4.3.9 6.2 1.4 22.6 5.2 38.7 17.9 46 40.4 1.8 5.4 3.9 10.6 6.8 15.5 6.9 12.1 17.2 19.2 31.6 21.3zm95.1 1.2l.3-1.2c-11.1-9.9-22.3-19.8-33.7-30-7.4 9.5-11.6 19.8-12.6 31.2h46zm-55.9-50.2c-8 16.6-15.8 33.1-24 50.2h19.3c1.4-14.9 6.9-28.5 16.4-40.9-4.3-3.3-7.1-7.4-11.7-9.3z"/></svg>