<svg xmlns="http://www.w3.org/2000/svg" width="366" height="490"><style>.st0{fill:#0F3A59;} .st1{fill:#849AAA;} .st2{fill:#AEBCC6;} .st3{fill:#6CBBC3;} .st4{fill:#E75948;}</style><g id="NOrKlR.tif_1_"><path class="st0" d="M50 1.9C58.8 5 62 9.4 62 18.6c0 5.5-.2 11 .1 16.5.3 6.9-1.9 12.4-8.9 16.8H67c3.2 16.4 9 31.4 16.2 45.9 14.4 29.1 33.9 54.1 61 72.6 12.1 8.3 25.4 13.7 40.2 15.3 6.2.7 11.9-1.2 17.6-2.7 28.5-7.2 54.5-.5 78.8 14.3 25.9 15.7 41.4 40 52 67.6 10.7 27.9 16.1 56.9 16.2 86.9.1 36.2 0 72.3 0 108.5v5.8h-29.5c-1-1.6-.5-3.4-.5-5.2V336.4c0-2.3.1-4.5-1.4-6.6-21.6-30.6-49.8-51.4-86.6-60-11.7-2.7-23-1.6-34.4 1.8-32.9 10-58.2 30-77.8 58-1.4 2-1.5 3.9-1.5 6.1v130.1H87.6v-18.4c.2-39-.6-78 .4-117 .4-15 4.5-29.6 6.4-44.4.3-2.5.6-4.9 1-8-7.6.2-14.6 2.4-21.7 3.4-2.6.4-5.2 1.3-7.8 1.6-2.5.2-3.7 1.5-5 3.4-7.7 11.5-18.7 16.6-32.2 14.4-13.8-2.2-22.5-10.8-26.3-24.2-.4-1.3.2-2.9-1.4-3.6v-8c.3-.3.8-.6.9-1C4.5 250.1 13 241.8 26 237.3c22.5-7.7 44.9-15.6 67.3-23.4 1.3-.5 3-.5 3.9-2.1-.6-8.6-2.1-17.1-4.2-25.5-6.3-25.4-18.3-47.3-39.3-63.7-3.4-2.7-7.1-4.2-11.3-4.6-5.1-.5-10.3-.9-15.4-1.1-10.5-.3-16.6-6.3-16.7-16.9V72c0-4.9-.1-9.7 3-13.9 3-4.1 7.3-5.8 12.9-6.5-7-4.2-9.1-9.9-8.9-16.9.2-5.5 0-11 .1-16.5.1-9.2 3.9-14.1 12.7-16.6 6.5.2 13.2.3 19.9.3zm289 453.8v-5.8c0-30-.2-60 .1-90 .2-18.4-1.4-36.6-5.1-54.6-5.4-26.9-13.8-52.7-31.2-74.4-26.5-33.1-60.3-47.5-102.9-37.2-42.1 10.2-83.4 22.9-124.4 36.8-8.8 3-17.5 6.1-27.1 9.4 12.7 7.6 18 18.4 17.8 32.3 2.1-.3 3.6-.5 5.1-.8 20.1-3.9 40.3-7 60.6-9.6 18-2.3 36.1-3.7 54.2-4.5 15.5-.6 31.1-.9 46.3 2.3 40.9 8.8 71.5 32.5 95.1 66.4 1.6 2.3 1.6 4.6 1.6 7.1v116.5c0 1.9-.6 4 .7 6 2.7.1 5.5.1 9.2.1zM164 192.3c-.9-1.8-2.4-1.7-3.6-2.2-15.1-5.9-28.3-14.7-40.2-25.6-29.4-27.1-48.7-60.4-60.2-98.4-.8-2.8-1.7-4.2-5-4.1-9.3.2-18.6 0-28 .1-5.1 0-6.8 1.8-6.9 7-.1 7.7 0 15.3 0 23-.1 14.5-1.1 14.6 14.2 15.1 9.6.3 18.9 1.8 26.9 8.6C80.1 131.4 92.5 151 99.9 174c3.7 11.4 5.7 23.1 7.5 35.2 19.1-5.7 37.7-11.2 56.6-16.9zm-57.5 263.4c1.1-2.3.7-4.3.7-6.2V333.1c0-2.5.2-4.8 1.8-7.1 15.2-21.7 33.3-40.3 57-52.7 3-1.6 6.1-3.1 9.8-5-2.3 0-3.8-.1-5.3 0-17.6 1.5-35.1 3.3-52.6 5.7-11.3 1.6-11.4 1.3-13 12.3-.1.7-.3 1.3-.4 2-2.8 18.1-6.9 35.9-6.8 54.4.3 35.8.1 71.6.2 107.4 0 1.8-.4 3.6.6 5.5 2.5.6 5.1.3 8 .1zM33.4 291.1c12.4.1 22.4-9.5 22.6-21.8.2-12.4-9.5-22.4-21.8-22.5-12.4-.2-22.4 9.4-22.6 21.7-.2 12.4 9.5 22.5 21.8 22.6zM52 27.1v-9.5c0-3.9-1.9-5.9-5.8-5.8-4.3 0-8.7.1-13 0-4-.1-5.9 1.9-6 5.7-.1 6.5-.1 13 0 19.5.1 3.7 1.9 6 5.9 6 4.5 0 9 .1 13.5 0 3.4-.1 5.2-2 5.4-5.3.1-3.6 0-7.1 0-10.6z"/><path class="st1" d="M364.8 396.3l1.2-.3v48c-.3 0-.6.1-.9.1l-.3-47.8z"/><path class="st2" d="M29.9 1.8c0-.3 0-.5.1-.8h20c-.1.3-.1.6 0 .9-6.7 0-13.4-.1-20.1-.1z"/><path class="st0" d="M281.9 458.8c1.4 9.8 9 16 26.3 22 .3 3.1-.7 6-1.5 9-14.7-.6-31.5-14.1-34.9-28.4-.9-3.8-2.6-5.4-6.2-6.4-5.9-1.7-11.6-4-17.5-5.8-2.3-.7-3.1-1.8-3.1-4.2.1-15.3.1-30.6 0-45.9 0-2.6.9-3.7 3.4-4.5 9.7-3 19.1-6.7 28.9-9.3 7.9-2 16.1-1.8 23.9 1.4 6 2.5 8.9 7.4 9.7 13.5 1.7 13.3 1.1 26.6.6 39.9-.3 9.1-9.3 16.8-19.3 18-3.3.4-6.8.5-10.3.7zm-.7-63.9v53.3c3.2 0 6.1.2 8.8 0 8.1-.8 11.7-5.1 11.7-13.2 0-8.8 0-17.7-.1-26.5-.1-11.9-3.6-15-15.5-14.3-1.5.1-3.2.5-4.9.7zm-10.5 3c-4.7 1.5-8.8 3-12.9 4.1-2.3.6-2.6 2-2.6 4 .1 11.5 0 23 0 34.8 5.2 1.7 10.2 3.4 15.5 5.2v-48.1zM129.9 489.9c-.7-3.1-1.3-6-2-9.4 11.7-3.9 23.2-8.2 27.5-22.3-4.8-.4-9.3.1-13.6-1.1-10.5-2.7-16.8-10.5-16.8-21.2 0-10.3-.2-20.7.1-31 .4-14 6.8-20.3 20.6-21 6.3-.3 12.5 0 18.6 2.2 7.8 2.8 15.7 5.4 23.7 7.8 2.5.8 3.4 1.9 3.4 4.5-.1 15.2-.2 30.3 0 45.5 0 2.8-.8 4.1-3.5 4.9-6.4 1.9-12.6 4.1-18.9 6.3-1.5.5-3.2.8-3.5 2.9-3 16.9-15 25.1-29.8 30.3-1.1.4-2.2.6-3.4.9-.8.3-1.4.4-2.4.7zm25.6-42v-53.7c-2.8-.1-5.3-.4-7.7-.4-10.2.1-12.7 2.5-12.8 12.7-.1 9.5 0 19 0 28.5 0 7.3 3 10.9 10.1 12.5 3.4.8 6.8.5 10.4.4zm10.6-50.5v48c4.7-1.5 9.1-3 13.5-4.4 2.1-.6 1.6-2.3 1.6-3.7v-32c0-1.4.4-3-1.7-3.6-4.4-1.2-8.7-2.7-13.4-4.3zM71.1 443.8v-47.5c3.1-1 6.2-.3 9.6-.5v48h-9.6zM364.8 396.3l.3 47.8c-2.9.8-5.9.3-9.3.3v-48.1h9z"/><path class="st3" d="M339 455.7h-9.2c-1.3-2-.7-4-.7-6V333.2c0-2.5 0-4.8-1.6-7.1-23.5-33.9-54.1-57.6-95.1-66.4-15.2-3.3-30.8-3-46.3-2.3-18.1.7-36.2 2.2-54.2 4.5-20.3 2.6-40.5 5.7-60.6 9.6-1.5.3-2.9.5-5.1.8.3-13.9-5.1-24.7-17.8-32.3 9.6-3.3 18.3-6.4 27.1-9.4 41-13.9 82.3-26.6 124.4-36.8 42.7-10.3 76.4 4.1 102.9 37.2 17.3 21.7 25.7 47.5 31.2 74.4 3.6 18 5.2 36.2 5.1 54.6-.2 30-.1 60-.1 90v5.7zM218.9 191.8c-17.2-.1-30.8 13.1-30.9 29.9-.1 16.9 13.4 30.4 30.5 30.4 16.2 0 29.9-13.5 30.3-29.8.2-16.5-13.4-30.4-29.9-30.5zm85.3 87.4c6.8 0 12.5-5.4 12.6-12.1.1-6.8-5.9-12.8-12.8-12.7-6.8.1-12.2 5.5-12.2 12.5.1 7.1 5.3 12.3 12.4 12.3zM164 192.3c-18.9 5.6-37.5 11.2-56.5 16.9-1.8-12.1-3.8-23.8-7.5-35.2-7.5-23-19.9-42.6-38.6-58.2-8.1-6.7-17.3-8.3-26.9-8.6-15.2-.5-14.3-.6-14.2-15.1.1-7.7-.1-15.3 0-23 .1-5.1 1.8-6.9 6.9-7 9.3-.1 18.7.1 28-.1 3.2-.1 4.1 1.3 5 4.1 11.5 38 30.8 71.4 60.2 98.4 11.8 10.9 25.1 19.8 40.2 25.6.9.5 2.4.5 3.4 2.2z"/><path class="st3" d="M106.5 455.7c-2.9.2-5.5.5-8.1-.2-1.1-1.8-.6-3.7-.6-5.5-.1-35.8.1-71.6-.2-107.4-.1-18.5 3.9-36.3 6.8-54.4.1-.7.3-1.3.4-2 1.7-11 1.7-10.8 13-12.3 17.5-2.4 35-4.2 52.6-5.7 1.5-.1 3 0 5.3 0-3.7 1.9-6.7 3.4-9.8 5-23.8 12.4-41.8 31.1-57 52.7-1.6 2.2-1.8 4.5-1.8 7.1v116.4c0 2 .5 4-.6 6.3z"/><path class="st4" d="M52 27.1c0 3.5.1 7 0 10.5-.1 3.4-2 5.3-5.4 5.3-4.5.1-9 .1-13.5 0-3.9 0-5.8-2.3-5.9-6-.1-6.5-.1-13 0-19.5.1-3.8 2-5.8 6-5.7 4.3.1 8.7 0 13 0 3.9 0 5.8 1.9 5.8 5.8v9.6z"/><path class="st0" d="M218.9 191.8c16.5.1 30.2 14 29.9 30.6-.3 16.3-14 29.8-30.3 29.8-17 0-30.5-13.5-30.5-30.4.1-17 13.6-30.1 30.9-30zm-.8 10c-11.2.1-20.2 9.3-20 20.5.2 11 9.2 19.8 20.2 19.8 11.2 0 20.3-9.1 20.3-20.3-.2-11.2-9.2-20.1-20.5-20zM304.2 279.2c-7.1 0-12.3-5.2-12.3-12.3 0-7 5.3-12.5 12.2-12.5 6.9-.1 12.9 5.9 12.8 12.7-.2 6.7-5.9 12.2-12.7 12.1z"/></g></svg>