<svg xmlns="http://www.w3.org/2000/svg" width="484" height="555" viewBox="0 0 484 555"><style>.st0{fill:#030303;}</style><path class="st0" d="M464.1 532.8H21.6v-23c0-32.2-.1-64.3.1-96.5.3-43.8 26.5-82.8 67.1-98.9 17.1-6.8 35.1-11.4 52.6-17.2 2.9-1 3.9 1.1 5.3 2.5 18.6 18.5 40 32.6 65.4 39.9 33.3 9.5 64.6 3.6 94.1-13.4 12.6-7.3 23.9-16.3 33.8-27.1 1.7-1.9 3.1-2.3 5.6-1.5 15.8 5.2 31.8 9.9 47.5 15.2 40.7 13.9 70.3 53.4 71.2 96.5.8 40.3.2 80.6.2 121-.1.8-.3 1.6-.4 2.5zM120 516.3h246.2v-48.8h16.2v48.8h65.1c1-1.4.6-2.8.6-4 0-33.3.1-66.7 0-100-.2-37.9-23.4-71-59-84.2-12.5-4.6-25.1-8.7-37.7-13.1-2.8-1-4.7-.8-7 1.5-3.8 3.9-8 7.5-12.4 10.9-34 26.6-72.2 37.9-115.1 29.7-29-5.5-53.5-19.9-74.6-40.1-2.7-2.6-4.9-3-8.3-1.8-11.1 4-22.3 7.7-33.4 11.6-38.8 13.6-62.4 46.7-62.5 87.8-.1 32.2 0 64.3 0 96.5v5h65.8v-48.6h16.2c-.1 16.4-.1 32.3-.1 48.8z"/><path class="st0" d="M366.1 150.1c-2.2 44.1-17.3 83.3-44.7 117.8-12.6 15.8-27.6 29-46.6 36.8-32.2 13.2-61.5 6.5-87.9-14.6-28.9-23.1-46.5-53.9-57.9-88.5-9-27.4-12.3-55.1-5.1-83.5 14-55.6 63.9-94.6 120.5-94 56.9.6 106 41.3 118.6 98.3 2 9 3.1 18.3 3.1 27.7zm-223.2-37.2c-3.1 8.5-5 16.8-5.9 25.4-2.2 22.1 1.7 43.5 9.2 64.2 11.2 30.8 27.9 57.8 54.7 77.5 11.5 8.4 24.2 14 38.6 14.7 19.2 1 35.6-6.3 50-18.2 30.3-25.1 47.6-58.1 56.4-95.8 4.1-17.8 5.3-35.9 1.3-54-.5-2.2-1.4-3.9-3.3-5.2-27.3-18.1-61-23.3-91.9-3.4-21.4 13.8-45.2 17-69.9 10-13.4-3.7-25.6-10.2-39.2-15.2zm6.4-15.1c8.8 3.5 17 6.4 24.9 9.8 25.9 11.2 50.4 8.1 74.4-5.9 27.8-16.2 56.7-17.8 86.1-4.1.7.3 1.4 1 2.6-.3-21.1-35.4-51.5-56.4-93.4-56.7-42.3-.2-73 20.5-94.6 57.2zM317 417.7V402h65v15.7h-65z"/></svg>