<svg xmlns="http://www.w3.org/2000/svg" width="341" height="279" viewBox="0 0 341 279"><style>.st0{fill:#CBCBCB;}</style><path class="st0" d="M281.1 17.9c13.4 10.9 26.3 21.5 39.6 32.3-34.4 25.9-59.5 57.4-68.6 99.8 2.7 1.4 5.1 1.1 7.3.7 29.2-4.8 55.3 17.7 59.1 46.1 4.2 31.7-18.6 62.7-51.4 65.8-26.3 2.5-46.6-8.7-60.2-31.3-12.1-20-14.1-42-12.1-64.9 1.3-14.8 4-29.3 8.7-43.3 9-26.6 22.7-50.5 41.2-71.7 10.9-12.3 23-23.3 36.4-33.5zM109 17.8c13.4 11 26.3 21.6 39.6 32.4-34 26-60.1 56.8-68.7 99.8 2.8 1.5 5.4 1.1 7.7.7 29.7-4.1 54.2 16.6 57.6 46.1 2.2 19.1-2.7 35.6-16 49.3-18.8 19.2-49.9 22.4-72.5 7.8C37.8 241.9 28 224 24 202.5c-4.3-23.7-1.6-47 4.7-69.9 11-39.7 32.8-72.8 63-100.6 5.4-5 11.3-9.3 17.3-14.2z"/></svg>