<svg xmlns="http://www.w3.org/2000/svg" width="115.5" height="115.5"><style>.st0{fill:#EB5A49;} .st1{fill:#FAFFFF;} .st2{fill:#6EBEC5;} .st3{fill:#0C3757;}</style><g id="XMLID_1_"><path class="st0" d="M48.4 92.2l-16.3 18.3L4.9 83.4 23.3 67c.1.2.2.3.4.5l24.7 24.7z"/><path class="st1" d="M79.3 57.4L51 89.2 26.5 64.7c-.1-.1-.2-.2-.3-.2L58 36.2l21.3 21.2zM54.9 75.3c.8-.8.8-2 0-2.8L49.4 67c-.8-.8-2.1-.8-2.8 0-.8.8-.8 2.1 0 2.8l5.5 5.5c.7.8 2 .8 2.8 0z"/><path class="st0" d="M108.4 24.7L82 54.4 61.1 33.5 90.8 7.1l4.8 4.8 8 8 4.8 4.8zm-24 .1l6.2-6.2c.8-.8.8-2.1 0-2.8-.8-.8-2-.8-2.8 0L81.5 22c-.8.8-.8 2.1 0 2.8.8.8 2.1.8 2.9 0z"/><path class="st2" d="M110.4 10.2l-5.4 5.4-5.2-5.2 5.4-5.4c1.4-1.4 3.7-1.4 5.2 0 .7.7 1.1 1.6 1.1 2.6s-.4 2-1.1 2.6z"/><path class="st3" d="M33.7 114.8c-.4.4-.9.7-1.4.7-.6 0-1.1-.2-1.5-.6L.6 84.7c-.4-.4-.6-.9-.6-1.4 0-.6.3-1.1.7-1.4l88.9-79c.8-.7 2-.7 2.8.1L97 7.7l5.4-5.4c3-3 7.8-3 10.8 0 1.4 1.4 2.2 3.4 2.2 5.4 0 2-.8 4-2.2 5.4l-5.4 5.4 4.7 4.7c.7.7.8 2 .1 2.7l-78.9 88.9zm-1.6-4.2l16.3-18.3-24.7-24.8c-.1-.1-.3-.3-.4-.5L4.9 83.4l27.2 27.2zM51 89.2l28.3-31.8-21.2-21.2-31.9 28.3c.1.1.2.1.3.2L51 89.2zm31-34.8l26.4-29.7-4.8-4.8-8-8-4.8-4.8-29.7 26.4L82 54.4zm23-38.7l5.4-5.4c.7-.7 1.1-1.6 1.1-2.6s-.4-1.9-1.1-2.6c-1.4-1.4-3.8-1.4-5.2 0l-5.4 5.4 5.2 5.2z"/><path class="st3" d="M54.9 72.5c.8.8.8 2.1 0 2.8-.8.8-2 .8-2.8 0l-5.5-5.5c-.8-.8-.8-2 0-2.8.8-.8 2.1-.8 2.8 0l5.5 5.5zM90.6 18.6l-6.2 6.2c-.8.8-2.1.8-2.8 0-.8-.8-.8-2.1 0-2.8l6.2-6.2c.8-.8 2.1-.8 2.8 0 .8.7.8 2 0 2.8z"/></g><path class="st3" d="M9.8 92.8c-1-1-1-2.6 0-3.5l2.3-2.3c1-1 2.6-1 3.5 0 1 1 1 2.6 0 3.5l-2.3 2.3c-.9 1-2.5 1-3.5 0zM16.2 99.2c-1-1-1-2.6 0-3.5l2.3-2.3c1-1 2.6-1 3.5 0 1 1 1 2.6 0 3.5l-2.3 2.3c-.9 1-2.5 1-3.5 0zM22.7 105.7c-1-1-1-2.6 0-3.5l2.3-2.3c1-1 2.6-1 3.5 0 1 1 1 2.6 0 3.5l-2.3 2.3c-1 .9-2.6.9-3.5 0z"/></svg>