<?xml version="1.0" encoding="utf-8"?>
<!-- Generator: Adobe Illustrator 19.0.0, SVG Export Plug-In . SVG Version: 6.00 Build 0)  -->
<svg version="1.1" id="Layer_1" xmlns="http://www.w3.org/2000/svg" xmlns:xlink="http://www.w3.org/1999/xlink" x="0px" y="0px"
	 viewBox="0 0 500 500" style="enable-background:new 0 0 500 500;" xml:space="preserve">
<style type="text/css">
	.st0{fill:#9F9F9F;}
</style>
<g>
	<g>
		<path class="st0" d="M306.9,252.6c-2.3-2.5-3.6-4-5-5.4c-36.9-36.8-73.8-73.6-110.7-110.4c-14-14-28.1-27.9-42-42
			c-16.6-16.8-16.4-39.3,0.4-55c11.9-11.1,33.2-11.8,46.2-1.4c2.5,2,4.8,4.1,7,6.3c58.1,58.1,116.2,116.2,174.3,174.2
			c2.5,2.5,5,4.8,7.5,7.3c13.1,13,13.4,36.6,0.5,50.1c-0.6,0.6-1.2,1.2-1.8,1.8c-61.2,61.2-122.3,122.3-183.4,183.5
			c-7.2,7.3-15.9,11-26.2,11.5c-15.2,0.7-30.1-10.5-34.8-24.3c-4.9-14.4-2-27.3,8.6-38c23.8-24.1,47.8-47.9,71.7-71.8
			c27.6-27.6,55.1-55.1,82.7-82.7C303.4,255,305,254,306.9,252.6z"/>
	</g>
</g>
</svg>
