<svg xmlns="http://www.w3.org/2000/svg" width="459" height="566" viewBox="0 0 459 566"><style>.st0{fill:#030303;}</style><path class="st0" d="M301.7 346.7c12.1.6 23.1-.6 34 .9 28.6 3.7 51.1 18.2 68.9 40.2 20.8 25.7 31.2 55.3 31.5 88.5.2 19.5 1.2 39 1.9 58.4.1 1.6 0 3.3 0 5.1H23.1c-.3-9.9 0-19.7.7-29.4 1.3-17.3-.3-34.8 2.3-51.9 7.3-47.1 29.9-83.8 74.3-104.8 11.7-5.5 24.3-7.8 37.3-7.8h20.7c-.2-2-1.9-2.2-3-3-26.1-17.6-44.6-41.1-55.4-70.7-1.2-3.2-2.7-4.9-6.3-5.9-23.6-6.4-39-26.8-39.8-51.4-.7-21.9 6.4-39.8 25-52.3 3.2-2.1 6.6-3.9 10.3-5 2.7-.8 3.5-2.3 3.8-5 5.6-59.1 51.5-110 109.6-121.8 62.7-12.7 125.2 18.8 152.6 76.8 6.9 14.7 11.5 30.1 12.8 46.3.3 3.6 2.6 4.1 5 5.2 19.4 9.1 31.4 24 33.8 45.5 2.5 22.2-4.3 41.1-22.8 54.8-5.4 4-11.5 6.7-18 8.3-2.2.5-3.4 1.3-4.1 3.5-10.4 31.2-30 55.3-57.3 73.2-.8.6-1.4 1.1-2.9 2.3zm48.2-152.5c-40.7-3.5-72.1-22.1-95.3-54.9-40.9 37.6-85.9 66.4-143.6 68.8 0 8.7-.2 17.2.1 25.6.2 4.6.9 9.3 1.7 13.9 9.1 51.4 50.8 91.4 102.3 98.2 51.6 6.8 101.9-21.7 124.1-69.5 12.3-26.3 11.2-54 10.7-82.1zm67.7 327.3c0-2.5.1-4.7 0-6.8-.6-13.1-1.4-26.3-1.7-39.4-.4-18.1-4-35.3-11.9-51.6-12.4-25.5-30.4-45.1-58.2-54.1-13.3-4.3-27-3.3-40.6-3.5-3.7-.1-5.9.9-7.9 4.3-16.3 26.9-32.2 54-49.5 80.2-9.4 14.2-14.7 28.4-12.7 45.5 1 8.3.2 16.9.2 25.5 60.9-.1 121.3-.1 182.3-.1zm-202-1.2c.1-.4.3-.9.3-1.3 0-16.2 0-32.3.1-48.5 0-1.6-.5-2.9-1.3-4.2-20-32.6-39.9-65.2-59.9-97.8-.8-1.2-1.4-2.4-3.3-2.5-17.1-.5-34 .2-49.6 8.5-27.5 14.6-44.1 38-52.8 67.1-7.6 25.4-5.3 51.8-6.7 77.9 0 .3.3.5.4.8 4.4.6 167.7.6 172.8 0zm-104.3-332c26.4-.6 50.2-8.8 72.9-21 25.2-13.5 46.9-31.5 66.9-51.8 2.7-2.7 5-5.7 8.2-9.4 7.7 20.5 19.9 35.6 35.9 47.7 16.1 12.3 34.4 19.1 54.9 20.9.3-9.7-.2-19.1-1.9-28.5-14.3-81.9-107.4-125.2-178.3-82-46 28.1-62.7 71.2-58.6 124.1zm115.3 259.9c17.2-27.6 34-54.6 50.9-81.8H175.7c17.1 27.5 33.9 54.4 50.9 81.8zm-135.5-203v-67.4c-13.2 8-19.1 19.4-19 34 .2 14.5 6 25.6 19 33.4zm278.6.2c14.5-8.8 20.1-21.3 19.1-37-.8-13.3-6.8-23.5-19.1-30.5v67.5z"/><path class="st0" d="M227.4 314.1c-21.5-.7-39.7-11-54.9-27.3-3.6-3.9-3.1-9 .8-13 3.3-3.4 8.1-3.8 12.2-.7 2.9 2.2 5.4 5 8.2 7.3 23 18.8 47.2 18.9 70.3.2 3.1-2.5 5.9-5.3 8.9-8 4.3-3.8 9.6-3.9 13.4-.2 3.9 3.7 4.5 10.2.7 14-16.1 16-34.5 27.4-59.6 27.7zM182.3 244.3c-10.4 0-18.4-8-18.3-18.3 0-9.9 8.7-18.3 18.6-18.2 9.9.1 17.9 8.2 18 18.3.1 10.4-7.7 18.2-18.3 18.2zM296.1 226c0 9.9-8.6 18.4-18.5 18.3-9.8-.1-18.2-8.9-18.1-18.8.1-9.4 9-17.8 18.7-17.7 10 .1 17.9 8.2 17.9 18.2zM280 501.2c-7.9.1-14.8-6.6-14.8-14.4 0-7.5 6.8-14.4 14.3-14.6 7.8-.2 14.6 6.7 14.7 14.5-.1 7.9-6.5 14.4-14.2 14.5z"/></svg>