<svg xmlns="http://www.w3.org/2000/svg" width="188.2" height="133.7"><style>.st0{fill:#FAFFFF;} .st1{fill:#6EBEC5;} .st2{fill:#0C3757;}</style><g id="XMLID_1_"><path class="st0" d="M66.7 58.2c.2 2.8.3 5.8.3 8.7 0 2.9-.1 5.8-.3 8.7-.7.1-1.4.1-2.1.1-7.5 0-13.8-4-13.8-8.8 0-4.8 6.3-8.8 13.8-8.8.7-.1 1.4 0 2.1.1z"/><path class="st1" d="M97.8 5h1c46.5 0 84.4 27.7 84.4 61.8s-37.9 61.8-84.4 61.8h-49c1.9-1.5 3.8-3.2 5.5-5.3 2.4-2.8 4.6-6.1 6.5-9.9 5.1-9.8 8.4-22.1 9.6-35.5v-.2c.3-3.5.5-7.2.5-10.8 0-3.7-.2-7.3-.5-10.8v-.2c-1.2-13.3-4.4-25.5-9.5-35.3-3.5-6.8-7.6-12-12.2-15.5h48.1c-.1-.1-.1-.1 0-.1z"/><path class="st2" d="M101.3 131.2c0 1.4-1.1 2.5-2.5 2.5v-5c1.4 0 2.5 1.1 2.5 2.5zM71.5 56.5c0-.2.1-.3.1-.5.3 3.5.5 7.2.5 10.8 0 3.7-.2 7.3-.5 10.8 0-.2 0-.3-.1-.5-.3-1.3-1.6-2.2-2.9-1.9l-1.8.3c.2-2.8.3-5.7.3-8.7 0-2.9-.1-5.9-.3-8.7l1.8.3c1.3.3 2.6-.6 2.9-1.9z"/><path class="st2" d="M71.5 56.5c-.3 1.4-1.6 2.2-2.9 1.9l-1.8-.3c0-.7-.1-1.3-.1-1.9l-.3-3.1c1.1.1 2.2.2 3.3.4 1.2.2 2 1.3 2 2.5-.2.2-.2.3-.2.5zM71.5 77.2c0 .2.1.3.1.5 0 1.2-.8 2.2-2 2.5-1.1.2-2.2.4-3.3.4l.3-3.1c.1-.6.1-1.3.1-2l1.8-.3c1.4-.2 2.7.6 3 2z"/><path class="st2" d="M66.7 75.5c0 .7-.1 1.3-.1 2l-.3 3.1c-.6 0-1.1.1-1.7.1-10.5 0-18.8-6.1-18.8-13.8C45.8 59.1 54 53 64.5 53c.6 0 1.1 0 1.7.1l.3 3.1c.1.6.1 1.3.1 1.9-.6 0-1.3-.1-2.1-.1-7.5 0-13.8 4-13.8 8.8 0 4.8 6.3 8.8 13.8 8.8.8 0 1.5 0 2.2-.1z"/><path class="st0" d="M64.5 80.6c-10.5 0-18.8-6.1-18.8-13.8C45.8 59.1 54 53 64.5 53c.6 0 1.1 0 1.7.1-1.3-11.5-4.3-21.9-8.6-30.3C51.7 11.3 44 5 36 5 19.2 5 5 33.3 5 66.8s14.2 61.8 31 61.8c5.4 0 10.8-3 15.6-8.5 2.1-2.5 4.1-5.5 5.9-9 4.4-8.5 7.4-19 8.7-30.6-.5.1-1.1.1-1.7.1z"/><path class="st2" d="M98.8 0h-1.1-62C15.7.3 0 29.5 0 66.8s15.7 66.6 35.7 66.8H98.8v-5h-49c1.9-1.5 3.8-3.2 5.5-5.3 2.4-2.8 4.6-6.1 6.5-9.9 5.1-9.8 8.4-22.1 9.6-35.5v-.2c0 1.2-.8 2.2-2 2.5-1.1.2-2.2.4-3.3.4-1.3 11.6-4.3 22.1-8.7 30.6-1.8 3.4-3.8 6.5-5.9 9-4.8 5.6-10.1 8.5-15.6 8.5-16.8 0-31-28.3-31-61.8S19.2 5 36 5c8 0 15.7 6.3 21.6 17.8 4.3 8.4 7.3 18.9 8.6 30.3 1.1.1 2.2.2 3.3.4 1.2.2 2 1.3 2 2.5v-.2c-1.2-13.3-4.4-25.5-9.5-35.3-3.5-6.8-7.6-12-12.2-15.5h48.9c46.5 0 84.4 27.7 84.4 61.8s-37.9 61.8-84.4 61.8c1.4 0 2.5 1.1 2.5 2.5s-1.1 2.5-2.5 2.5c49.3 0 89.4-30 89.4-66.8C188.2 30 148.1 0 98.8 0z"/></g><path class="st2" d="M154.7 51.4H93c-1.4 0-2.5-1.1-2.5-2.5s1.1-2.5 2.5-2.5h61.7c1.4 0 2.5 1.1 2.5 2.5s-1.1 2.5-2.5 2.5zM113.5 17.6H72.9c-1.4 0-2.5-1.1-2.5-2.5s1.1-2.5 2.5-2.5h40.5c1.4 0 2.5 1.1 2.5 2.5s-1.1 2.5-2.4 2.5zM154.7 87.3H93c-1.4 0-2.5-1.1-2.5-2.5s1.1-2.5 2.5-2.5h61.7c1.4 0 2.5 1.1 2.5 2.5s-1.1 2.5-2.5 2.5zM113.5 120.9H72.9c-1.4 0-2.5-1.1-2.5-2.5s1.1-2.5 2.5-2.5h40.5c1.4 0 2.5 1.1 2.5 2.5.1 1.4-1.1 2.5-2.4 2.5z"/><g><path class="st2" d="M33.1 101.1c-.6 0-1.1-.2-1.6-.6-8.8-7.4-14.2-21.2-14.2-36 0-11.8 3.5-23.1 9.5-31 .8-1.1 2.4-1.3 3.5-.5s1.3 2.4.5 3.5c-5.4 7-8.5 17.2-8.5 27.9 0 13.3 4.8 25.7 12.5 32.2 1.1.9 1.2 2.5.3 3.5-.6.7-1.3 1-2 1z"/></g></svg>