<svg xmlns="http://www.w3.org/2000/svg" width="447" height="366" viewBox="0 0 447 366"><style>.st0{fill:#CBCBCB;}</style><path class="st0" d="M15 57.6c5.1-4.2 9.8-8.1 14.5-11.9 11.3-9.3 22.7-18.4 34-27.8 7-5.8 6.8-6 13.9-.6 14.2 10.8 27.2 22.9 39.2 36.1 17.2 18.9 31.9 39.6 43.9 62.2 13.8 25.9 23.4 53.2 28.5 82 3.2 17.8 4.3 35.9 3.2 54-1.2 19.6-5.7 38.5-15.3 55.8-13.7 24.6-33.9 40.9-61.9 46.1-24.1 4.5-46.4-.6-65.9-15.6-17.4-13.5-28-31.3-30.5-53.4-2.9-25.6 3.3-48.5 21.8-67.1 10.9-10.9 24.4-17.1 39.7-19.3 9.4-1.3 18.8-.9 28.1.5.8.1 1.7 0 2.8 0-.4-6.7-2-13.1-3.9-19.4-7-23.2-18.5-44.1-32.8-63.6-8.4-11.5-17.6-22.3-27.9-32.2-8.6-8.4-17.7-16.1-27.6-22.9-1.1-.8-2.2-1.7-3.8-2.9zM256 57.6c5.4-4.5 10.7-8.8 15.9-13.1 12.3-10.1 24.7-20.1 37-30.2 1.9-1.5 3.2-1.6 5.1-.3 14.9 11.1 28.8 23.3 41.4 36.9 20.9 22.6 38.3 47.6 51.6 75.4 10.7 22.4 18.5 45.7 22.7 70.2 1.7 9.8 2.7 19.6 3.4 29.5 1.3 18.7.2 37.2-4.8 55.2-5.3 19.6-14.5 37-29.6 50.9-12.7 11.6-27.5 18.9-44.6 21.7-17.9 2.9-35.1.7-51-7.9-22.7-12.2-36.8-31.2-41.3-56.8-3.4-19.2-1.1-37.8 8.1-55.1 11.1-20.9 28.8-32.8 52.2-36.1 9-1.3 17.9-.8 26.8.6.8.1 1.7 0 2.7 0 .7-4.3-.6-8.2-1.4-12.1-3.8-18-11.3-34.5-20.6-50.2-8.9-15-19.5-28.8-31.2-41.8C286.2 81 272.8 69.3 258 59c-.7-.3-1.2-.8-2-1.4z"/></svg>