<svg xmlns="http://www.w3.org/2000/svg" width="436" height="405" viewBox="0 0 436 405"><style type="text/css">  
	.st0{fill:#FDFDFD;}
	.st1{fill:#010101;}
	.st2{fill:#020202;}
	.st3{fill:#F7F7F7;}
</style><path class="st0" d="M436 105c0 100 0 200 0 300 -22 0-44 0-66 0 1.7-0.5 3.3-0.9 5-1.4 17.2-4.6 29.7-20.9 29.8-38.7 0.1-18.2-12-34.2-29.8-39.3 -16.8-4.8-35.3 2.3-44.8 17.4 -9.7 15.3-7.9 35.1 4 48.6 6.2 7 14.3 10.4 22.7 13.4 -49.3 0-98.7 0-148 0 0.3-0.3 0.6-0.8 1-0.9 16-2.8 26.2-12.4 31.2-27.4 4.9-15.1 1.4-28.8-9.4-40.2 -12-12.7-29.8-15.8-45.4-8.8 -15.1 6.8-24.7 22.4-23.8 39 0.9 17 12.1 31.3 28.6 36.5 1.3 0.4 2.6 1.2 3.9 1.8 -64.7 0-129.3 0-194 0C1 277 1 149 1 21c3.7 9.2 10.5 13 20.4 12.3 7-0.5 14 0 21-0.1 10.7-0.1 19.4 3.8 26.2 12.1 8.6 10.5 13.2 23 17.6 35.6 15.8 45.5 31.5 91 47.8 136.3 7 19.4 14.3 38.8 23.1 57.3 11.1 23.2 30.4 33.8 56.4 33.6 57.3-0.4 114.7-0.1 172-0.1 1.5 0 3 0.1 4.5-0.1 12-1.1 18.8-14.7 12.3-24.6 -3.6-5.5-8.8-7.6-15.4-7.6 -59.2 0.1-118.3 0-177.5 0.1 -6.8 0-12.8-1.9-17.5-7 -6.7-7.2-10.2-16.1-14.1-25.5 2.5 0 4.3 0 6.1 0 51.7 0 103.3-0.1 155 0 19.1 0.1 35.4-6.5 48.1-20.6 7.1-8 13.5-17 18.7-26.3 13.2-23.4 20.1-49.1 26.4-74.9C433.3 116.1 434.7 110.5 436 105z"/><path class="st1" d="M436 105c-1.3 5.5-2.7 11.1-4 16.6 -6.3 25.9-13.2 51.6-26.4 74.9 -5.3 9.3-11.6 18.3-18.7 26.3 -12.6 14.1-29 20.6-48.1 20.6 -51.7-0.1-103.3 0-155 0 -1.8 0-3.6 0-6.1 0 3.9 9.4 7.4 18.3 14.1 25.5 4.7 5.1 10.7 7 17.5 7 59.2 0 118.3 0 177.5-0.1 6.5 0 11.8 2.1 15.4 7.6 6.5 9.9-0.3 23.5-12.3 24.6 -1.5 0.1-3 0.1-4.5 0.1 -57.3 0-114.7-0.3-172 0.1 -26.1 0.2-45.4-10.5-56.4-33.6 -8.9-18.6-16.2-37.9-23.1-57.3 -16.3-45.3-31.9-90.8-47.8-136.3 -4.4-12.6-9-25-17.6-35.6C61.8 37 53.1 33.1 42.4 33.2c-7 0.1-14-0.4-21 0.1C11.5 34 4.7 30.2 1 21c0-2.3 0-4.7 0-7C3 7.4 7.4 3 14 1c12.3 0 24.7 0 37 0 0.8 0.3 1.7 0.8 2.5 0.9 10.5 1.6 20.2 5.4 28.6 12 15.6 12.1 24.2 28.9 30.9 46.8 1.5 4 3.4 5.1 7.5 5.1 90.8-0.1 181.7-0.1 272.5-0.1 3.2 0 6.3 0 9.5 0.2 16.1 1.4 27 9.9 31.4 24.2 0.8 2.6 1.4 5.2 2.1 7.9C436 100.3 436 102.7 436 105zM356.2 129.7c0 9.6 7.2 16.8 16.7 16.7 8.5-0.1 15.9-7.6 15.8-16 -0.1-9.2-7.2-16.2-16.6-16.3C363.7 114 356.2 121.4 356.2 129.7zM194.9 129.9c0.1-8.3-7.3-15.7-15.9-15.9 -8.9-0.2-16.3 7.1-16.5 16 -0.1 8.4 6.9 16.2 14.9 16.4C187.3 146.7 194.7 139.7 194.9 129.9zM275.7 162.6c-9.3 0-16.5 7.2-16.4 16.4 0 8.7 7.7 16 16.5 15.9 8.8-0.2 16.1-7.7 16-16.5C291.6 169.8 284.3 162.6 275.7 162.6zM291.7 129.9c-0.1 9.1 6.8 16.3 15.8 16.5 9 0.1 16.3-6.9 16.4-15.9 0.1-9.1-7.2-16.5-16.4-16.5C299 114.1 291.8 121.3 291.7 129.9zM259.3 130.3c0-8.9-7.3-16.3-16.1-16.2 -9.2 0.1-16.3 7.4-16.2 16.7 0.1 8.6 7.4 15.7 16.1 15.7C252.1 146.4 259.3 139.3 259.3 130.3zM356.2 178.9c0.1-9-6.9-16.1-16-16.3 -8.7-0.1-16.1 6.9-16.3 15.5 -0.2 9.3 6.9 16.7 16 16.8C348.9 195.1 356.1 187.9 356.2 178.9zM194.9 178.8c0 8.9 7.3 16.3 16.1 16.2 9.2-0.1 16.3-7.4 16.1-16.7 -0.1-8.6-7.4-15.6-16.1-15.6C201.9 162.6 194.8 169.8 194.9 178.8z"/><path class="st0" d="M436 98c-0.7-2.6-1.3-5.3-2.1-7.9 -4.4-14.3-15.3-22.7-31.4-24.2 -3.1-0.3-6.3-0.2-9.5-0.2 -90.8 0-181.7 0-272.5 0.1 -4.1 0-5.9-1-7.5-5.1 -6.7-17.9-15.4-34.7-30.9-46.8 -8.5-6.6-18.1-10.4-28.6-12C52.7 1.8 51.8 1.3 51 1c128.3 0 256.7 0 385 0C436 33.3 436 65.7 436 98z"/><path class="st2" d="M357 405c-8.4-3-16.5-6.4-22.7-13.4 -11.9-13.5-13.7-33.4-4-48.6 9.5-15 28-22.2 44.8-17.4 17.8 5.1 29.9 21.1 29.8 39.3 -0.1 17.9-12.6 34.1-29.8 38.7 -1.7 0.4-3.3 0.9-5 1.4C365.7 405 361.3 405 357 405z"/><path class="st2" d="M195 405c-1.3-0.6-2.5-1.4-3.9-1.8 -16.5-5.3-27.7-19.5-28.6-36.5 -0.9-16.5 8.6-32.1 23.8-39 15.6-7 33.5-3.9 45.4 8.8 10.8 11.4 14.4 25.1 9.4 40.2 -4.9 15-15.2 24.6-31.2 27.4 -0.4 0.1-0.7 0.6-1 0.9C204.3 405 199.7 405 195 405z"/><path class="st3" d="M14 1C7.4 3 3 7.4 1 14 1 9.7 1 5.3 1 1 5.3 1 9.7 1 14 1z"/><path class="st3" d="M356.2 129.7c0-8.3 7.5-15.7 15.9-15.7 9.3 0.1 16.5 7.1 16.6 16.3 0.1 8.5-7.3 16-15.8 16C363.4 146.5 356.2 139.3 356.2 129.7z"/><path class="st3" d="M194.9 129.9c-0.2 9.8-7.5 16.8-17.5 16.5 -8-0.2-15.1-7.9-14.9-16.4 0.1-8.9 7.6-16.1 16.5-16C187.5 114.2 195 121.7 194.9 129.9z"/><path class="st3" d="M275.7 162.6c8.6 0 15.9 7.2 16 15.8 0.2 8.8-7.1 16.3-16 16.5 -8.8 0.2-16.5-7.2-16.5-15.9C259.3 169.8 266.4 162.7 275.7 162.6z"/><path class="st3" d="M291.7 129.9c0.1-8.6 7.3-15.9 15.9-15.9 9.2 0 16.5 7.4 16.4 16.5 -0.1 8.9-7.4 16-16.4 15.9C298.6 146.3 291.7 139.1 291.7 129.9z"/><path class="st3" d="M259.3 130.3c0 9-7.2 16.2-16.2 16.1 -8.7 0-16-7.1-16.1-15.7 -0.1-9.2 7-16.5 16.2-16.7C252 113.9 259.3 121.3 259.3 130.3z"/><path class="st3" d="M356.2 178.9c-0.1 9-7.3 16.1-16.3 16 -9.1-0.1-16.2-7.6-16-16.8 0.2-8.6 7.6-15.6 16.3-15.5C349.3 162.8 356.3 169.9 356.2 178.9z"/><path class="st3" d="M194.9 178.8c0-9 7.1-16.2 16.1-16.2 8.7 0 16 7 16.1 15.6 0.1 9.3-6.9 16.6-16.1 16.7C202.2 195.1 194.9 187.7 194.9 178.8z"/></svg>