<svg xmlns="http://www.w3.org/2000/svg" width="495" height="459" viewBox="0 0 495 459">
  <style>
    .st0{fill:#EC0101;}
  </style>
  <path class="st0" d="M244.6 370c-76.9.2-139.6-62.8-139.6-140.5 0-76.6 62.8-139.4 139.6-139.5 77.4-.2 140.3 62.4 140.4 139.7.1 77.6-62.4 140.1-140.4 140.3zm-43-184.1c4.6 3.3 9.2 6.3 14.2 8.7 17 7.9 41.2-.3 50-16.8 2.2-4.1 1.5-8.9-1.9-11.8-3.7-3.1-7.6-2.9-11.5-.4-1.7 1.1-3.1 2.5-4.5 3.9-13.7 12.9-18.7 13.1-33.5 1.8l-1.2-.9c-8.2-6.1-15.2-6.2-23.2.2-10.4 8.4-16.6 19.5-18.9 32.5-2.5 14.6.9 27.8 11.3 38.7 7.2 7.5 15.9 9.9 26 6.2 5.5-2 11.1-3.6 16.4-6 6-2.8 10.7-2 15.8 2.3 5.7 4.8 12 8.9 18.3 13 6.3 4.1 11.3 3.5 14.5-1.2 3.1-4.5 2.2-9.5-3.4-13.8-9.4-7.1-19.2-13.7-28.9-20.5-3.5-2.5-7.2-2.9-11.3-1.4-8.4 3.1-16.9 6-25.4 8.9-6.4 2.2-8.3 1.4-11.3-4.8-6.9-13.8-3.9-27.6 8.5-38.6zm-18 106.9c-.2 22 17.7 39.9 40 39.9 21.4 0 39.2-17.6 39.4-38.9.2-21.6-17.4-39.6-39-39.8-22.2-.2-40.3 17.1-40.4 38.8zm124.1-43.5c21.8.2 39.6-17 40-38.7.4-21.4-17.4-39.5-39.1-39.7-22.3-.2-40.3 17-40.5 38.7-.3 21.7 17.4 39.4 39.6 39.7zm-74.6-112.1c0-11-8.6-19.3-19.8-19.2-11 .1-19.3 8.6-19.3 19.8 0 10.6 8.6 19.2 19.4 19.2 11.2.1 19.7-8.4 19.7-19.8z"/>
  <path class="st0" d="M223.1 318.2c-13.9-.1-25.1-11.2-25.1-25 .1-13.7 11.5-24.9 25.3-25 13.9 0 25.6 11.7 25.4 25.4-.4 13.9-11.6 24.7-25.6 24.6zM333.1 210.1c0 13.8-11.2 24.9-25.1 24.9-14.2 0-25.4-11.2-25.2-25.3.1-13.8 11.4-24.8 25.4-24.7 13.8.1 24.9 11.3 24.9 25.1z"/>
</svg>
