<svg xmlns="http://www.w3.org/2000/svg" width="459" height="546" viewBox="0 0 459 546"><style>.st0{fill:#fff;}</style><path class="st0" d="M128.1 194H406.2c11.1 0 21.4 2.1 29.7 10.4 9.2 9.3 11.2 20.9 8.7 32.8-6.1 29.9-14.1 59.3-28.6 86.5-6.5 12.1-14.2 23.2-24.9 32-11.8 9.6-25.3 14.3-40.5 14.3H190.2c3.6 8.7 7 17.2 13.2 24.3 4.8 5.5 11 7.7 18.2 7.7h174.9c2.7 0 5.3 0 7.9.9 7 2.6 11.4 9.4 10.6 16.8-.8 7.4-7.1 13.5-14.5 14.2-1.5.1-3 .1-4.5.1-56.8 0-113.6-.3-170.4.1-25.6.2-43.8-10.6-55.9-32.9-10.1-18.5-16.3-38.4-23.3-58.1-15.7-44.5-31.2-89.1-46.8-133.7-4.4-12.5-8.9-25-17.4-35.5-6.6-8.2-15.2-12.2-25.7-12.1-8.2.1-16.3.1-24.5 0-9.7-.1-16.8-6.8-16.9-15.9-.1-9.1 7-16.2 16.7-16 13 .2 26-1.1 38.9 1.5 19.4 3.9 32.8 15.7 43.1 31.9 5.9 9.7 10.4 20 14.3 30.7zm78.9 63.6c.1-8.3-7.3-15.6-15.9-15.6-8.7-.1-15.9 7-16.1 15.6-.2 8.6 7 16.3 15.1 16.4 9.7.1 16.8-6.8 16.9-16.4zm32 .2c-.2 8.6 6.8 16 15.5 16.2 8.9.3 16.4-6.9 16.5-15.8.1-8.7-7-16.1-15.5-16.2-9.1-.1-16.3 6.8-16.5 15.8zm64 .2c.1 9 7.3 16.2 16.2 16 8.7-.1 15.8-7.2 15.8-16 0-8.9-7.2-16-16.2-16-8.6 0-15.9 7.3-15.8 16zm79.7-16c-8.2-.1-15.5 7.1-15.7 15.2-.1 9.5 6.6 16.7 15.9 16.8 8.5.2 16-7.1 16.1-15.6.1-9.3-6.9-16.3-16.3-16.4zm-159.8 80c9 0 16.1-7.1 16.1-16.2 0-8.6-7.2-15.8-15.9-15.8-9-.1-16.2 7.2-16.1 16.2.1 8.6 7.3 15.8 15.9 15.8zm64.3-32c-9.1 0-16.1 7-16.2 16-.1 8.6 7.1 15.9 15.8 16 8.9.1 16.2-7.1 16.2-16 0-8.7-7.2-16-15.8-16zm47.8 16c.1 9 7.4 16.1 16.3 16 8.7-.2 15.7-7.3 15.7-16.1 0-8.9-7.3-16-16.3-15.9-8.6.1-15.8 7.4-15.7 16z"/><path class="st0" d="M319 82c11.2 0 21.8.1 32.5 0 6.5-.1 11.3 2.6 14 8.5 2.8 6.2 2.2 12.1-2.5 17.1-19.9 21.3-39.8 42.6-60 63.7-8.9 9.3-22.9 9.3-31.8.1-20.4-21.3-40.5-42.8-60.6-64.4-4.5-4.8-4.7-10.9-1.9-16.8 2.6-5.5 7.1-8.2 13.2-8.2h32.4c1.3-1.2.8-2.6.8-3.8v-43c0-10.6 6.6-17.1 17.1-17.2 10 0 20-.1 30 0 10.2.1 16.8 6.7 16.9 16.9-.1 15.5-.1 31-.1 47.1zM255 490c0 22-18 40-40 40-22.1 0-40-17.9-40-40s17.9-40 40-40 40 18 40 40zM374.8 450c22.1-.1 40.1 17.8 40.2 39.8.1 22-17.8 40.1-39.8 40.2-22.1.1-40.1-17.8-40.2-39.8-.1-22.1 17.8-40.1 39.8-40.2z"/></svg>