<svg xmlns="http://www.w3.org/2000/svg" width="124" height="214" viewBox="0 0 124 214"><style>.st0{fill:#060606;}</style><path class="st0" d="M58.3 195.8v-17.6c-18-1.6-33.8-7.5-46.2-21.4 3.2-4.1 6.3-8.2 9.7-12.6 10 10.3 21.7 17 36.4 18.8v-47.2c0-2.4-1.7-2.4-3.3-2.9-7.2-2.1-14.2-4.5-20.9-7.8-24.1-12.2-21.8-42.6-4.4-55.8 8.4-6.4 18-9.1 28.7-10.2V21h12.4v18.4c15.5 1.8 28.8 7.1 39.7 18.4-3.3 4-6.5 8-9.9 12.1-4.4-3.7-8.6-7.5-13.7-10-4.9-2.4-10.1-4.2-15.9-5v43.4c1.9 1.6 4.6 1.7 7 2.5 5.8 1.9 11.6 4.1 17 7.1 11.9 6.6 18.4 16.5 18.4 30.3 0 14.3-5.9 25.4-18.2 32.8-7.4 4.4-15.7 6.1-24.5 7.2v17.6H58.3zm12.6-33.2c14.5-.2 25.3-10.2 25.1-22.9-.2-10.8-12.6-21.5-25.1-21.3v44.2zm-12.8-108c-14.7 1-24.1 9-24.3 20.4-.1 9.9 10.2 18.3 24.3 19.7V54.6z"/></svg>