<svg xmlns="http://www.w3.org/2000/svg" width="113.7" height="260.3"><style>.st0{fill:#FAFFFF;} .st1{fill:#6EBEC5;} .st2{fill:#0C3757;}</style><g id="XMLID_1_"><path class="st0" d="M20.3 101.1v7.4c-2.8 2.4-5.4 5-7.7 7.8v-58c0-1.2 1.3-2.2 2.9-2.2h1.8c1.1 0 2 .5 2.5 1.1.2.3.4.7.4 1.1V101.1zM64.2 5.8v27.1c-2.4-.5-4.9-.7-7.4-.7s-5 .2-7.4.7V5.8c.9-.3 3-.8 6-.8h2.8c3.1 0 5.1.5 6 .8z"/><path class="st1" d="M88.4 57.5c0 .3-.1.6-.1.9v2.8c-.8-1-1.6-2-2.5-2.9-1.3-1.4-2.6-2.6-4-3.8-6.8-5.5-15.5-8.9-25-8.9-9.4 0-18.1 3.3-25 8.9-1.4 1.2-2.8 2.4-4.1 3.8-.9.9-1.7 1.9-2.5 2.9v-2.8c0-.3 0-.6-.1-.9l1.2-2.4c.9-1.5 1.9-3 2.9-4.4 4-5 9.2-9 15.4-11.2 2.4-.9 5-1.5 7.6-1.9.8.1 1.8.2 3 .2H58c1.1 0 2.1-.1 3-.2 2.6.3 5.2 1 7.6 1.9C74.7 41.8 80 45.7 84 50.7c1.1 1.4 2.1 2.9 2.9 4.4.7.7 1.1 1.5 1.5 2.4z"/><path class="st0" d="M101 58.3v57.9c-2.3-2.8-4.9-5.4-7.7-7.8V58.3c0-.4.2-.8.4-1.1.5-.7 1.5-1.1 2.5-1.1H98c1.7 0 3 1 3 2.2zM103.5 129.5c3.2 6.5 5 13.8 5.1 21.5-3.5-7.7-8.6-14.5-15-19.9-1.4-1.2-2.9-2.3-4.4-3.4-1.2-.8-2.4-1.6-3.6-2.3-1.6-1-3.3-1.8-5-2.6-1.7-.8-3.5-1.5-5.4-2.2-2.5-.9-5.2-1.6-7.9-2.1-3.4-.7-7-1-10.6-1-3.6 0-7.2.3-10.6 1-2.7.5-5.3 1.2-7.9 2.1-1.8.6-3.6 1.4-5.4 2.2-1.7.8-3.4 1.7-5 2.6-1.2.7-2.4 1.5-3.6 2.3-1.5 1.1-3 2.2-4.4 3.4-6.3 5.4-11.5 12.2-15 19.9.1-7.7 2-15 5.1-21.5.8-1.6 1.7-3.2 2.6-4.7 2.1-3.5 4.7-6.7 7.6-9.5 1.6-1.6 3.2-3 5-4.4.2-.2.4-.3.6-.5.7-.5 1.3-1 2-1.4.7-.5 1.4-.9 2.1-1.4.9-.6 1.9-1.1 2.9-1.6l1.8-.9c1.9-.9 3.9-1.7 5.9-2.3 5.1-1.7 10.5-2.6 16.1-2.6 5.6 0 11.1.9 16.2 2.6 2 .7 4 1.4 5.9 2.3l1.8.9c1 .5 1.9 1 2.9 1.6.7.4 1.4.9 2.1 1.4.7.5 1.4.9 2 1.4.2.2.4.3.6.5 1.8 1.4 3.4 2.8 5 4.4 2.9 2.9 5.4 6 7.6 9.5 1.3 1.4 2.1 3 2.9 4.7z"/><path class="st1" d="M108.7 197.5v30.4c0 4-2.5 7.4-6 8.8-1.1.4-2.3.7-3.5.7h-4c-1.2 0-2.4-.2-3.5-.7-3.5-1.4-6-4.8-6-8.8V131.2c10.9 7.3 18.9 18.7 21.8 31.9.8 3.6 1.2 7.3 1.2 11.1V197.5zM28 223.2v4.7c0 4-2.5 7.4-6 8.8-1.1.4-2.3.7-3.5.7h-4c-1.2 0-2.4-.2-3.5-.7-3.5-1.4-6-4.8-6-8.8v-52.7-.9c0-3.8.4-7.5 1.2-11.1C9.1 150 17.1 138.6 28 131.3v91.9z"/><path class="st2" d="M113.7 174.2v53.7c0 6.8-4.7 12.5-11 14.1v13.6c0 2.6-2.1 4.7-4.7 4.7h-1.6c-2.6 0-4.7-2.1-4.7-4.7V242c-6.3-1.6-11-7.3-11-14.1v-99.6c-4.1-2.1-8.4-3.7-13-4.7-3.5-.8-7.1-1.2-10.9-1.2-3.7 0-7.3.4-10.8 1.2-4.6 1-8.9 2.6-13 4.7V228c0 6.8-4.7 12.5-11 14.1v13.6c0 2.6-2.1 4.7-4.7 4.7h-1.6c-2.6 0-4.7-2.1-4.7-4.7V242c-6.3-1.6-11-7.3-11-14.1V152c0-8.3 1.8-16.2 5-23.3.8-1.8 1.7-3.5 2.7-5.2V58.3c0-4 3.5-7.2 7.9-7.2h1.8c1.8 0 3.4.5 4.8 1.5.2-.3.4-.7.6-1 .9-1.4 1.8-2.8 2.9-4.1 4.8-6.1 11.3-10.8 18.8-13.2V4.9c0-4.4 7.7-4.9 11-4.9h2.8c3.3 0 11 .5 11 4.9v29.4c7.5 2.5 14 7.1 18.8 13.2 1 1.3 2 2.7 2.9 4.1.2.3.4.6.5 1 1.3-.9 3-1.5 4.8-1.5h1.8c4.4 0 7.9 3.2 7.9 7.2v65.2c1 1.7 1.9 3.4 2.7 5.2 3.2 7.1 5 15 5 23.3v22.2zm-5 53.7v-52.7-.9c0-3.8-.4-7.5-1.2-11.1-2.9-13.2-10.9-24.6-21.8-31.9V227.9c0 4 2.5 7.4 6 8.8 1.1.4 2.3.7 3.5.7h4c1.2 0 2.4-.2 3.5-.7 3.5-1.4 6-4.8 6-8.8zm-.1-77c-.1-7.7-2-15-5.1-21.5-.8-1.6-1.7-3.2-2.6-4.7-2.1-3.5-4.7-6.7-7.6-9.5-1.6-1.6-3.2-3-5-4.4-.2-.2-.4-.3-.6-.5-.7-.5-1.3-1-2-1.4-.7-.5-1.4-.9-2.1-1.4-.9-.6-1.9-1.1-2.9-1.6l-1.8-.9c-1.9-.9-3.9-1.7-5.9-2.3-5.1-1.7-10.5-2.6-16.2-2.6-5.6 0-11.1.9-16.1 2.6-2 .7-4 1.4-5.9 2.3l-1.8.9c-1 .5-1.9 1-2.9 1.6-.7.4-1.4.9-2.1 1.4-.7.5-1.4.9-2 1.4-.2.2-.4.3-.6.5-1.8 1.4-3.4 2.8-5 4.4-2.9 2.9-5.4 6-7.6 9.5-.9 1.5-1.8 3.1-2.6 4.7-3.2 6.6-5 13.8-5.2 21.5 3.5-7.7 8.6-14.5 15-19.9 1.4-1.2 2.9-2.3 4.4-3.4 1.2-.8 2.4-1.6 3.6-2.3 1.6-1 3.3-1.8 5-2.6 1.7-.8 3.5-1.5 5.4-2.2 2.5-.9 5.2-1.6 7.9-2.1 3.4-.7 7-1 10.6-1 3.6 0 7.2.3 10.6 1 2.7.5 5.3 1.2 7.9 2.1 1.8.6 3.6 1.4 5.4 2.2 1.7.8 3.4 1.7 5 2.6 1.2.7 2.4 1.5 3.6 2.3 1.5 1.1 3 2.2 4.4 3.4 6.2 5.5 11.4 12.2 14.8 19.9zm-7.6-34.7V58.3c0-1.2-1.3-2.2-2.9-2.2h-1.8c-1.1 0-2 .5-2.5 1.1-.2.3-.4.7-.4 1.1v50.2c2.7 2.3 5.3 4.9 7.6 7.7zM88.3 58.3c0-.3 0-.6.1-.9L87.2 55c-.9-1.5-1.9-3-2.9-4.4-4-5-9.2-9-15.4-11.2-2.4-.9-5-1.5-7.6-1.9-.9.1-1.9.2-3 .2h-2.8c-1.2 0-2.2-.1-3-.2-2.6.3-5.2 1-7.6 1.9-6.1 2.3-11.4 6.2-15.4 11.2-1.1 1.4-2.1 2.9-2.9 4.4-.4.8-.9 1.6-1.2 2.4 0 .3.1.6.1.9v2.8c.8-1 1.6-2 2.5-2.9 1.3-1.4 2.6-2.6 4.1-3.8 6.8-5.5 15.5-8.9 25-8.9s18.2 3.3 25 8.9c1.4 1.2 2.8 2.4 4 3.8.9.9 1.7 1.9 2.5 2.9v-2.8zm0 46.4v-34c-.8-1.6-1.6-3.2-2.7-4.7-1.5-2.1-3.1-4.1-5-5.9-6.2-5.9-14.6-9.5-23.8-9.5-9.2 0-17.6 3.6-23.8 9.5-1.9 1.8-3.5 3.7-5 5.9-1 1.5-1.9 3.1-2.7 4.7v34c.6-.4 1.2-.8 1.9-1.2.2-.2.5-.3.8-.5.8-.5 1.6-.9 2.4-1.4.8-.4 1.7-.9 2.6-1.3.8-.4 1.6-.7 2.5-1.1 6.6-2.7 13.8-4.2 21.4-4.2 7.6 0 14.8 1.5 21.4 4.2.8.3 1.6.7 2.5 1.1.9.4 1.7.8 2.5 1.3.8.4 1.6.9 2.5 1.4.3.2.5.3.8.5.5.4 1.1.8 1.7 1.2zM64.2 32.9V5.8c-.9-.3-3-.8-6-.8h-2.8c-3 0-5.1.5-6 .8v27.1c2.4-.5 4.9-.7 7.4-.7 2.6 0 5 .3 7.4.7zM28 227.9V131.2c-10.9 7.3-18.9 18.7-21.8 31.9-.8 3.6-1.2 7.3-1.2 11.1V227.8c0 4 2.5 7.4 6 8.8 1.1.4 2.3.7 3.5.7h4c1.2 0 2.4-.2 3.5-.7 3.5-1.3 6-4.7 6-8.7zm-7.7-119.4V58.3c0-.4-.1-.8-.4-1.1-.5-.7-1.5-1.1-2.5-1.1h-1.8c-1.6 0-2.9 1-2.9 2.2v57.9c2.3-2.8 4.8-5.4 7.6-7.7z"/></g><path class="st2" d="M12.7 226.4c-1.4 0-2.5-1.1-2.5-2.5v-24.2c0-1.4 1.1-2.5 2.5-2.5s2.5 1.1 2.5 2.5v24.2c0 1.4-1.1 2.5-2.5 2.5z"/></svg>