<svg xmlns="http://www.w3.org/2000/svg" width="277.1" height="273.5"><style>.st0{fill:#FAFFFF;} .st1{fill:#0C3757;}</style><g id="XMLID_1_"><path class="st0" d="M61 37.5l-1.1 18.3L43.5 64 28.2 54l1.1-18.3 16.4-8.2 15.3 10zM53.3 53c.8-.4 1.3-1.2 1.4-2.1l.5-9c0-.9-.4-1.7-1.1-2.2l-7.5-5c-.7-.5-1.7-.5-2.5-.1l-8.1 4c-.8.4-1.3 1.2-1.4 2.1l-.5 9c0 .9.4 1.7 1.1 2.2l7.5 5c.7.5 1.7.5 2.5.2l8.1-4.1z"/><path class="st1" d="M64.8 57.6c-.1.9-.6 1.7-1.4 2.1l-19 9.5c-.8.4-1.7.3-2.5-.2L24.3 57.3c-.7-.5-1.2-1.3-1.1-2.2l1.3-21.2c0-.9.6-1.7 1.4-2.1l19-9.5c.8-.4 1.7-.3 2.5.1L65 34.2c.8.5 1.2 1.3 1.1 2.2l-1.3 21.2zm-4.9-1.7L61 37.5l-15.3-10-16.4 8.2L28.2 54l15.3 10.1 16.4-8.2z"/><path class="st1" d="M54.7 50.9c-.1.9-.6 1.7-1.4 2.1l-8.1 4c-.8.4-1.8.3-2.5-.2l-7.5-5c-.7-.5-1.2-1.3-1.1-2.2l.5-9c0-.9.6-1.7 1.4-2.1l8.1-4c.8-.4 1.7-.3 2.5.1l7.5 5c.7.5 1.2 1.3 1.1 2.2l-.5 9.1zm-4.9-1.8l.4-6.1-5.2-3.4-5.5 2.8-.4 6.1 5.1 3.4 5.6-2.8z"/></g><path class="st1" d="M212.5 273.5c-1.4 0-2.5-1.1-2.5-2.4 0-1.4 1.1-2.5 2.4-2.6 2.2-.1 4.5-.2 6.7-.5 1.4-.2 2.6.8 2.8 2.1.2 1.4-.8 2.6-2.1 2.8-2.4.3-4.8.5-7.3.6zm-7-.2h-.2c-2.4-.2-4.8-.5-7.2-1-1.4-.3-2.2-1.6-2-2.9.3-1.4 1.6-2.2 2.9-2 2.2.4 4.4.7 6.7.9 1.4.1 2.4 1.3 2.3 2.7-.2 1.3-1.2 2.3-2.5 2.3zm20.9-1.7c-1.1 0-2.1-.8-2.4-1.9-.3-1.3.5-2.7 1.8-3 2.2-.5 4.3-1.2 6.4-2 1.3-.5 2.7.2 3.2 1.5s-.2 2.7-1.5 3.2c-2.3.8-4.6 1.6-7 2.1-.1.1-.4.1-.5.1zm-34.7-1c-.2 0-.5 0-.7-.1-2.3-.7-4.6-1.6-6.8-2.6-1.3-.6-1.8-2-1.3-3.3.6-1.3 2-1.8 3.3-1.3 2 .9 4.2 1.7 6.3 2.4 1.3.4 2.1 1.8 1.6 3.1-.3 1.1-1.3 1.8-2.4 1.8zm47.8-3.9c-.9 0-1.8-.5-2.2-1.4-.6-1.2-.1-2.7 1.1-3.4 2-1 4-2.1 5.8-3.3 1.2-.8 2.7-.4 3.5.7.8 1.2.4 2.7-.7 3.5-2 1.3-4.2 2.5-6.3 3.6-.5.3-.8.3-1.2.3zm-60.6-1.8c-.4 0-.9-.1-1.3-.3-2.1-1.2-4.1-2.6-6.1-4-1.1-.8-1.3-2.4-.5-3.5s2.4-1.3 3.5-.5c1.8 1.3 3.7 2.6 5.6 3.7 1.2.7 1.6 2.2.9 3.4-.4.8-1.2 1.2-2.1 1.2zm72.3-5.8c-.7 0-1.4-.3-1.9-.9-.9-1.1-.7-2.6.4-3.5 1.7-1.4 3.4-2.9 5-4.5 1-1 2.5-1 3.5 0s1 2.5 0 3.5c-1.7 1.7-3.5 3.4-5.4 4.9-.5.3-1 .5-1.6.5zm-83.6-2.5c-.6 0-1.2-.2-1.7-.7-.5-.4-.9-.9-1.4-1.3-1.3-1.2-2.5-2.6-3.7-3.9-.9-1-.8-2.6.2-3.5 1-.9 2.6-.8 3.5.2 1.1 1.2 2.2 2.5 3.4 3.6.4.4.9.8 1.3 1.2 1 .9 1.1 2.5.1 3.5-.3.6-1 .9-1.7.9zm93.4-7.5c-.5 0-1.1-.2-1.5-.5-1.1-.9-1.3-2.4-.4-3.5 1.4-1.8 2.7-3.6 3.9-5.5.7-1.2 2.3-1.5 3.4-.8 1.2.7 1.5 2.3.8 3.4-1.3 2.1-2.7 4.1-4.2 6-.5.6-1.2.9-2 .9zm-102.6-3c-.7 0-1.4-.3-1.9-.9l-4.5-5.4c-.9-1.1-.8-2.6.3-3.5 1.1-.9 2.6-.8 3.5.3l4.5 5.4c.9 1.1.8 2.6-.3 3.5-.4.4-1 .6-1.6.6zm110-8.9c-.4 0-.7-.1-1.1-.2-1.2-.6-1.8-2.1-1.2-3.3 1-2 1.8-4.1 2.6-6.2.5-1.3 1.9-2 3.2-1.5 1.3.5 2 1.9 1.5 3.2-.8 2.3-1.7 4.6-2.8 6.7-.4.8-1.3 1.3-2.2 1.3zm-119-1.8c-.7 0-1.4-.3-1.9-.9l-4.5-5.4c-.9-1.1-.8-2.6.3-3.5 1.1-.9 2.6-.8 3.5.3l4.5 5.4c.9 1.1.8 2.6-.3 3.5-.5.4-1.1.6-1.6.6zm-9.1-10.8c-.7 0-1.4-.3-1.9-.9l-4.5-5.4c-.9-1.1-.8-2.6.3-3.5 1.1-.9 2.6-.8 3.5.3l4.5 5.4c.9 1.1.8 2.6-.3 3.5-.5.5-1 .6-1.6.6zM273 224c-.2 0-.4 0-.6-.1-1.3-.3-2.2-1.6-1.9-3 .5-2.2.9-4.4 1.1-6.6.2-1.4 1.4-2.4 2.8-2.2 1.4.2 2.4 1.4 2.2 2.8-.3 2.4-.7 4.8-1.2 7.2-.2 1.1-1.3 1.9-2.4 1.9zm-141.8-10.1c-.7 0-1.4-.3-1.9-.9l-4.5-5.4c-.9-1.1-.8-2.6.3-3.5 1.1-.9 2.6-.8 3.5.3l4.5 5.4c.9 1.1.8 2.6-.3 3.5-.4.4-1 .6-1.6.6zm143.4-3.8c-1.4 0-2.5-1.1-2.5-2.5v-.3c0-2.1-.1-4.3-.3-6.4-.1-1.4.9-2.6 2.2-2.7 1.4-.1 2.6.9 2.7 2.2.2 2.3.4 4.6.4 6.9v.3c0 1.4-1.1 2.5-2.5 2.5zm-152.4-6.9c-.7 0-1.4-.3-1.9-.9l-4.5-5.4c-.9-1.1-.8-2.6.3-3.5 1.1-.9 2.6-.8 3.5.3l4.5 5.4c.9 1.1.8 2.6-.3 3.5-.5.4-1.1.6-1.6.6zm150.9-7c-1.2 0-2.2-.8-2.4-2-.5-2.2-1.1-4.4-1.8-6.5-.4-1.3.3-2.7 1.6-3.2 1.3-.4 2.7.3 3.2 1.6.8 2.3 1.4 4.7 1.9 7 .3 1.3-.6 2.7-1.9 3-.2 0-.4.1-.6.1zm-160-3.7c-.7 0-1.4-.3-1.9-.9l-4.5-5.4c-.9-1.1-.8-2.6.3-3.5 1.1-.9 2.6-.8 3.5.3l4.5 5.4c.9 1.1.8 2.6-.3 3.5-.4.4-1 .6-1.6.6zm155.6-9.6c-.9 0-1.8-.5-2.3-1.5-.9-2-2-4-3.2-5.9-.7-1.2-.3-2.7.8-3.4 1.2-.7 2.7-.3 3.4.8 1.3 2.1 2.4 4.2 3.4 6.4.6 1.3 0 2.7-1.2 3.3-.2.2-.6.3-.9.3zM104 181.8c-.7 0-1.4-.3-1.9-.9l-4.5-5.4c-.9-1.1-.8-2.6.3-3.5 1.1-.9 2.6-.8 3.5.3l4.5 5.4c.9 1.1.8 2.6-.3 3.5-.4.4-1 .6-1.6.6zm-9-10.7c-.7 0-1.4-.3-1.9-.9l-4.5-5.4c-.9-1.1-.8-2.6.3-3.5 1.1-.9 2.6-.8 3.5.3l4.5 5.4c.9 1.1.8 2.6-.3 3.5-.5.4-1 .6-1.6.6zm166.4-.2c-.7 0-1.5-.3-2-1-1.4-1.8-2.8-3.5-4.4-5.1-1-1-.9-2.6.1-3.5 1-1 2.6-.9 3.5.1 1.7 1.7 3.3 3.6 4.8 5.5.8 1.1.6 2.7-.5 3.5-.4.4-.9.5-1.5.5zm-9.7-10.1c-.6 0-1.1-.2-1.6-.6-1.7-1.4-3.4-2.7-5.2-3.9l-.1-.1-.1-.1-.1-.1c-1.1-.9-1.2-2.4-.4-3.5.9-1.1 2.4-1.2 3.5-.4 1.9 1.3 3.8 2.7 5.5 4.2 1.1.9 1.2 2.5.3 3.5-.3.7-1 1-1.8 1zm-165.8-.4c-.7 0-1.4-.3-1.9-.9l-4.5-5.4c-.9-1.1-.8-2.6.3-3.5 1.1-.9 2.6-.8 3.5.3l4.5 5.4c.9 1.1.8 2.6-.3 3.5-.4.4-1 .6-1.6.6zm154.8-8.2c-.6 0-1.1-.2-1.6-.6l-5.5-4.4c-1.1-.9-1.2-2.4-.4-3.5.9-1.1 2.4-1.2 3.5-.4l5.5 4.4c1.1.9 1.2 2.4.4 3.5-.5.7-1.2 1-1.9 1zm-163.8-2.5c-.7 0-1.4-.3-1.9-.9l-4.5-5.4c-.9-1.1-.8-2.6.3-3.5 1.1-.9 2.6-.8 3.5.3l4.5 5.4c.9 1.1.8 2.6-.3 3.5-.5.4-1.1.6-1.6.6zm152.9-6.3c-.6 0-1.1-.2-1.6-.6l-5.5-4.4c-1.1-.9-1.2-2.4-.4-3.5.9-1.1 2.4-1.2 3.5-.4l5.5 4.4c1.1.9 1.2 2.4.4 3.5-.5.7-1.2 1-1.9 1zm-162-4.4c-.7 0-1.4-.3-1.9-.9l-4.5-5.4c-.9-1.1-.8-2.6.3-3.5 1.1-.9 2.6-.8 3.5.3l4.5 5.4c.9 1.1.8 2.6-.3 3.5-.5.4-1 .6-1.6.6zm151.1-4.5c-.6 0-1.1-.2-1.6-.6l-5.5-4.4c-1.1-.9-1.2-2.4-.4-3.5.9-1.1 2.4-1.2 3.5-.4l5.5 4.4c1.1.9 1.2 2.4.4 3.5-.5.7-1.2 1-1.9 1zm-160.2-6.2c-.7 0-1.4-.3-1.9-.9l-4.5-5.4c-.9-1.1-.8-2.6.3-3.5 1.1-.9 2.6-.8 3.5.3l4.5 5.4c.9 1.1.8 2.6-.3 3.5-.4.4-1 .6-1.6.6zm149.3-2.6c-.6 0-1.1-.2-1.6-.6l-5.5-4.4c-1.1-.9-1.2-2.4-.4-3.5.9-1.1 2.4-1.2 3.5-.4l5.5 4.4c1.1.9 1.2 2.4.4 3.5-.5.7-1.2 1-1.9 1zm-158.3-8.2c-.7 0-1.4-.3-1.9-.9l-4.5-5.4c-.9-1.1-.8-2.6.3-3.5 1.1-.9 2.6-.8 3.5.3l4.5 5.4c.9 1.1.8 2.6-.3 3.5-.5.5-1.1.6-1.6.6zm147.4-.6c-.6 0-1.1-.2-1.6-.6l-5.5-4.4c-1.1-.9-1.2-2.4-.4-3.5.9-1.1 2.4-1.2 3.5-.4l5.5 4.4c1.1.9 1.2 2.4.4 3.5-.5.7-1.2 1-1.9 1zm-10.9-8.8c-.6 0-1.1-.2-1.6-.6l-5.5-4.4c-1.1-.9-1.2-2.4-.4-3.5.9-1.1 2.4-1.2 3.5-.4l5.5 4.4c1.1.9 1.2 2.4.4 3.5-.5.6-1.2 1-1.9 1zm-145.6-1.3c-.7 0-1.4-.3-1.9-.9l-4.5-5.4c-.9-1.1-.8-2.6.3-3.5 1.1-.9 2.6-.8 3.5.3l4.5 5.4c.9 1.1.8 2.6-.3 3.5-.5.4-1 .6-1.6.6zm134.7-7.6c-.6 0-1.1-.2-1.6-.6l-5.5-4.4c-1.1-.9-1.2-2.4-.4-3.5.9-1.1 2.4-1.2 3.5-.4l5.5 4.4c1.1.9 1.2 2.4.4 3.5-.5.7-1.2 1-1.9 1zM31.5 96.1c-.7 0-1.4-.3-1.9-.9l-4.5-5.4c-.9-1.1-.8-2.6.3-3.5 1.1-.9 2.6-.8 3.5.3l4.5 5.4c.9 1.1.8 2.6-.3 3.5-.4.4-1 .6-1.6.6zm132.9-5.7c-.6 0-1.1-.2-1.6-.6l-5.5-4.4c-1.1-.9-1.2-2.4-.4-3.5.9-1.1 2.4-1.2 3.5-.4l5.5 4.4c1.1.9 1.2 2.4.4 3.5-.5.7-1.2 1-1.9 1zm-141.9-5c-.7 0-1.4-.3-1.9-.9L16 79.2c-.9-1.1-.8-2.6.3-3.5 1.1-.9 2.6-.8 3.5.3l4.5 5.4c.9 1.1.8 2.6-.3 3.5-.4.3-1 .5-1.5.5zm130.9-3.8c-.6 0-1.1-.2-1.6-.6l-5.5-4.4c-1.1-.9-1.2-2.4-.4-3.5.9-1.1 2.4-1.2 3.5-.4l5.5 4.4c1.1.9 1.2 2.4.4 3.5-.4.6-1.1 1-1.9 1zM13.3 74.8c-.7 0-1.4-.3-1.9-.8-1.7-1.8-3.2-3.8-4.5-5.9-.7-1.2-.4-2.7.8-3.5 1.2-.7 2.7-.4 3.5.8 1.2 1.8 2.5 3.6 4 5.2.9 1 .8 2.6-.2 3.5-.5.5-1.1.7-1.7.7zm129.2-2.1c-.6 0-1.1-.2-1.6-.6l-5.5-4.4c-1.1-.9-1.2-2.4-.4-3.5.9-1.1 2.4-1.2 3.5-.4l5.5 4.4c1.1.9 1.2 2.4.4 3.5-.4.7-1.1 1-1.9 1zm-10.9-8.8c-.6 0-1.1-.2-1.6-.6l-5.5-4.4c-1.1-.9-1.2-2.4-.4-3.5.9-1.1 2.4-1.2 3.5-.4l5.5 4.4c1.1.9 1.2 2.4.4 3.5-.4.7-1.1 1-1.9 1zM5.8 63c-1 0-1.9-.6-2.3-1.5-1-2.3-1.7-4.6-2.3-7.1-.3-1.3.5-2.7 1.9-3 1.3-.3 2.7.5 3 1.9.5 2.1 1.2 4.2 2 6.3.5 1.3-.1 2.7-1.3 3.3-.4.1-.7.1-1 .1zm114.9-7.9c-.6 0-1.1-.2-1.6-.6l-5.5-4.4c-1.1-.9-1.2-2.4-.4-3.5.9-1.1 2.4-1.2 3.5-.4l5.5 4.4c1.1.9 1.2 2.4.4 3.5-.4.7-1.1 1-1.9 1zM2.6 49.4c-1.3 0-2.4-1-2.5-2.3-.1-.9-.1-1.9-.1-2.9 0-1.5.1-3 .2-4.6.1-1.4 1.4-2.4 2.7-2.2 1.4.1 2.4 1.4 2.2 2.7-.1 1.3-.2 2.7-.2 4 0 .8 0 1.7.1 2.5.1 1.4-1 2.6-2.3 2.7 0 .1-.1.1-.1.1zm107.2-3.2c-.6 0-1.1-.2-1.6-.6l-5.5-4.4c-1.1-.9-1.2-2.4-.4-3.5.9-1.1 2.4-1.2 3.5-.4l5.5 4.4c1.1.9 1.2 2.4.4 3.5-.4.7-1.1 1-1.9 1zm-10.9-8.8c-.6 0-1.1-.2-1.6-.6l-5.5-4.4c-1.1-.9-1.2-2.4-.4-3.5.9-1.1 2.4-1.2 3.5-.4l5.5 4.4c1.1.9 1.2 2.4.4 3.5-.4.7-1.1 1-1.9 1zM4 35.6c-.2 0-.4 0-.7-.1-1.3-.4-2.1-1.7-1.7-3.1.7-2.4 1.5-4.7 2.6-7 .6-1.2 2.1-1.8 3.3-1.2 1.3.6 1.8 2.1 1.2 3.3-.9 2-1.7 4.1-2.3 6.2-.3 1.1-1.3 1.9-2.4 1.9zm84-7c-.6 0-1.1-.2-1.6-.6L81 23.6c-1.1-.9-1.2-2.4-.4-3.5.9-1.1 2.4-1.2 3.5-.4l5.5 4.4c1.1.9 1.2 2.4.4 3.5-.5.7-1.2 1-2 1zM9.9 22.9c-.5 0-1-.1-1.4-.4-1.1-.8-1.4-2.3-.6-3.5 1.4-2 3-3.9 4.7-5.7l.1-.1c1-1 2.6-1 3.5 0 1 1 1 2.6 0 3.5l-.1.1c-1.5 1.6-3 3.3-4.2 5.1-.4.6-1.2 1-2 1zm67.2-3.1c-.6 0-1.1-.2-1.6-.6l-3.7-3c-.1 0-.1-.1-.2-.1-.5-.5-1-1-1.6-1.4-1-.9-1.1-2.5-.2-3.5.9-1 2.5-1.1 3.5-.2.6.5 1.1 1 1.7 1.5l3.6 2.9c1.1.9 1.2 2.4.4 3.5-.4.5-1.1.9-1.9.9zm-57.3-7c-.8 0-1.5-.4-2-1-.8-1.1-.6-2.7.6-3.5 2-1.5 4.1-2.7 6.4-3.8 1.2-.6 2.7-.1 3.3 1.1.6 1.2.1 2.7-1.1 3.3-2 1-3.9 2.1-5.6 3.4-.6.4-1.1.5-1.6.5zm46.3-1.7c-.4 0-.9-.1-1.3-.4-1.9-1.1-3.8-2.1-5.9-3-1.3-.5-1.9-2-1.4-3.2s2-1.9 3.2-1.4c2.3.9 4.5 2 6.6 3.3 1.2.7 1.5 2.3.8 3.4-.3.9-1.1 1.3-2 1.3zM32.3 6.7c-1.1 0-2.1-.7-2.4-1.8-.4-1.3.4-2.7 1.7-3.1C34 1.1 36.4.6 38.9.3c1.4-.2 2.6.8 2.8 2.2.2 1.4-.8 2.6-2.2 2.8-2.2.2-4.4.7-6.5 1.3-.2.1-.4.1-.7.1zm20.9-.8c-.2 0-.4 0-.5-.1-2.1-.5-4.3-.7-6.5-.8-1.4-.1-2.4-1.2-2.4-2.6 0-1.4 1.1-2.5 2.5-2.4 2.5.1 4.9.4 7.4 1 1.3.3 2.2 1.6 1.9 3-.3 1.1-1.3 1.9-2.4 1.9z"/></svg>