<svg xmlns="http://www.w3.org/2000/svg" width="76" height="61" viewBox="0 0 76 61"><style>.st0{fill:#fff;}</style><path class="st0" d="M26.4 17.3c.6-1.2 1.7-1.6 2.9-1.8 3.9-.7 7.8-.6 11.7-.2 2.5.2 3.7 1.6 3.5 4.2-.1 3-.2 6-.2 9 0 1.3-.1 2.9 1.4 3.5 1.5.6 2.5-.7 3.3-1.6 3.1-3.3 5.6-7 7.5-11.1.8-1.9 2-2.6 4-2.5 3.6.1 7.2-.1 10.7 0 2.8 0 3.5 1.1 2.2 3.6-2.1 3.8-5.1 6.9-8 10.2-4.1 4.6-4.1 4.8.7 8.7 2.6 2.1 5.2 4.2 7.1 6.9 1.5 2.1 1 3.7-1.6 3.8-4.1.3-8.3.3-12.5.1-2-.1-3.6-1.5-5.1-2.9-1.5-1.4-3-2.9-4.6-4.2-2-1.5-3.5-1-4.5 1.4-.2.5-.4 1.1-.5 1.7-.6 4.2-.6 4.1-4.8 4.2-9.8.4-17.6-3.6-23.8-10.9-5.1-6-9.2-12.6-12.9-19.6-1-2-.6-2.8 1.6-2.9 3.4-.1 6.8-.1 10.2-.1 1.6 0 2.5 1.1 3.1 2.5 1.7 3.5 3.8 6.8 6.3 9.9.8 1 1.8 2 2.8 2.8 1.2.8 2.5.7 2.9-1 .9-3.6.9-7.2 0-10.8-.2-2.2-2.1-2.2-3.4-2.9z"/></svg>