<svg xmlns="http://www.w3.org/2000/svg" width="76" height="61" viewBox="0 0 76 61"><style>.st0{fill:#fff;}</style><path class="st0" d="M70.5 20.5c-1 2.3-3.4 2.6-5.7 3.7 2.2.6 3.9.8 6.3.7-1.9 1.9-3.9 2.5-6 2.6-1 .1-1.7.3-2 1.4-3.8 10.8-12.2 16.3-22.7 18.9-12.1 2.9-23.1.7-32.4-8-.3-.3-.5-.6-.8-.9l.5-.5c7.2 3.2 14 3.1 20.4-1.9.3-.2.6-.4 1.1-.7-1.6-.7-3.1-.7-4-1.9-1.2-1.6.1-2.6 1-3.8-2.8-.6-5.6-1.3-6.9-4.2.7-1.1 2-1.2 3.1-2-2.9-1.3-5.5-2.6-6-5.9.8-.8 1.9-.6 3.1-1.1-2.5-2-4.9-4-4.9-7.9 7.7 3 15.6 5.4 22.1 11 .8-1.7 1.5-3.3 2.2-4.9 1.3-2.9 3-5.5 5.1-8 1.9-2.2 4.4-2.4 7-2.6h-.1c.7 1.9 2.6-.4 3.5 1.2-.8 1.7-2.7 1.4-4.2 2.1.8 1.1 1.9.6 2.8.9 4.8 1.7 8.2 4.9 9.6 9.7.7 2.4 2 2.7 4 2.5l3.7-.6.2.2z"/><path class="st0" d="M7.1 38.8c-.2-.3-.4-.5-.6-.8l.1-.1c.4 0 .8.1 1 .5-.2.1-.3.3-.5.4zM51 4.5v-.3h.2c0 .1-.1.2-.2.3zM70.3 20.4c.1-.2.3-.3.5-.1l-.3.3c0-.1-.1-.2-.2-.2z"/><path class="st0" d="M6.5 38c-.2 0-.5-.1-.3-.4.2-.2.3 0 .4.2 0 .1-.1.2-.1.2z"/></svg>