<svg xmlns="http://www.w3.org/2000/svg" width="165" height="120" viewBox="0 0 165 120"><style>.st0{fill:#EB0C0B;} .st1{fill:#080808;}</style><path class="st0" d="M98.5 69.5c-1.6-1.7-1.5.4-1.9.9-2.2 3.3-5.8 4.8-9.5 4-3.7-.8-6.4-3.7-7-7.5-.1-.6-.3-1.4 0-2 1.4-2.8-.4-4.1-2.4-5.5-9.1-6.7-18.1-13.5-27.2-20.3-.7-.5-1.3-.9-2.2-1.6-.5 1.1-.9 2-.8 3.1-.5 1.9-.9 3.8-1.4 5.7-.2.6-.5 1.2-.7 1.9C44 54.1 42.5 60 41 65.9c-.5 1.9-1.6 3.2-3.8 2.6-2-.6-2.5-2.1-2-4.1 1.7-6.4 3.2-12.9 4.8-19.3.6-1.9 1.1-3.9 1.3-5.9l5.1-19.5c1.1-4.5 1.4-4.7 6.1-4.7H64c2.4 0 3.9 1.2 3.9 3s-1.5 3-3.8 3H53.9c-1.2 0-1.8.3-2 1.6-.5 2.4-1.1 4.7-1.7 6.9 1 .7 2 .4 2.8.4 14.7 0 29.3-.1 43.9.1 2.6 0 4.1-.5 4.6-3.2.2-.9.6-1.7 1-2.9h-6.6c-2.1 0-3.6-.7-3.9-3-.2-1.8 1.4-3 3.7-3h16.5c2 0 3.4.8 3.7 2.9.2 1.8-1.4 2.9-3.7 3.2-1.3.1-3.1-.9-3.6 1.1-.6 2.6-3.5 4.9-1.1 8 2.1 2.7 3.8 5.7 5.6 8.5.8 1.9 1.9 3.6 3.2 5.2 3.5 5.5 7.1 11.1 10.6 16.6 1.9 3 .6 5.2-2.9 5.3h-17.2c-.9 0-1.8-.2-2.7.4-1.8.1-3.7.2-5.6.4zm-.7-6.7c2.5.5 5 .3 7.6.1h14.3c-3-4.6-5.6-8.6-8.3-12.6-.1-.1-.5-.1-.7-.1-1-1.7-1.9-3.3-2.9-5-.6-2.8-2.8-4.6-4.1-7.4-2.4 6.3-4.6 12.3-7.1 18-1.2 2.8-1 4.9 1.2 7zm.1-26.8H56.2c9.7 7.2 18.9 14.1 28.2 21 1 .7 5.6-.3 6-1.3 2.5-6.5 5-13 7.5-19.7zm-8.8 32.7c1.8-.2 2.9-1.2 2.9-3.1-.1-1.9-1.2-2.9-3-2.9s-2.9 1.1-2.9 3c0 2 1.1 2.9 3 3z"/><path class="st1" d="M46.1 46.4c.5-1.9.9-3.8 1.4-5.7 13.2 4.9 20.3 19.2 16.3 32.7-4 13.6-18.1 21.7-32 18.6-13.7-3.2-22.7-16.7-20.4-30.8 2.2-13.6 15-23.5 28.8-22.2.4 0 .8.1 1.2.1-.2 2-.7 4-1.3 5.9-8.6-1-16.8 3.4-20.8 11.2-4 7.8-2.8 17.1 3.2 23.7 5.7 6.3 15.2 8.6 23.1 5.4 8-3.3 12.8-9.3 13.3-18 .6-9.8-4-16.7-12.8-20.9zM98.5 69.5c1.9-.1 3.8-.3 5.7-.4.2.7.3 1.5.5 2.2 3.2 11.2 14.3 17.6 25.5 14.8 10.9-2.7 17.7-13.8 15.2-25-2.8-12.8-17.9-20.2-29.1-14.2-1.2-1.6-2.4-3.3-3.2-5.2 18.3-8.7 38.9 4.6 38.7 24.6-.1 13.9-10.8 25.1-25 26.4-13.1 1.2-25.6-8.3-28.3-21.3v-1.9z"/><path class="st1" d="M110.7 50.1c-2.8 3-5.1 6.3-6.1 10.4-.2.9-.9 2 .7 2.3-2.5.2-5 .5-7.6-.1.7-.5.5-1.3.7-2 1.3-6.3 4.2-11.6 9.3-15.6 1.1 1.7 2.1 3.4 3 5z"/></svg>