<svg xmlns="http://www.w3.org/2000/svg" width="20" height="14" viewBox="0 0 315 212"><style>.st0{fill:#FE0101;}</style><path class="st0" d="M162 16.6c-3 15.7-2.5 25.8 1.7 35.3 5-3.7 9.8-7.4 15.3-11.5-2.7 10.7-4 20.9-4 31.9 6.9-2.4 12.7-6.6 20.3-7.7-1.7 5.5-3.8 10.3-3.7 16h88.1c6.4 0 6.5.1 6.5 6.4v103.5c0 6.3-.1 6.4-6.5 6.4H34.8c-6.4 0-6.5-.1-6.5-6.4 0-34.7.1-69.3-.1-104 0-4.7 1.5-6 6-6 23.8.2 47.7 0 71.5.2 3.1 0 4.5-.9 5.8-3.8 10.7-24.6 28.3-43.8 50.5-60.3zm-29 125.3c0 18.2 12.5 31.1 30.4 31.1 17.9.1 30.6-12.7 30.6-30.9S181.5 111 163.6 111 133 123.7 133 141.9zm-21.5 4.3v25.5h10.2v-59.4h-10.5v24.1H80v-24.2H69.6v59.6H80v-25.6h31.5zm133.3-34h-46.9v9.1h18.2v50.3h10.8v-50.5h17.9v-8.9z"/><path class="st0" d="M143.9 141.8c0-12.5 8-21.4 19.4-21.5 11.8-.1 19.9 9 19.8 22-.1 12.4-8.3 21.3-19.6 21.3-11.6 0-19.6-9-19.6-21.8z"/></svg>