<svg xmlns="http://www.w3.org/2000/svg" width="557" height="556" viewBox="0 0 557 556"><style>.st0{fill:#020202;}</style><path class="st0" d="M24.7 119.1c0-20.6 4-39.9 17.6-56.3 6.6-7.9 14.7-14.1 24.3-17.7 18.3-6.7 36.8-13.4 55.5-18.8 22.1-6.3 41.6.5 58.8 15 7.7 6.5 13.3 14.7 17.8 23.7 9.3 18.9 18.9 37.7 28.1 56.6 10.5 21.7 5.5 51.8-11.2 69.2-11.4 11.9-11.4 23.9.3 35.7 39.1 39.1 78.2 78.3 117.3 117.3 10 10 21.2 10.4 31.2.7 17.2-16.8 51.4-25.3 77.3-11 18.6 10.3 37.7 19.8 57 28.5 29.4 13.2 41 47.8 33.3 74.1-6 20.3-12.3 40.6-21.3 59.8-9.9 21-27.7 32-50 36-29.1 5.2-57-.8-84.2-10.4-46.3-16.2-87.1-41-121.7-76.3-33.9-34.6-68.9-68.2-103.3-102.3-20.2-20-41.2-39.3-58.8-61.8-24.6-31.2-44.5-65.1-57.2-102.9-6.5-19.2-10.8-38.7-10.8-59.1zm409.4 373.1c1.7 0 3.3.1 5 0 17.3-.7 32.8-7.4 38.9-29.6 3.3-12.2 7.6-24.1 11.3-36.1 3.7-11.8.3-19.8-10.8-25.5-18.9-9.7-37.7-19.4-56.6-29.1-11-5.7-19.2-4.6-28.1 3.8-25.8 24.3-64.8 24.3-90-.7-40.2-39.9-80.2-80.1-120.2-120.1-7-7-12.6-15.1-15.6-24.5-7.9-24.7-3.4-46.9 14.3-66.1 7.4-8 9.3-16.9 4.9-25.9-9.5-19.2-19-38.3-28.7-57.4-6.1-12-13.4-15.5-26.6-12-13.4 3.6-26.6 8.2-40.1 11.8-14.1 3.7-21.5 13-24 26.8-2.9 15.7-.6 31.1 3.8 46.3 14.1 48.9 41.6 90 76.6 126 41.9 43.1 84.7 85.4 127.5 127.6 31.2 30.8 66.4 56.1 107.2 73 16.5 6.5 33.3 11.5 51.2 11.7z"/></svg>