<svg xmlns="http://www.w3.org/2000/svg" width="12" height="16" viewBox="0 0 76 61"><style>.st0{fill:#080808;}</style><path class="st0" d="M55.5 23.6c.1 5.7-1.1 9.5-3.5 12.8-4.5 6.4-9.1 12.7-13.7 19-1.6 2.2-2.9 2.2-4.5 0C29.2 49 24.4 42.7 20 36.2c-4.5-6.7-4.7-13.9-.8-21C22.9 8.4 28.8 5 36.6 5.1c10.5.1 18.9 9.1 18.9 18.5zM36 51c4.3-6 8.5-11.6 12.5-17.3 4.4-6.3 3.3-15-2.4-20.2-5.5-5-13.9-5.2-19.7-.5-5.8 4.8-7.4 13.6-3.3 19.9C27.1 39 31.6 44.8 36 51z"/><path class="st0" d="M43.6 25.2c-.1 4.2-3.4 7.7-7.5 7.8-4.2 0-7.7-3.7-7.7-8.1.1-4.3 3.7-7.9 7.8-7.8 4.2.1 7.4 3.6 7.4 8.1zm-4.3-.3c0-1.8-1.6-3.4-3.4-3.3-1.8.1-3.2 1.7-3 3.6.1 2 1.2 3.1 3.2 3.2 1.7 0 3.2-1.7 3.2-3.5z"/></svg>