<svg xmlns="http://www.w3.org/2000/svg" width="218.9" height="218.9"><style>.st0{fill:#0C3757;} .st1{fill:#FAFFFF;} .st2{fill:#6EBEC5;}</style><g id="XMLID_2_"><path class="st0" d="M209.3 64.8c11.9 26.7 12.8 56.4 2.3 83.7-8.1 21.1-22.2 38.9-40.8 51.6-18.2 12.3-39.5 18.8-61.4 18.8-13.3 0-26.5-2.4-39-7.2C14 190.1-14.3 126.8 7.2 70.4 15.3 49.3 29.4 31.5 48 18.8 66.3 6.5 87.5 0 109.4 0c13.3 0 26.5 2.4 39 7.2 27.4 10.5 49 30.9 60.9 57.6zm-2.4 81.9c9.9-26.1 9.2-54.4-2.2-79.9-11.4-25.5-32-45-58.1-54.9-12-4.6-24.5-6.9-37.2-6.9-43 0-82.2 27-97.6 67.2C-8.7 126 18.4 186.4 72.1 207c12 4.6 24.5 6.9 37.2 6.9 43.1 0 82.3-27 97.6-67.2z"/><path class="st1" d="M204.7 66.8c11.4 25.5 12.2 53.8 2.2 79.9-15.3 40.2-54.6 67.2-97.6 67.2-12.7 0-25.2-2.3-37.2-6.9-53.7-20.6-80.8-81-60.2-134.8C27.2 32 66.4 5 109.4 5c12.7 0 25.2 2.3 37.2 6.9 26.1 10 46.7 29.5 58.1 54.9zm-13.3 74c8.4-21.9 7.7-45.8-1.9-67.2-9.6-21.4-26.9-37.8-48.8-46.2-10.1-3.8-20.6-5.8-31.3-5.8-17.6 0-34.6 5.2-49.2 15.1-15 10.1-26.3 24.4-32.8 41.4-17.3 45.2 5.5 96.1 50.7 113.3 10.1 3.9 20.6 5.8 31.3 5.8 17.6 0 34.6-5.2 49.2-15.1 15-10.1 26.3-24.4 32.8-41.3zM19.5 79.6c.4-1.3-.2-2.7-1.6-3.2-1.3-.5-2.7.2-3.2 1.5-3.7 10.7-5.2 21.8-4.7 33 .1 1.3 1.2 2.4 2.5 2.4h.1c1.4-.1 2.4-1.2 2.4-2.6-.5-10.6 1-21.1 4.5-31.1z"/><path class="st0" d="M189.6 73.6c9.6 21.4 10.2 45.3 1.9 67.2-6.5 16.9-17.8 31.2-32.8 41.4-14.6 9.9-31.7 15.1-49.2 15.1-10.7 0-21.2-2-31.3-5.8-45.2-17.3-68-68.1-50.7-113.3C34 61.3 45.3 47 60.3 36.8c14.6-9.9 31.7-15.1 49.2-15.1 10.7 0 21.2 2 31.3 5.8 21.8 8.3 39.2 24.7 48.8 46.1zm-2.8 65.4c7.9-20.7 7.3-43.2-1.8-63.3-9-20.2-25.4-35.7-46-43.6-9.5-3.6-19.4-5.5-29.5-5.5-34.1 0-65.2 21.4-77.4 53.3-16.3 42.6 5.1 90.6 47.8 106.9 9.5 3.6 19.4 5.5 29.5 5.5 34.1 0 65.2-21.5 77.4-53.3zM17.9 76.4c1.3.5 2 1.9 1.6 3.2-3.5 10.1-4.9 20.5-4.4 31.1.1 1.4-1 2.6-2.4 2.6h-.1c-1.3 0-2.4-1-2.5-2.4-.6-11.2 1-22.3 4.7-33 .4-1.3 1.8-2 3.1-1.5z"/></g><g id="XMLID_1_"><path class="st2" d="M128 98.4c2.3 5.1 2.5 10.8.4 16.1-3.1 8.1-11 13.5-19.7 13.5-2.6 0-5.1-.5-7.5-1.4-10.8-4.1-16.3-16.3-12.2-27.2 3.1-8.1 11-13.5 19.7-13.5 2.6 0 5.1.5 7.5 1.4 5.4 2 9.5 6 11.8 11.1zm-4.9 8.6c0-7.9-6.4-14.3-14.3-14.3S94.5 99.1 94.5 107s6.4 14.3 14.3 14.3 14.3-6.4 14.3-14.3z"/><path class="st0" d="M174.9 129.6c1.3.5 1.9 1.9 1.5 3.2-.4 1-1.3 1.6-2.3 1.6-.3 0-.6-.1-.9-.2l-30.4-11.6c-1.3-.5-1.9-1.9-1.4-3.2.5-1.3 1.9-1.9 3.2-1.4l30.3 11.6zM174.8 77.5c.6 1.3 0 2.7-1.3 3.3l-29.7 13.3c-.3.2-.7.2-1 .2-1 0-1.9-.6-2.3-1.5-.6-1.3 0-2.7 1.3-3.3l29.7-13.3c1.3-.5 2.7 0 3.3 1.3zM139.6 169.7c.6 1.3 0 2.7-1.3 3.3-.3.2-.7.2-1 .2-.9 0-1.9-.6-2.3-1.5L121.7 142c-.6-1.3 0-2.7 1.3-3.3 1.3-.6 2.7 0 3.3 1.3l13.3 29.7zM134.6 39.5c1.3.5 1.9 1.9 1.4 3.2l-11.6 30.4c-.4 1-1.3 1.6-2.3 1.6-.3 0-.6 0-.9-.2-1.3-.5-1.9-1.9-1.4-3.2l11.6-30.4c.5-1.3 1.9-1.9 3.2-1.4zM132.6 96.4c2.8 6.3 3 13.4.5 19.9-3.8 10-13.6 16.8-24.3 16.8-3.2 0-6.3-.6-9.3-1.7-13.4-5.1-20.2-20.2-15-33.6 3.8-10 13.6-16.8 24.3-16.8 3.2 0 6.3.6 9.3 1.7 6.5 2.5 11.6 7.3 14.5 13.7zm-4.1 18.1c2-5.3 1.8-11-.4-16.1-2.3-5.1-6.5-9.1-11.7-11.1-2.4-.9-4.9-1.4-7.5-1.4-8.7 0-16.6 5.4-19.7 13.5-4.1 10.8 1.3 23 12.2 27.2 2.4.9 4.9 1.4 7.5 1.4 8.6.1 16.5-5.4 19.6-13.5z"/><path class="st0" d="M108.8 92.7c7.9 0 14.3 6.4 14.3 14.3s-6.4 14.3-14.3 14.3-14.3-6.4-14.3-14.3 6.4-14.3 14.3-14.3zm9.3 14.3c0-5.1-4.2-9.3-9.3-9.3-5.1 0-9.3 4.2-9.3 9.3 0 5.1 4.2 9.3 9.3 9.3 5.1 0 9.3-4.2 9.3-9.3zM96.4 139.5c1.3.5 1.9 1.9 1.4 3.2l-11.6 30.4c-.4 1-1.3 1.6-2.3 1.6-.3 0-.6 0-.9-.2-1.3-.5-1.9-1.9-1.5-3.2l11.6-30.4c.6-1.3 2-1.9 3.3-1.4zM95.9 72c.6 1.3 0 2.7-1.3 3.3-.3.1-.7.2-1 .2-1 0-1.9-.5-2.3-1.5L78 44.3c-.6-1.3 0-2.7 1.3-3.3 1.3-.6 2.7 0 3.3 1.3L95.9 72zM77.1 121.2c.6 1.3 0 2.7-1.3 3.3l-29.7 13.3c-.3.2-.7.2-1 .2-1 0-1.9-.6-2.3-1.5-.6-1.3 0-2.7 1.3-3.3l29.7-13.3c1.2-.5 2.7 0 3.3 1.3zM74.9 91.4c1.3.5 1.9 1.9 1.4 3.2-.4 1-1.3 1.6-2.3 1.6-.3 0-.6-.1-.9-.2L42.7 84.4c-1.3-.5-1.9-1.9-1.4-3.2.5-1.3 1.9-1.9 3.2-1.4l30.4 11.6z"/></g></svg>