<svg xmlns="http://www.w3.org/2000/svg" width="570" height="532" viewBox="0 0 570 532"><style>.st0{fill:#040404;}</style><path class="st0" d="M264.6 75.6c13.8-9.3 28.1-10.4 42.8-1.3 22.4-21.1 49.7-32.9 79.3-39.9 9.3-2.2 18.7-3.6 28.2-1.6 16 3.3 19.6 11.1 16.3 26.1-3.8 17-8.7 33.8-10.8 51.2-.8 6.7.2 11.3 5.9 16.3 33.4 29.1 55.5 65.4 66.6 108.4 1.1 4.2 2.6 6.4 7.3 7.6 22.3 5.5 37.9 28.3 36.8 52.6-1 22.8-18.8 43.4-41 47.2-3 .5-4.2 1.7-5.2 4.7-27.5 82.4-83.2 134.6-168.8 150.7-73.1 13.7-136.5-9-189.1-61.1-25.5-25.3-43.1-55.6-53.1-90.2-.7-2.6-1.9-3.7-4.6-4.2-23-4.3-40.4-25.3-41.1-49.3-.6-23.3 16.2-45.6 38.6-50.8 3-.7 3.8-2.2 4.5-4.9 11.9-47.2 36.7-86.3 74.5-117 2-1.7 2.8-3.2 2.6-5.9-1.4-18-5.8-35.4-10.6-52.7-.6-2-1.9-3.9-2.8-5.8-4.3-9.3-1.4-16.8 8-20.7 7.4-3.1 15.2-3.7 23.1-2.5 35.1 5.3 66.4 18.6 92.6 43.1zM150 146.1c-2.5-.1-3.4 1.8-4.6 3-32.4 33-51.5 72.4-55.7 118.6-5 54.8 9.2 104.1 44.6 146.3 34.9 41.7 80.1 64.5 134.3 69.2 43.5 3.7 84.3-5.3 121.2-28.6 54.1-34.2 84.7-83.7 91.2-147.2 5.9-57.5-10.8-108.2-49.2-151.5-1.2-1.3-2.1-3.6-4.9-2.5 5.7 6.7 6.2 13.8 2.3 21.4-3.9 7.7-10.5 10.2-18.6 10-5.5-.1-11 .3-16.5 0-29.1-1.2-57.7-4.6-82.8-21.6-16.3 12.3-30.5 12.1-49.5-.7-2.6 1.7-5.2 3.5-7.9 5.1-2.9 1.6-5.8 3.2-8.9 4.5-26.8 11.5-55.1 12.9-83.7 12.6-15.6-.2-23.6-19.6-15.2-29.8 2.1-2.4 4.1-5.2 3.9-8.8zm265.2 21c-18.6-28.3-12.9-58-7-88.2-26.9 16.8-55.1 27.9-87.1 28.6 0 9.9 1 19.8-.3 29.4-1.4 10.8 3.9 15.5 12.5 19.2 26.2 11.2 53.6 11.9 81.9 11zm-163.5-60.4c-7.9.8-14.7.1-21.4-1-20.8-3.5-40.2-10.8-58.5-21.2-1.4-.8-2.9-2.4-4.6-1 5.7 28.6 9.8 56.7-7.8 83.5 15 .8 29.2.7 43.4-1.1 15.9-2.1 31.4-5.7 45.1-14.8 1.9-1.3 3.8-2.4 3.8-5.3v-39.1zm51.6 14.7h.2c0-6 .1-12 0-18-.2-13.7-4.4-17.8-18.1-17.6-10.9.1-16.2 5.4-16.3 16.3-.1 11 0 22 0 33 0 15 4.7 19.7 19.7 19.5 1.3 0 2.7-.1 4-.3 7.1-.9 10.2-3.9 10.4-11 .3-7.2.1-14.6.1-21.9zM156 49.9c21.9 23 77 45.5 95.9 39.4-7.3-17.8-72.3-44.7-95.9-39.4zM323.4 90c2.4-.1 5-.1 7.7-.4 15.2-1.9 29.6-6.6 43.6-12.7 11.1-4.8 21.9-10.2 31.4-17.9 3.2-2.6 6.7-5.2 8.2-10-10.9-.3-20.9 1.2-30.6 4-21.1 6-41 14.4-58.3 28.2-3 2.4-4.7 4.9-2 8.8zm174.4 169.7c3.1 21.8 2.1 43.1-1.3 64.5 12.7-1.4 22.4-13.8 23.3-29.7 1.1-17.2-7.8-31.6-22-34.8zm-424.7.3c-14.7 3-23.7 20.1-20.9 38.8 2 13.5 12.7 25.5 22.3 24.7-3.6-21.1-4.3-42.2-1.4-63.5z"/><path class="st0" d="M370.5 227.3c18.7.5 34.2 5.9 47 18.1 5.2 5 4.3 12.1-1.8 14.8-4.3 1.9-7.6.2-10.8-2.8-11.2-10.5-24.3-15.4-39.7-13.4-10.6 1.3-19.5 6.2-27.2 13.5-2.5 2.4-5.3 4.1-8.9 3.3-3.3-.7-5.6-2.8-6.6-6.1-1.1-3.6.1-6.6 2.7-9 10.4-10 22.9-15.8 37.1-17.6 3.2-.5 6.3-.6 8.2-.8zM197 227.3c16.8 0 32.6 5.1 45.8 17 5.1 4.6 5.8 9.9 2.1 13.9-3.7 3.9-8.6 3.6-13.6-.8-20.7-18.6-46.2-18.6-66.9.1-4.9 4.4-9.9 4.7-13.6.7-3.6-3.9-2.9-9.1 1.9-13.5 12.3-11.4 27-16.6 44.3-17.4zM284.8 413.4c-17.3-.1-32.6-5.6-45.3-17.5-4.5-4.3-4.7-9.8-.6-13.5 3.7-3.4 8.2-3 12.8 1.2C262 393 273.8 398 288 397.1c11.5-.8 21-5.7 29.4-13.3 2.3-2.1 4.6-4 7.8-3.7 3.6.3 6.4 2.2 7.6 5.6 1.2 3.5.6 6.8-2.3 9.6-12.8 12.2-28.2 17.8-45.7 18.1z"/></svg>