<svg xmlns="http://www.w3.org/2000/svg" width="537" height="535" viewBox="0 0 537 535"><style>.st0{fill:#050505;}</style><path class="st0" d="M261.4 519.9h-16V356.8c-18.9 6.3-37.5 9.7-56.8 9.6-19.1 0-37.7-3.3-56.4-9.6v162.9h-15.8c-1-1.6-.4-3.5-.4-5.3 0-53.2-.1-106.3.1-159.5 0-3.7-1.1-5.5-4.4-7.2-52.3-28.1-84.1-71.4-91.2-130.4C13 155.1 34.9 103.6 83.4 63.6c4.8-3.9 9.8-7.5 14.7-11.2.2-.2.6-.2 1.5-.5v16.7c2.4.1 3.6-1.2 5-2 26.2-15.2 52.4-30.4 78.5-45.9 3.9-2.3 6.7-2.5 10.7-.1 25.9 15.4 52 30.5 78.1 45.6 1.5.9 2.9 2.2 5.5 2.3V51.4c11.9 8.3 22.5 16.5 32 26 80.4 81.7 58.7 217.7-43.2 270.1-3.6 1.9-4.9 3.9-4.9 8 .2 52.8.1 105.6.1 158.5v5.9zm32.4-434.3v6.3c0 48.5 0 97 .1 145.5 0 3.2-.9 5-3.8 6.7-32.6 18.9-65.1 37.9-97.5 57-3 1.8-5.2 1.6-8.1-.1-32.2-18.9-64.4-37.8-96.7-56.5-3.1-1.8-4.3-3.7-4.3-7.4.1-48.5.1-97 .1-145.5 0-1.7.5-3.6-.4-5.3-34.5 29-59 88.3-43.3 149.1 16.6 64.4 74.2 111.4 140.8 114.8 67.2 3.4 129.4-37.8 152.1-100.8 23.1-63.8.6-128.8-39-163.8zM99.9 144.4c0 17.2.1 34.3-.1 51.5 0 3.2.9 5 3.7 6.6C130.8 218.2 158 234 185 250c2.9 1.7 5 1.3 7.7-.2 27-15.8 54-31.6 81.1-47.2 2.8-1.6 3.9-3.3 3.9-6.6-.1-34.5-.1-68.9 0-103.4 0-3.1-1-4.8-3.6-6.3-27.2-15.8-54.4-31.6-81.5-47.6-2.8-1.7-4.9-1.7-7.7 0-27.1 16-54.3 31.8-81.5 47.6-2.7 1.5-3.6 3.2-3.6 6.3.2 17.2.1 34.5.1 51.8zm0 75.4c0 3.3.1 6.6 0 9.9-.1 2.1.7 3.3 2.5 4.3 27.9 16.2 55.8 32.5 83.6 48.8 2 1.2 3.5 1.2 5.5 0 27.8-16.3 55.7-32.6 83.6-48.9 1.3-.8 2.6-1.3 2.6-3.3-.1-3.6 0-7.2 0-10.8-2.3-.2-3.5 1.1-4.9 1.9-26.6 15.5-53.2 30.9-79.7 46.6-3.1 1.8-5.4 1.9-8.5.1-26.5-15.6-53.1-31.1-79.7-46.6-1.5-.7-2.7-2-5-2zM503.9 301.7h15.2c1.4 1.5.8 3.1.8 4.5 0 57.5.1 115 0 172.5 0 23.7-17.6 41.3-41.5 41.2-7.6 0-15.3.7-22.9-.8-18.5-3.6-32.5-19.7-32.5-38.4-.2-59-.1-118-.1-177 0-.5.1-.9.3-1.8h15.1c1.2-1.9.7-3.6.7-5.2 0-55.5 0-111 .1-166.5 0-2.9-.3-5.6-1.9-8.1-12.2-18.4-16.2-38.6-14.4-60.6 1.1-13.9.2-27.9.2-42.2h96.5c.9 1 .4 2.4.4 3.7 0 22.3 0 44.7.1 67 0 2.6-.6 4.8-1.7 7.1-4.9 9.7-11.4 18.9-13.8 29.2-2.4 10.3-.6 21.5-.6 32.4v143zm-16.7 0c1-1.9.5-3.8.5-5.6V155.2c0-11-1.8-22.4.6-32.9 2.4-10.2 9-19.5 13.9-29.2 1.2-2.3 1.7-4.6 1.7-7.2-.1-15.5 0-31-.1-46.5 0-1.4.6-3-.5-4h-64.2v21.8c0 10.8-1.7 22.1.6 32.4 2.3 9.9 8.7 18.9 13.5 28.3 1.5 2.9 2.1 5.8 2.1 9.1-.1 56.3-.1 112.6 0 168.9 0 1.9-.6 4 .6 5.8h31.3zm-47.6 16.5c-.3.5-.4.6-.4.8 0 53.8-.1 107.6 0 161.4 0 12.7 10.6 23 23.4 23.4 4.7.2 9.3 0 14 0 17.5 0 27.3-9.8 27.3-27.2V323.2v-5.1c-21.6.1-42.9.1-64.3.1z"/><path class="st0" d="M289.6 390c-1.9-3.6-3.6-6.6-5.2-9.7-.7-1.5-1.9-2.7-1.9-4.9 50-27.6 83.8-68.8 100.6-124.1 5.1 1.4 9.9 2.8 15.6 4.3-18.1 59.9-54.5 104.1-109.1 134.4zM398.6 129.9c-5.3 1.5-10.1 2.8-15.6 4.4-11.8-41.4-35.4-74.7-69.8-100.7 3.2-4.4 6.3-8.5 9.6-13 37.3 28 62.7 63.9 75.8 109.3zM289.4 438.2c-2.5-4.8-4.9-9.3-7.5-14.3 16.7-8.9 32.1-19.2 47.1-31.4 3.3 4.1 6.6 8.2 10.2 12.6-15.7 12.7-31.9 23.8-49.8 33.1zM164.2 382.9v15.7h-15.7v-15.7h15.7zM164.2 430.9h-15.7v-15.6h15.7v15.6zM196.9 204.8h-16.1v-56.3h-56.5v-16.3h56.2V76h16v56h56.4v16.2h-56.1c.1 19 .1 37.6.1 56.6zM479.3 350h-15.6v-15.6h15.6V350zM479.3 382.7h-15.6V367h15.6v15.7zM479.3 414.9h-15.6v-15.8h15.6v15.8z"/></svg>