<svg xmlns="http://www.w3.org/2000/svg" width="565" height="338" viewBox="0 0 565 338"><style>.st0{fill:#29313F;}</style><path class="st0" d="M240.5 15h65c35.2.1 56.6 22.2 61.9 46.4.8 3.7 2.8 5.1 6.7 5.1 12 0 24 .2 36 .5 21.8.6 40.5 8.5 55.9 24 18.8 18.9 37.7 37.7 56.6 56.5 13.1 13 19.6 28.6 19.4 47-.1 11.2-.1 22.3 0 33.5.2 29.8-19.9 43.1-40.7 44.8-10.5.8-10.4 1-12.7 11.2-6.1 27.9-30.8 42.6-53.1 40.8-27.1-2.2-44.3-21.3-47.5-43.8-1.2-8.4-1.1-8.4-9.5-8.4H292c-8.3 0-8.3 0-9.6 8-3.8 23.9-22.4 41.7-46.3 44.3-25.1 2.7-51.1-17.5-54.8-42.6-1.4-9.4-2-9.9-11.3-9.8-31.8.3-57.1-24.9-57.8-58.9-.7-32-.3-64-.3-96v-43c0-27.6 16.4-49.1 43-56.8 6.9-2 13.9-3 21.1-3 21.5.3 43 .2 64.5.2zm114.6 243.3v-4.8V75c0-23.5-21.2-45.6-44.8-45.8-46.7-.3-93.3-.3-140 0-23.3.1-44 20.6-44.2 43.8-.4 47.7-.4 95.3.1 143 .2 16.5 8.4 29.2 23.4 36.9 6 3.1 12.7 4 19.3 4.9 11.8 1.5 12.5 1.2 18.2-9.1 12.9-23.1 38.1-32.6 62.9-23.7 13 4.7 21.7 14 27.6 26 2.6 5.3 6.1 7.5 12.2 7.3 12.8-.4 25.7-.1 38.5-.1 8.8.1 17.5.1 26.8.1zm100-156.4c-11.3-10.1-21.7-18.7-36.1-20.1-13.5-1.4-27-1-40.5-1-7.8 0-9.3 1.6-9.3 9.4v157c0 2.2 0 4.3.4 6.5.4 2.5 1.9 4.1 4.5 4.6 10.3 1.9 14 .2 19.3-9 .2-.4.5-.9.7-1.3 19.3-35.2 70.5-34.4 89.2.7 6 11.2 6.9 11.3 19.5 8.2 1.5-.4 2.9-.8 4.3-1.3 12.4-4.4 19.9-14.2 20.6-26.8.3-5.7-1.4-7.6-7-7.7-6.2-.1-12.3 0-18.5 0-8.2 0-11.8-2.6-11.8-8.2 0-5.5 3.5-7.9 11.5-7.9h20c3.5 0 5.8-1.5 5.9-5.2.2-5.5.1-11-1.2-16.4-2.9-11.7-5.6-13.7-17.7-13.7h-90.5c-2.8 0-5.7 0-8.5-.3-13.2-1.5-21.2-9.6-22.2-22.9-.5-6.8-.5-13.7-.1-20.5.9-15.2 10-23.6 25.2-23.9h6.5c11.5-.2 22.9-.2 35.8-.2zM269.2 273.4c-.1-20.6-16.6-37.3-37.1-37.3-20.7 0-37.4 16.8-37.4 37.5 0 20.4 16.9 37.3 37.1 37.3 20.9-.1 37.5-16.7 37.4-37.5zm207.1.1c0-20.5-16.6-37.3-37.1-37.4-20.4-.1-37.4 17-37.4 37.7 0 20.1 16.8 37 36.9 37.1 20.7.1 37.5-16.6 37.6-37.4zm31.5-119.2c-.6-.8-.9-1.6-1.5-2.2-11.9-11.4-23.9-22.7-35.8-34.1-1.7-1.6-3.7-2-6-2h-51.9c-7.2 0-10.6 3.5-10.8 10.8-.2 5.5-.1 11 .1 16.5.3 9 2.9 11.5 11.8 11.9 1.2 0 2.3.1 3.5.1h85.9c1.3-.1 2.9.4 4.7-1zM63.5 83.7H93c5.4 0 8.7 2.6 8.8 6.8.1 4.4-3.3 7.3-8.8 7.4H33.5c-5.2 0-8.5-2.8-8.5-7.1s3.2-7 8.5-7c10-.1 20-.1 30-.1zM71.8 133.1c-7.2 0-14.3.1-21.5 0-5.1-.1-8.4-3-8.3-7.3.2-4 3.4-6.8 8.2-6.8 14.5-.1 28.9-.1 43.4 0 4.8 0 8 3 8 7 0 4.1-3.2 7-8 7-7.1.2-14.4.1-21.8.1zM81 167.5c-4.7 0-9.3.1-14 0-4.5-.1-7.6-3-7.7-6.9-.1-4 3.1-7.2 7.8-7.3 9-.1 18-.1 27 0 4.5.1 7.6 3 7.7 6.9.1 4.1-3 7.1-7.8 7.3-4.4.1-8.7 0-13 0zM89.5 187.8c2 0 4-.2 6 0 3.8.5 6.1 2.9 6.2 6.7.2 3.8-2.1 6.6-5.7 7.1-4.4.6-9 .5-13.4.1-3.7-.4-6-3-6-6.9 0-4 2.4-6.5 6.4-7 2.1-.2 4.3 0 6.5 0z"/><path class="st0" d="M249.1 273.3c.1 9.2-7.9 17.4-17 17.5-9.3.1-17.1-7.6-17.2-17.1-.1-9.5 7.4-17.3 16.8-17.4 9.4-.1 17.3 7.6 17.4 17zM421.9 273.3c0-9.7 7.4-17.1 17-17.1s17.1 7.5 17.1 17c0 9.7-7.8 17.6-17.3 17.5-9.2 0-16.8-7.9-16.8-17.4z"/></svg>