<svg xmlns="http://www.w3.org/2000/svg" width="200" height="204" viewBox="0 0 200 204"><style type="text/css">  
	.st0{fill:#EC0202;}
</style><path class="st0" d="M100.6 11c48.9 0 88.6 39.8 88.4 88.8 -0.1 48.7-39.8 88.2-88.6 88.2 -48.9 0-88.6-39.8-88.4-88.8C12.1 50.5 51.8 11 100.6 11zM73 71.7c1.5 1 2.8 1.7 4 2.5 13.7 9.4 26.3 4.4 35.7-6.5 2.3-2.7 2.5-5.9-0.2-8.6 -2.6-2.5-5.5-1.9-8.1 0.1 -1.1 0.8-2 1.8-2.9 2.7 -7.4 7-11.3 7.2-19.6 1 -1.1-0.8-2.1-1.6-3.2-2.3 -3.6-2.3-7.2-2.2-10.8-0.2 -15.2 8.4-19.3 33-7.5 45.8 4.7 5.1 10.3 7.1 17.1 4.6 3.3-1.2 6.6-2.2 9.8-3.6 4-1.8 7.4-1.6 10.9 1.5 3.4 3.1 7.5 5.5 11.4 8.1 3.1 2 6.5 2.5 8.8-0.9 2.2-3.2 1.2-6.4-1.9-8.7 -5.9-4.3-11.9-8.5-17.9-12.7 -2.7-1.9-5.4-2-8.5-0.9 -5.1 2-10.4 3.4-15.5 5.5 -3.5 1.4-5.2 0-6.7-2.9C63.3 87.8 65 79.4 73 71.7zM165.3 87.1c0.1-13.8-11.1-25-25-25 -13.8 0-25.2 11.3-25.2 24.9 0 13.4 11.3 24.7 24.9 24.8C153.8 112 165.2 100.8 165.3 87.1zM86.9 164.3c14-0.1 25.2-11.2 25-25 -0.1-13.5-11.3-24.5-25-24.5 -14-0.1-25.2 10.9-25.2 24.8C61.7 153.4 72.8 164.3 86.9 164.3zM93 40.9c0-7-5.2-12.1-12.3-12.1 -7.1 0-12.4 5.1-12.5 12 -0.1 7 5.5 12.5 12.7 12.4C87.9 53.2 93 47.9 93 40.9z"/><path class="st0" d="M156.1 87c0 8.7-7.2 15.8-16 15.8 -8.6-0.1-16-7.5-15.9-16 0.1-8.6 7.4-15.8 16.1-15.7C149.1 71.1 156.2 78.2 156.1 87z"/><path class="st0" d="M86.7 155.2c-9 0-15.8-6.9-15.8-15.8 0-8.9 7-15.6 16-15.6 8.8 0 16 7.2 16 15.8C102.8 148.3 95.5 155.3 86.7 155.2z"/></svg>