<svg xmlns="http://www.w3.org/2000/svg" width="518" height="392" viewBox="0 0 518 392"><style>.st0{fill:#030303;}</style><path class="st0" d="M275.7 253.4h-31.5c.5 6 .5 11.9.1 17.8-4.4 54.1-47.8 97.1-100.8 99.7-54.9 2.6-102.6-34.8-112.2-88.4-4.2-23.4-1.3-46.2 9.8-67.5 24.8-48 49.8-95.8 74.7-143.7 4.9-9.5 10.4-18.6 17.5-26.6 17-19.4 44.6-26.9 69.2-18.7 23.4 7.8 39.5 29.2 41.7 55.2 1.1 12.8.1 25.6.7 38.6h30.4c0-9.9-.1-19.7 0-29.4.1-15.7 3.7-30.4 13.1-43.2 22.6-30.9 70.2-32.9 96.8-4.2 8.7 9.4 14.9 20.4 20.8 31.6 24.2 46.6 48.6 93.1 72.6 139.8 34.1 66.2-8.4 146.6-82.4 155.7-32 4-60.5-4.9-84.5-26.3-26.2-23.3-37.9-53-36-88v-2.4zm136-93.1c.4.1.7.3 1.1.4 0-.4-.1-.8-.1-1.2-7.6-15.3-15.4-30.5-22.8-45.9-3.3-6.9-8.4-11.4-15.2-14.2-6.5-2.6-13.3-4.3-20.3-4.6-28.6-1.4-49.5 20.2-48.4 45.9.5 11.3.1 22.6.1 34v11.9c1.3-1.2 1.9-1.7 2.5-2.3 17.3-16.1 37.8-24.8 61.2-27.5 14.3-1.8 28.1-.1 41.9 3.5zm-303.4 0c1-.2 2-.3 2.9-.5 37.6-9.2 71.1-1.2 100.2 24.5.7.6 1.1 1.8 2.5 1.2 0-16.6.1-33.2-.1-49.8-.1-4.8-1.4-9.5-3.3-14-8.8-21-32.5-31.6-56.8-25.1-8.6 2.3-17.3 5-21.8 13.5-8.5 16.3-16.5 32.9-24.7 49.4 0 .4-.1.8-.1 1.2.5-.2.8-.3 1.2-.4zm274.6 179.9c43-.2 77-34.4 76.8-77.3-.2-42.4-34.8-76.4-77.4-76.1-42.6.3-76.5 34.6-76.2 77.3.2 42.3 34.6 76.4 76.8 76.1zm-246 .1c42.6.1 77-34 77.1-76.5.1-42.6-34-76.8-76.6-76.9-42.5-.1-76.8 33.7-77 75.9-.4 42.9 33.6 77.3 76.5 77.5zM245 151.1v71.2h29.9v-71.2H245zm63.3-74.3c16-9.8 33.1-14.3 53-12.5-10.5-9.5-21.3-12.8-33.6-9.4-11 3-16.6 11.2-19.4 21.9zm-97.7-.9c-1.5-9.9-6.8-16.7-15.7-20.1-13.3-5-25-1.4-36.1 8.3 9.6-.3 18.4-.3 27 1.9 8.7 2.1 16.7 5.9 24.8 9.9z"/><path class="st0" d="M326.6 263.4c0-30.8 25.5-56.3 56.3-56.2 31.1.1 56.3 25.5 56.2 56.8 0 30.5-25.5 56-56 56-31.1 0-56.5-25.4-56.5-56.6zm56.1 25.7c14.5.1 25.7-11 25.7-25.5 0-14.4-11.1-25.6-25.6-25.6-14.1 0-25.4 11.2-25.6 25.2-.2 14.3 11.2 25.8 25.5 25.9zM193.4 263.6c-.1 31.1-25.7 56.5-56.7 56.3-30.6-.2-55.8-25.6-55.8-56.2 0-31.2 25.4-56.6 56.5-56.6 30.6.1 56.1 25.7 56 56.5zm-56.7 25.5c14.5.1 25.9-10.9 26.1-25.2.2-14.3-11.2-25.8-25.4-25.9-14.4-.1-25.7 11.1-25.7 25.5-.2 14.2 10.8 25.4 25 25.6z"/></svg>