<svg xmlns="http://www.w3.org/2000/svg" width="512" height="512" viewBox="0 0 512 512"><path d="M143 225h303.9c17.4 0 30 9.7 33.4 25.6 4.1 18.9-10.1 37.4-29.4 38.4-1.8.1-3.7.1-5.5.1H142.9c0 2 1.6 2.6 2.5 3.5 23.3 23.4 46.7 46.6 69.9 70.1 13.5 13.6 12.9 33.4-1.1 46.1-12.4 11.3-30.4 11.4-42.4-.3-15.4-15-30.5-30.3-45.7-45.5-27.3-27.3-54.3-55-82.2-81.8-15.1-14.6-13-35.2-.3-47.7 42.7-42.1 84.9-84.7 127.4-127.1 9.7-9.7 22.8-11.9 35-6.4 11.8 5.3 19.6 17.8 19 30.9-.4 8.8-4.5 15.7-10.7 21.8-22.8 22.7-45.5 45.5-68.2 68.2-1.2 1.2-2.4 2.2-3.6 3.3.1.1.3.5.5.8z"/></svg>