<svg xmlns="http://www.w3.org/2000/svg" width="574" height="569" viewBox="0 0 574 569"><style>.st0{fill:#010101;}</style><path class="st0" d="M219.9 537.7c0-10.1.2-20.2 0-30.3-.6-30-1.2-60-2-90-.1-3.3.7-6 2.7-8.7 42.3-59 84.5-118.1 126.6-177.1 1-1.3 1.9-2.7 3-4.3-2.4-.8-3.5 1.1-4.7 2.1L198.5 344c-11.6 9-23.1 18-34.7 27-1.7 1.3-2.9 2.1-5.2.9-41.5-21.4-83-42.7-124.6-64.1-.3-.1-.5-.4-1.3-1.2 170-91.5 339.8-182.8 510.5-274.7-46.8 161.9-93.4 322.8-140 484.2-35.2-17.1-69.9-34.1-104.7-51L221.4 538c-.4-.1-1-.2-1.5-.3z"/></svg>