<svg xmlns="http://www.w3.org/2000/svg" width="493" height="533" viewBox="0 0 493 533"><style>.st0{fill:#010101;}</style><path class="st0" d="M16.1 113.6c-.3-7.5.2-15 1-22.5.6-6.4 2.6-12.3 6.1-17.8C37.4 51.2 57 34.6 79.6 21.5c11.6-6.7 24.1-5.2 36.2-.3 9.1 3.7 17.4 9.2 25.5 14.7 4 2.7 5.9 7.1 7.9 11.4 7 15.1 10.9 31.1 14.7 47.2 3.9 16.5 6.9 33.3 9.4 50.1 1.2 8.1-.7 15.1-5.2 21.7-5.1 7.5-11.5 13.8-18.1 20-7.6 7-15.2 14-23 20.8-2.5 2.1-2.7 3.9-1.7 6.8 9.2 24.9 22.6 47.5 37.7 69.1 30.5 43.7 69.2 78.7 113.9 107.2 12.7 8.1 12.8 7.8 23.9-1.9 9.9-8.7 19.8-17.3 30.6-24.9 10.5-7.4 21.2-9.7 33.9-5.9 24.7 7.6 49 16.1 73 25.6 20.5 8.1 31.8 22.7 37.6 43.1 4.8 16.9 2.6 31.7-9.4 45-14.6 16.2-30.2 31-49.8 41.1-7.6 3.9-15.4 5.9-24 5.8-41.2-.4-80.5-10.1-118.3-25.6-72.1-29.7-130.4-77.3-176.2-140.3C55.8 294 29.7 229.1 19.3 157.9c-.9-6.3-1.7-12.6-2.1-18.9-.6-8.4-1.5-16.9-1.1-25.4z"/></svg>