<svg xmlns="http://www.w3.org/2000/svg" width="76" height="61" viewBox="0 0 76 61"><style>.st0{fill:#292526;}</style><path class="st0" d="M61.5 26.8c0 12.5-10.1 22.7-22.7 22.7C26.3 49.5 16 39.3 16 26.8 16 14.4 26.3 4.1 38.8 4.1 51.2 4 61.5 14.3 61.5 26.8zm-4.5-.1c0-10.1-8.2-18.2-18.3-18.1-10 .1-18 8.2-18 18.1 0 10.1 8.1 18.2 18.2 18.2C48.8 45 57 36.8 57 26.7z"/><path class="st0" d="M41 24.5h7.2c1.6 0 2.9.6 2.8 2.4-.1 1.7-1.3 2.1-2.8 2.1h-9c-1.9 0-2.7-.9-2.7-2.7V15.1c0-1.5.6-2.7 2.2-2.7 1.8 0 2.4 1.2 2.3 2.8v9.3z"/></svg>