<svg xmlns="http://www.w3.org/2000/svg" width="99" height="99" viewBox="0 0 99 99"><style>.st0{fill:#EC0303;}</style><path class="st0" d="M91 25.5c-.1 9-7.4 16.4-16.4 16.3-9.1 0-16.5-7.6-16.4-16.7.1-9 7.6-16.2 16.6-16.2 9 .2 16.3 7.6 16.2 16.6zM91 74.7c0 9-7.4 16.3-16.4 16.3-9 0-16.4-7.4-16.4-16.4 0-9 7.4-16.4 16.4-16.5 9 0 16.4 7.4 16.4 16.6zM9 25.3C9.1 16.2 16.5 9 25.5 9s16.4 7.5 16.4 16.4c-.1 9.1-7.6 16.6-16.7 16.4-9-.1-16.3-7.5-16.2-16.5zM25.2 91C16.2 90.9 9 83.5 9 74.4c.1-9 7.5-16.4 16.5-16.3 9.1.1 16.5 7.7 16.4 16.7-.2 9-7.7 16.3-16.7 16.2z"/></svg>