<svg xmlns="http://www.w3.org/2000/svg" width="297" height="408" viewBox="0 0 297 408"><style>.st0{fill:#EC0202;}</style><path class="st0" d="M189.7 15.4c-1.2 14.2-1.7 27.7-.3 41.2 2.6 24.9 13 46.2 29.6 64.7 10.8 12 22.3 23.4 32.6 35.9 19.8 24.2 30.2 52.2 34.4 82.8 2.8 20.4 3.2 40.6-3.5 60.3-15.6 45.9-47.7 75.2-93.6 88.6-65.5 19.2-131.8-9.7-163-70.2-13.6-26.3-17.1-54.3-13.5-83.5 5.7-45.5 26.6-84 55.3-118.8 33.1-40.1 73.2-72.2 117.7-98.8 1.1-.6 2.3-1.2 4.3-2.2zm-61.4 226.3c-21.8-17.1-27.7-39.8-23.9-66.8-7.4 4.3-12.7 8.8-16.4 14.8C74.2 212 67.1 236 70.8 262.5c4.9 34.4 33.3 61.6 69.1 66.4 33.8 4.6 69.8-15.1 83-45.9 11.4-26.5 6.2-52.1-5.8-77-.5-1.1-.7-2.7-2.7-2.7-7.5 11-16.9 19.9-28.8 27.3 1.7-17.5 0-24.6-9.3-38.6-3.1-4.7-6.6-9.2-9.8-13.8-5.1-7.2-10.4-14.3-13.6-22.6-3.7-9.3-3-18.2 2-26.9 2.4-4.1 5.9-7.3 8.6-11.3-1-.4-1.8-.4-2.5.1-7.3 5.4-15 10.4-22 16.2-15.1 12.6-18.5 26.8-11.2 45.1 2.4 6 5.2 11.9 7.6 17.9 6.5 16.3 3.5 31.1-7.1 45z"/></svg>