<svg xmlns="http://www.w3.org/2000/svg" width="344" height="267" viewBox="0 0 344 267"><style>.st0{fill:#FE0000;}</style><path class="st0" d="M199.6 73.5c-1.8 8-3 16-2.7 24.8 5.9-1.4 10.7-5.4 16.9-6-1 4.4-3.4 8.4-2.8 13 1.8.9 3.7.5 5.5.5h68c6.4 0 6.5.1 6.5 6.3 0 28.6-.1 57.3.1 85.9 0 4.5-1.3 6.1-6 6.1-69.1-.1-138.2-.1-207.4 0-4.3 0-5.8-1.4-5.8-5.7.1-29 .2-58 0-86.9 0-4.4 1.5-5.7 5.8-5.7 19.5.2 39 0 58.5.2 3.7 0 5.4-1 7-4.4 9.3-20.5 24.2-36.3 42.8-50.1-2.9 10.6-2.7 20.2.9 30 4.3-3 8.2-5.7 12.1-8.4.1.1.3.3.6.4z"/><path class="st0" d="M199 73c.1-.4.2-.9.7-.5.1.1-.1.7-.1 1.1-.3-.2-.5-.4-.6-.6z"/></svg>