<svg xmlns="http://www.w3.org/2000/svg" width="482" height="535" viewBox="0 0 482 535"><style>.st0{fill:#070707;}</style><path class="st0" d="M467.4 266.5c0 43.8-.4 87.7.2 131.5.3 22.2-9.4 39-25.5 52.8-17.8 15.3-38.9 25-60.1 34.2-31 13.6-63.1 23.6-96.4 30-39.1 7.6-77.5 3.8-115.6-6.3-35-9.4-68.7-22.2-100.6-39.5-14.7-8-28.5-17.2-39.2-30.5-9-11.2-13.7-23.7-13.7-38.1.1-90.3.1-180.6.1-270.9 0-18.1 6.7-28.2 23.4-34.9C100.7 70.4 161.3 46 222 21.7c13.4-5.4 26.9-5.3 40.3.1 60.8 24.5 121.6 48.9 182.5 73.4 15.4 6.2 22.6 16.6 22.6 33.4.1 45.9 0 91.9 0 137.9zm-76.9-112.2c-2.6.3-4.4 2.2-6.4 3.7-45.7 34.6-91.2 69.3-137 103.7-19.2 14.4-40.7 17.4-63.4 9.6-18.6-6.4-37-13.2-55.5-19.7-1.6-.6-3.2-1.8-5.2-1-.3 2.3 1.2 3.8 2.2 5.4 27.3 43.4 54.6 86.8 82 130.1 6.7 10.6 14.1 10.8 21.3.6 47.9-67.8 95.8-135.6 143.6-203.5 6.5-9.2 13.6-18.1 19.2-27.9.6-.4.8-.9.3-1.4-.1-.1-.7.3-1.1.4zm-156.6-120c-2-.7-3.6.4-5.3 1.1-62.1 24.9-124.1 49.8-186.1 74.9-7.1 2.9-10.7 8.7-10.7 16.5v275.9c0 8.5 2.7 16 7.5 22.9 7.2 10.3 16.5 18.3 27.3 24.6 41.9 24.6 87 40.6 134.6 49.8 10.8 2.1 21.6 3.3 32.7 3.9v-100c-16.3 9.6-29.3 6.5-39.1-9-27-42.8-53.9-85.6-80.9-128.4-2.5-3.9-4.9-7.9-6.3-12.4-3.4-10.7 2.7-19.2 13.9-19.3 4.2 0 8.2 1.2 12.1 2.6 18.5 6.6 37 13 55.4 19.8 13.8 5 27.1 3.2 40.4-2.1 3.7-1.5 5.1-3.7 5-7.9-.2-69-.1-138-.2-207 .1-2 .6-4-.3-5.9zm16 469.4c12-.5 23.7-1.9 35.2-4.1 35.7-7.1 70.1-18.5 103.1-34 14.8-6.9 29.5-14.1 42.1-24.8 12.1-10.3 21.9-21.8 21.9-39.1-.1-91.5 0-183-.1-274.5 0-8.9-3.7-14.2-12-17.6-56.5-22.8-112.9-45.7-169.4-68.3-6.7-2.7-13.3-5.9-20.8-7.7v206.6c1.2-.8 1.8-1.2 2.5-1.7 33.1-25 66.1-50.1 99.2-75.1 9.4-7.1 18.7-14.5 28.5-21.2 8.2-5.6 18.6-4.7 24 1 5.4 5.7 5 13.9-1.3 22.8l-44.1 62.4-106.6 151c-1.5 2.1-2.5 4.1-2.5 6.8.1 37.7 0 75.3.1 113-.1 1.5.1 2.8.2 4.5z"/></svg>