<svg xmlns="http://www.w3.org/2000/svg" width="76" height="52" viewBox="0 0 75.8 52.1"><style type="text/css">  
	.st0{fill:#FBFBFB;}
	.st1{fill:#020202;}
</style><path class="st0" d="M0.2 20.2c0-2.6 0-5.3 0-7.9 0.1 0 0.2-0.1 0.3-0.1 24.5 0 49 0 73.4 0 0.5 0 1 0 1.6 0 0-4.1 0-8 0-11.9 0.1 0.4 0.2 0.7 0.2 1.1 0 16.9 0 33.8 0 50.8 -24.8 0-49.7 0-74.5 0 -0.4 0-0.7-0.2-1.1-0.2 25.1 0 50.2 0 75.3 0 0-4 0-7.9 0-11.9 -0.5 0-0.9 0-1.4 0 -24.2 0-48.4 0-72.6 0 -0.5 0-0.9-0.1-1.4-0.1 0-2.6 0-5.3 0-7.9 0.4 0 0.9 0 1.3 0 24.2 0 48.5 0 72.7 0 0.4 0 0.8 0 1.3-0.1 0-4 0-7.8 0-11.8 -0.5 0-0.9 0-1.3 0 -24.2 0-48.5 0-72.7 0C1.1 20.1 0.7 20.1 0.2 20.2z"/><path class="st1" d="M75.6 0.2c0 3.9 0 7.8 0 11.9 -0.6 0-1.1 0-1.6 0 -24.5 0-49 0-73.4 0 -0.1 0-0.2 0.1-0.3 0.1 0-4 0-8 0-12C25.4 0.2 50.5 0.2 75.6 0.2z"/><path class="st1" d="M0.2 39.8c0.5 0 0.9 0.1 1.4 0.1 24.2 0 48.4 0 72.6 0 0.4 0 0.9 0 1.4 0 0 4 0 7.9 0 11.9 -25.1 0-50.2 0-75.3 0C0.2 47.8 0.2 43.8 0.2 39.8z"/><path d="M0.2 20.2c0.4 0 0.9 0 1.3 0 24.2 0 48.5 0 72.7 0 0.4 0 0.8 0 1.3 0 0 4 0 7.8 0 11.8 -0.4 0-0.8 0.1-1.3 0.1C50 32 25.8 32 1.6 32c-0.4 0-0.9 0-1.3 0C0.2 28 0.2 24.1 0.2 20.2z"/></svg>