<svg xmlns="http://www.w3.org/2000/svg" width="561" height="306" viewBox="0 0 561 306"><style>.st0{fill:#030303;}</style><path class="st0" d="M57.4 124c-3 8.5-8.4 13.5-17.1 13.6-11.9.1-19.7-11.4-15.7-23.2 3.7-11.2 7.8-22.3 11.7-33.4 4.2-11.9 8.4-23.8 12.7-35.7C52.6 34.9 60.2 30.1 69.4 32c8.8 1.8 13.7 9.3 13.2 20 0 .3.1.6.2 1.1 1.5 1.4 3.4.7 5.2.7 66.5 0 133 0 199.5.1 3.4 0 5.1-.9 6.1-4.2 1.9-6.3 4.3-12.5 6.5-18.7-7.7-4.3-9.8-8.2-7.2-13.3 2.4-4.8 6.7-5.6 14.3-2.8l30.9 11.4c6.9 2.6 9.5 6.5 8 11.7-1.5 5.1-6.2 6.8-13.7 4.6-2.3 6.3-4.5 12.7-6.9 19-1 2.8 1.4 3.5 2.8 4.6 28.7 24.1 57.5 48.1 86.3 72.1 28.4 23.7 56.8 47.4 85.1 71.2 1 .8 2.1 1.7 3.4 2.7 6.6-4.6 13.7-7.2 21.9-5.4 4.5 1 8.5 2.8 11.9 6 3.5 3.4 3.8 8.2.9 11.7-2.7 3.3-7.3 4-11.3 1.6-1-.6-1.9-1.5-2.9-1.9-3.7-1.5-7.3-1.1-10 2.1-2.5 3-2.8 6.4-.8 9.8 2.1 3.6 5.5 4.8 9.5 3.8 8.2-2.1 12.4-.7 13.8 4.7 1.4 5.7-2.1 10-9.8 12-10.4 2.7-21.3-1.2-27.1-10.3-2.1-3.2-4.1-3.8-7.7-3.3-65.1 8.2-130.3 16.4-195.4 24.5-5.9.7-11.9 1.7-17.9 2.1-3.4.2-5.2 1.5-6.7 4.6-7.2 14.3-22.7 22.6-37.9 20.4-16.1-2.2-28.5-13.7-32-29.5-.9-4.3-1.1-8.6-.4-12.9.5-2.8-.2-4.6-2.4-6.4-45.9-39.6-91.8-79.3-137.6-119-1.1-.8-2.2-1.6-3.8-2.8zm12.7-35.6c.5 2 1.9 2.7 3 3.6 49.1 42.5 98.3 85 147.4 127.5 4.8 4.2 12 2.3 14.1-3.6 12.7-35.9 25.4-71.8 38.1-107.8 2.3-6.5 4.6-13.1 7.1-19.9-70.4.2-139.9.2-209.7.2zm381.1 125.3c-46.6-38.9-92.3-77.2-138.4-115.7-.8 2-1.3 3.2-1.8 4.4-14.7 41.4-29.3 82.9-44 124.3-2.6 7.2-.3 10 7.3 9 42.1-5.3 84.3-10.5 126.4-15.7 16.4-2 32.8-4.1 50.5-6.3zm-213 55.7c6.4-.1 11.7-5.4 11.7-11.8.1-6.6-5.6-12.1-12.1-12-6.6.2-11.9 5.7-11.7 12.3.3 6.4 5.7 11.6 12.1 11.5z"/></svg>