<svg xmlns="http://www.w3.org/2000/svg" width="500" height="500" viewBox="0 0 500 500"><style>.st0{fill:#EB0404;}</style><path class="st0" d="M269.2 122.9c2.3-2.5 4.3-4.9 6.5-7.1C310.4 81 345.2 46.2 379.9 11.4c4.2-4.2 8.8-6.6 14.8-5 9 2.5 12.4 13.6 6.5 21-.8 1-1.8 1.9-2.8 2.9L282.5 146.2c-1.9 1.9-3.9 3.7-6.1 5.1-4.8 3.1-9.8 3-14.5-.2-1.8-1.2-3.5-2.6-5-4.1-39-38.9-77.9-77.7-116.9-116.5-3.9-3.9-6.1-8.3-5.2-13.9 1.5-9.3 12.3-13.9 20-8.4 2.3 1.7 4.3 3.7 6.3 5.7 34.4 34.4 68.7 68.9 103 103.3 1.5 1.6 2.9 3.3 5.1 5.7zM269.3 279.2c1.4-1.9 2.4-3.5 3.7-4.7 35.6-35.6 71.2-71.2 106.7-106.8 2.6-2.6 5.3-5 9.2-5.6 5.7-.8 11.2 1.9 13.8 6.9 2.5 4.7 1.7 10.7-1.9 14.9-.9 1-1.9 1.9-2.8 2.8L282.4 302.3c-9.8 9.8-16.5 9.8-26.3 0L150.4 196.6c-4.1-4.1-8.4-8.2-11.9-12.7-3.3-4.3-5.5-9.4-2.5-14.8 2.7-4.9 7.2-7.2 12.9-6.9 3.3.2 6 1.9 8.3 4.2l108.2 108.2c1 .9 2 2.3 3.9 4.6zM268.8 434.3c1.8-1.7 3.7-3.3 5.4-5.1 34.8-34.7 69.5-69.5 104.3-104.3 1.6-1.6 3.3-3.3 5.2-4.7 5.4-3.8 12.2-3.1 16.8 1.6 4.5 4.5 5 11.7 1.2 16.9-1.2 1.6-2.6 3-4 4.4-38.2 38.2-76.3 76.4-114.5 114.5-2 2-4 4-6.5 5.5-5.3 3.3-10.4 3-15.4-.5-1.6-1.1-3-2.6-4.5-4L141.6 343.4c-3.4-3.4-6.8-6.8-6.8-12.2 0-5.5 2.5-9.3 7-11.8 4.6-2.5 9.3-2 13.6 1.1 1.6 1.2 3.1 2.6 4.5 4 34.3 34.3 68.6 68.6 102.8 102.9 2.1 2 3.9 4.4 6.1 6.9z"/></svg>