<svg xmlns="http://www.w3.org/2000/svg" width="164" height="164" viewBox="0 0 164 164"><style type="text/css">  
	.st0{fill:#EC0202;}
	.st1{fill:#FEFCFC;}
</style><path class="st0" d="M73 0.5c4.5 0 9 0 13.5 0 5.4 2 7.4 6 7.1 11.6 -0.3 5.1-0.1 10.3 0 15.5 0 0.7 0.5 1.9 1 2.1 4.1 1.7 8.3 3.2 12.8 4.9 4.8-4.8 9.8-9.9 14.8-14.8 4-3.9 9.1-3.9 13.2 0 1.8 1.7 3.4 3.4 5.1 5.1 5.2 5.2 5.2 9.9 0 15.1 -4.6 4.6-9.3 9.3-13.8 13.7 1.7 3.7 3.3 7.1 4.6 10.6 0.6 1.7 1.4 2.1 3.1 2.1 6.1-0.1 12.2 0.2 18.2-0.1 5.6-0.2 9.4 1.9 11.3 7.2 0 4.5 0 9 0 13.5 -2.4 5.3-6.7 7-12.3 6.7 -5.4-0.3-10.8 0-16.2-0.1 -1.6 0-2.3 0.5-2.7 2.1 -0.9 3-1.9 6-3.1 8.9 -0.6 1.4-0.4 2.2 0.6 3.2 4.8 4.7 9.6 9.5 14.3 14.3 4.1 4.2 4 9.3 0 13.5 -1.6 1.7-3.3 3.3-4.9 5 -5.1 5.1-10 5.1-15.1 0 -4.5-4.5-9-8.9-13.3-13.1 -4 1.9-7.9 3.8-11.7 5.8 -0.7 0.4-1.2 1.6-1.3 2.5 -0.1 5.6-0.3 11.2 0 16.7 0.3 5.7-1.8 9.6-7.2 11.6 -4.5 0-9 0-13.5 0 -5.5-2.5-7.1-6.9-6.7-12.6 0.3-4.5 0.1-9 0-13.5 0-0.8-0.6-2-1.3-2.2 -4.6-1.5-9.2-2.8-14-4.3 -4.3 4.3-8.8 8.8-13.3 13.3 -3.9 3.8-9.1 3.8-13 0.1 -1.8-1.7-3.5-3.5-5.3-5.3 -5-5-5-10 0-15 3.8-3.8 7.5-7.5 10.9-10.9 -2.3-5-4.4-9.7-6.6-14.3 -0.3-0.6-1.4-1.1-2.1-1.1 -4.4-0.1-8.8-0.3-13.2 0 -5.6 0.4-9.9-1.3-12.3-6.7 0-4.7 0-9.3 0-14 2.4-5.3 6.7-7.1 12.3-6.6 4 0.3 8 0.1 12 0 0.7 0 1.9-0.5 2.1-1.1 1.9-4.9 3.6-9.8 5.4-15 -3.9-3.9-8.2-8.1-12.4-12.4 -4-4.1-4-9.3-0.1-13.4 1.6-1.7 3.3-3.3 4.9-4.9 5.3-5.2 10.1-5.3 15.3-0.1 3.9 3.9 7.8 7.7 11.3 11.3 4.6-1.8 8.8-3.6 13-5.2 1.4-0.5 2-1.1 1.9-2.6 -0.1-4.9 0.2-9.8-0.1-14.7C65.9 7.1 67.7 2.9 73 0.5zM102.7 82.5c0.2-12.4-9.9-22.8-22.2-23 -12.7-0.2-23 9.8-23.2 22.5 -0.1 12.5 9.9 22.8 22.2 23C92.3 105.1 102.5 95.2 102.7 82.5z"/><path class="st1" d="M91 164c5.4-2 7.5-5.9 7.2-11.6 -0.3-5.6-0.1-11.2 0-16.7 0-0.9 0.6-2.1 1.3-2.5 3.8-2 7.7-3.8 11.7-5.8 4.3 4.2 8.8 8.7 13.3 13.1 5.2 5.1 10 5.2 15.1 0 1.6-1.6 3.3-3.3 4.9-5 4.1-4.2 4.1-9.4 0-13.5 -4.7-4.8-9.5-9.6-14.3-14.3 -1-1-1.2-1.8-0.6-3.2 1.2-2.9 2.3-5.9 3.1-8.9 0.4-1.6 1.1-2.1 2.7-2.1 5.4 0.1 10.8-0.2 16.2 0.1 5.6 0.3 9.9-1.3 12.3-6.7 0 25.6 0 51.2 0 77C139.7 164 115.3 164 91 164z"/><path class="st1" d="M164 73.5c-1.9-5.3-5.7-7.5-11.3-7.2 -6.1 0.3-12.2 0-18.2 0.1 -1.7 0-2.5-0.4-3.1-2.1 -1.3-3.5-3-6.8-4.6-10.6 4.5-4.5 9.2-9.1 13.8-13.7 5.2-5.2 5.2-9.9 0-15.1 -1.7-1.7-3.4-3.4-5.1-5.1 -4-3.8-9.2-3.9-13.2 0 -5.1 5-10 10-14.8 14.8 -4.4-1.7-8.6-3.2-12.8-4.9 -0.6-0.2-1-1.4-1-2.1 -0.1-5.2-0.3-10.3 0-15.5 0.3-5.7-1.7-9.6-7.1-11.6 25.8 0 51.6 0 77.5 0C164 24.8 164 49.2 164 73.5z"/><path class="st1" d="M0.5 91.5c2.4 5.4 6.7 7.1 12.3 6.7 4.4-0.3 8.8-0.1 13.2 0 0.7 0 1.8 0.5 2.1 1.1 2.2 4.6 4.3 9.3 6.6 14.3 -3.4 3.4-7.2 7.2-10.9 10.9 -5 5-5 9.9 0 15 1.8 1.8 3.5 3.6 5.3 5.3 3.9 3.7 9.1 3.7 13-0.1 4.6-4.5 9.1-9 13.3-13.3 4.9 1.5 9.5 2.8 14 4.3 0.6 0.2 1.2 1.4 1.3 2.2 0.1 4.5 0.3 9 0 13.5 -0.4 5.7 1.2 10.1 6.7 12.6 -25.6 0-51.2 0-77 0C0.5 139.8 0.5 115.7 0.5 91.5z"/><path class="st1" d="M73 0.5c-5.3 2.4-7.1 6.6-6.7 12.3 0.3 4.9 0 9.8 0.1 14.7 0 1.5-0.5 2.1-1.9 2.6 -4.3 1.5-8.5 3.3-13 5.2C47.9 31.8 44 27.9 40.1 24c-5.2-5.2-10-5.2-15.3 0.1 -1.7 1.6-3.3 3.3-4.9 4.9 -3.9 4.1-3.9 9.3 0.1 13.4 4.2 4.3 8.4 8.5 12.4 12.4 -1.8 5.2-3.5 10.1-5.4 15 -0.2 0.6-1.4 1.1-2.1 1.1 -4 0.1-8 0.3-12 0 -5.6-0.4-9.9 1.3-12.3 6.6 0-25.6 0-51.2 0-77C24.7 0.5 48.8 0.5 73 0.5z"/><path class="st1" d="M102.7 82.5c-0.2 12.7-10.4 22.6-23.2 22.5 -12.3-0.1-22.3-10.5-22.2-23 0.1-12.7 10.5-22.7 23.2-22.5C92.8 59.7 102.9 70.1 102.7 82.5z"/></svg>