<svg xmlns="http://www.w3.org/2000/svg" width="177.5" height="177.5" viewBox="0 0 177.5 177.5"><style>.st0{fill:#EC0202;}</style><path class="st0" d="M42.2 120.2c-3-4.4-5.4-9.1-7-14.1-.4-1.2-1.4-1-2.3-1H17.4c-6.3 0-9.9-3.7-9.9-10 0-2.7-.1-5.5 0-8.2.1-5 3.9-8.8 8.9-8.9 5.1-.1 10.2 0 15.2 0 1.1 0 2.1 0 2.4-1.5 1.1-5 3.1-9.7 5.6-14.2-4-4-8-8.1-12-12.1-5-5.1-5-9.9 0-15l5.1-5.1c4.1-3.9 9.3-3.9 13.4 0 4.2 4.1 8.4 8.3 12.6 12.6 4.3-2.5 8.7-4.5 13.4-5.8 1.4-.4 1.2-1.4 1.2-2.4v-17c0-6.5 3.6-10 10.1-10h7.7c5.5.1 9.3 3.8 9.3 9.3.1 5.9.1 11.8 0 17.7 0 1.5.4 2.2 1.9 2.6 4 1 7.7 2.7 11.3 4.7 1.1-.3 1.7-1.3 2.4-2.1 4.3-4.2 8.5-8.5 12.8-12.7 4.3-4.2 9.4-4.2 13.7 0l5.1 5.1c4.7 4.7 4.7 9.7.1 14.4-4.8 4.8-9.5 9.5-14.4 14.3 2.2 3.7 4 7.3 5.2 11.2.4 1.3 1.5 1.1 2.4 1.1h19.5c6.8 0 10.3 3.5 10.3 10.3v7.5c-.1 5.6-3.8 9.4-9.4 9.4-6.3.1-12.7.1-19 0-1.8 0-2.5.5-2.9 2.2-.6 3.1-1.7 6.1-3.2 8.9-.6 1.3-.4 2 .6 3 4.7 4.6 9.4 9.3 14 13.9 4.7 4.7 4.6 9.7-.1 14.4-1.6 1.7-3.3 3.3-4.9 5-4.6 4.5-9.7 4.5-14.3-.1-4.6-4.6-9.2-9.1-14-13.8-3.6 2.4-7.5 4.5-11.7 6-1.3.5-1.1 1.5-1.1 2.5v18.2c0 6.6-3.6 10.1-10.2 10.1h-7.7c-5.3-.1-9.1-3.8-9.2-9.2-.1-5.6-.1-11.2 0-16.7 0-1.7-.5-2.3-2.1-2.6-3.9-.7-7.8-2-11.4-3.7-1.2-.6-1.9-.4-2.8.5-4 4.1-8 8.1-12 12-4.4 4.3-9.5 4.4-13.9.1-1.8-1.8-3.7-3.6-5.5-5.5-4.2-4.3-4.2-9.5 0-13.7 4.3-3.6 8.2-7.5 12.3-11.6zm22.1-31c0 12.5 10 22.7 22.3 22.8 12.8.1 23-10 23-22.6.1-12.5-10.1-22.8-22.6-22.8-12.5-.1-22.6 10-22.7 22.6z"/></svg>