<svg xmlns="http://www.w3.org/2000/svg" width="564" height="564" viewBox="0 0 564 564"><style>.st0{fill:#020303;}</style><path class="st0" d="M266.6 91.5c1.2-17.1-12.8-31.6-31.3-32.5-12-.6-19.4-11.1-15.3-21.8 2.4-6.2 8.2-10.2 15.2-10.2 18.9.2 34.4 7.7 47.3 21.4 1.9-.1 2.6-1.9 3.8-2.9 12-11.6 26.3-18 43-18.5 10.2-.3 17.5 6.3 17.7 15.5.2 9.3-6.7 16-16.9 16.4-17.8.7-32.1 15.7-30.7 32.7 16.5 1.4 32.9 4 48.8 9.2 74.6 24.4 124.2 74.1 148.8 148.6 1.3 4 3.2 6.5 7.1 8.6 22.8 12.2 35.1 31.5 34.9 57.4-.2 25.9-12.9 44.8-35.9 56.8-2.8 1.5-4.5 3.1-5.5 6.2-28.4 86.1-86.9 139.9-176 156.8-90.8 17.2-181.5-24.9-229.9-104.5-10-16.4-17.7-33.8-23.1-52.3-.8-2.9-2.2-4.6-5-6.1-23.2-11.9-36.1-30.9-36.3-57-.2-26.5 12.6-46 36.2-58.1 2.8-1.4 4.2-3 5.1-6 27.7-84.4 85-136.5 171.6-156.1 8.6-1.7 17.6-2.4 26.4-3.6zM123 315c-.2 88 71.3 159.7 159.6 160 88.1.4 160.2-71.4 160.4-159.7.2-88.1-71.2-159.9-159.3-160.3-88.6-.4-160.5 71.3-160.7 160z"/><path class="st0" d="M283 346.9h46.5c10.6 0 17.4 6.9 17.5 17.5.2 34-25.8 61.2-59.8 62.5-32 1.3-57.4-15.9-65.6-44.4-1.8-6.1-2.7-12.4-2.6-18.7.2-10.1 7-16.9 17-16.9 15.7 0 31.4.1 47 0zM346.8 283c-17.7-.1-31.9-14.6-31.8-32.4.1-17.7 14.7-31.8 32.5-31.6 17.4.2 31.6 14.6 31.5 32.1-.1 17.7-14.5 32-32.2 31.9zM187 250.6c.2-17.7 14.7-31.8 32.5-31.6 17.6.2 31.8 14.8 31.5 32.6-.3 17.4-14.7 31.5-32.2 31.4-17.7-.1-32-14.6-31.8-32.4z"/></svg>