<svg xmlns="http://www.w3.org/2000/svg" width="234" height="279" viewBox="0 0 234 278.5"><style type="text/css">  
	.st0{fill:#FDFDFD;}
	.st1{fill:#EC0202;}
	.st2{fill:#030303;}
	.st3{fill:#040404;}
	.st4{fill:#FCFCFC;}
</style><path class="st0" d="M0.5 90c0-29.8 0-59.6 0-89.5 13.2 0 26.3 0 39.5 0 -0.7 0.3-1.4 0.7-2.2 1C23.1 7 21.5 23.4 27.6 32.2c4.8 7 11.7 10.5 20.3 8.7 8-1.6 13.9-6.4 15.7-14.6 1.9-8.5 0.3-16.3-7.3-21.7 -2.5-1.8-5.5-2.7-8.3-4.1 62 0 124 0 186 0 0 67.8 0 135.7 0 203.5 -1.6-4.4-4.8-6.1-9.5-5.9 -5 0.2-10 0.1-15 0 -0.7 0-1.8-0.5-2.1-1 -1.5-3-2.7-6-4.1-9.2 4-4 8-7.9 11.9-12 3.4-3.5 3.4-7.6 0.1-11.1 -1.4-1.5-2.9-3-4.4-4.4 -3.9-3.8-8-3.8-11.8 0 -3.6 3.6-7.2 7.1-10.8 10.8 -0.9 0.9-1.6 1.1-2.8 0.5 -2.5-1.2-5-2.3-7.6-3.1 -1.6-0.5-2-1.3-2-2.8 0.1-4.7 0.1-9.5 0-14.2 -0.1-4.3-3.1-7.3-7.5-7.4 -2.2-0.1-4.5 0-6.7 0 -5.2 0-8.2 3-8.2 8.2 0 4.6 0 9.2-0.1 13.7 0 0.7-0.5 1.9-1 2.1 -3.6 1.6-7.4 3-11.3 4.5 -3.2-3.2-6.6-6.7-10-10.1 -3.3-3.2-7.6-3.2-10.9-0.1 -1.6 1.5-3.1 3-4.6 4.6 -3.7 3.7-3.7 7.9 0 11.6 3 3 6 6 9 9 0.9 0.9 1 1.6 0.5 2.8 -1.4 3.1-2.7 6.3-3.7 9.5 -0.5 1.5-1.1 2-2.6 1.9 -3.8-0.1-7.7-0.1-11.5 0 -5 0.1-7.9 3-8 7.9 -0.1 2 0 4 0 6 0.1 5.5 3 8.5 8.5 8.5 4.1 0 8.2 0 12.2 0 0.7 0 1.8 0.3 2 0.8 1.9 3.8 3.6 7.8 5.5 11.9 -3.2 3.1-6.5 6.3-9.8 9.7 -3.1 3.2-3.1 7.5 0 10.7 1.5 1.6 3.2 3.2 4.8 4.8 3.6 3.5 7.8 3.5 11.5-0.1 3.3-3.2 6.4-6.5 9.8-9.7 0.5-0.5 1.7-0.7 2.5-0.5 3.1 0.9 6.1 2.1 9.3 2.9 1.3 0.4 1.7 0.9 1.7 2.2 -0.1 3.6 0.2 7.2-0.1 10.7 -0.3 4.7 1 8.3 5.3 10.6 -54 0-107.9 0-162 0 0-57.7 0-115.3 0-173 0.3 1 0.7 1.9 1 2.9 1.7 7.4 4.8 14.2 9.8 20 8.2 9.5 17.3 11.8 29.1 7.4 7-2.6 14.1-5.1 21.1-7.7 1.9-0.7 3.4-0.5 5 0.8 4.1 3.3 8.3 6.5 12.5 9.5 4.7 3.3 9.3 6.8 14.3 9.5 5.7 3.2 12.4-1.3 12.9-7.8 0.3-4.1-1.4-7-4.4-9.2 -10-7.5-20.1-14.8-30.2-22.2 -3.3-2.4-6.9-2.8-10.9-1.3 -9.3 3.5-18.6 6.8-27.9 10.2 -3.8 1.4-5.6 0.8-7.8-2.7 -1-1.5-1.8-3.2-2.5-4.9 -5.5-14-2.6-26.3 7.7-37 1.2-1.2 2-1.4 3.6-0.4 4.4 2.9 8.7 5.8 13.4 8.2 7.6 3.8 15.7 4.4 23.8 2 10.5-3.1 18.4-10.1 25.2-18.4 0.7-0.9 1.2-2 1.6-3.1 2.3-6.8-2.7-13.8-9.6-12.9 -2.3 0.3-4.6 1.8-6.5 3.3 -3.5 2.8-6.5 6.2-10 9.1 -5.3 4.5-11.2 4.9-17.3 2 -2.7-1.3-5.1-3.2-7.5-4.9 -2.1-1.5-4-3.2-6.2-4.6 -5.4-3.5-11-3.7-16.5-0.5 -2.7 1.6-5.3 3.5-7.5 5.8C9.1 66.4 4.1 76 1.5 86.8 1.2 87.9 0.8 88.9 0.5 90zM139.7 137.7c22.1 0.2 40.2-18 40.4-40.6 0.3-22.6-17.6-41.3-39.5-41.5 -22.4-0.2-40.8 17.9-41 40.6C99.4 119 117.2 137.5 139.7 137.7zM54 224.7c22.1 0.1 40.2-18.2 40.4-40.7 0.1-22.8-17.9-41.4-40.2-41.4 -22.2 0-40.3 18.3-40.4 41C13.8 206.2 31.8 224.6 54 224.7z"/><path class="st1" d="M162.5 278.5c-4.3-2.2-5.6-5.9-5.3-10.6 0.2-3.6 0-7.2 0.1-10.7 0-1.3-0.4-1.8-1.7-2.2 -3.1-0.9-6.2-2-9.3-2.9 -0.7-0.2-1.9 0-2.5 0.5 -3.3 3.2-6.5 6.5-9.8 9.7 -3.6 3.6-7.8 3.6-11.5 0.1 -1.6-1.6-3.2-3.1-4.8-4.8 -3.1-3.3-3.1-7.5 0-10.7 3.2-3.3 6.6-6.6 9.8-9.7 -1.9-4.1-3.6-8.1-5.5-11.9 -0.2-0.5-1.3-0.8-2-0.8 -4.1-0.1-8.2 0-12.2 0 -5.5-0.1-8.4-3-8.5-8.5 0-2 0-4 0-6 0.1-5 3.1-7.9 8-7.9 3.8 0 7.7-0.1 11.5 0 1.5 0 2.1-0.4 2.6-1.9 1-3.2 2.3-6.4 3.7-9.5 0.5-1.2 0.5-1.9-0.5-2.8 -3.1-2.9-6.1-6-9-9 -3.7-3.7-3.7-7.9 0-11.6 1.5-1.5 3-3.1 4.6-4.6 3.4-3.2 7.6-3.2 10.9 0.1 3.5 3.4 6.8 6.8 10 10.1 4-1.6 7.7-2.9 11.3-4.5 0.6-0.2 1-1.4 1-2.1 0.1-4.6 0-9.2 0.1-13.7 0-5.2 3-8.2 8.2-8.2 2.2 0 4.5 0 6.7 0 4.3 0.1 7.4 3.1 7.5 7.4 0.1 4.7 0.1 9.5 0 14.2 0 1.6 0.3 2.3 2 2.8 2.6 0.8 5.2 1.9 7.6 3.1 1.2 0.6 1.9 0.4 2.8-0.5 3.6-3.6 7.2-7.2 10.8-10.8 3.8-3.8 7.9-3.8 11.8 0 1.5 1.5 3 2.9 4.4 4.4 3.3 3.5 3.3 7.6-0.1 11.1 -4 4-8 8-11.9 12 1.4 3.2 2.6 6.2 4.1 9.2 0.3 0.6 1.4 1 2.1 1 5 0.1 10 0.2 15 0 4.6-0.2 7.8 1.5 9.5 5.9 0 3.7 0 7.3 0 11 -1.8 4.3-5.1 5.9-9.7 5.6 -4.5-0.3-9 0-13.5-0.1 -1.5 0-2.2 0.4-2.6 1.9 -0.6 2.3-1.4 4.6-2.4 6.8 -0.6 1.4-0.5 2.2 0.6 3.2 4 3.8 7.9 7.7 11.7 11.6 3.3 3.4 3.2 7.5 0 10.9 -1.4 1.4-2.8 2.8-4.2 4.2 -4.2 4.1-8.2 4.2-12.4 0 -3.7-3.7-7.4-7.4-11-11 -3 1.5-5.7 3.1-8.6 4.3 -1.5 0.7-2.2 1.4-2.1 3.1 0.1 4.4-0.1 8.8 0.1 13.2 0.2 4.6-1.5 7.9-5.8 9.6C170.2 278.5 166.3 278.5 162.5 278.5zM183.5 211.3c0.1-10.2-8.3-18.6-18.5-18.7 -10.4-0.1-18.9 8.2-19 18.5 -0.1 10.3 8.2 18.8 18.6 18.9C175 230 183.4 221.7 183.5 211.3z"/><path class="st2" d="M0.5 90c0.3-1.1 0.7-2.1 1-3.2C4.1 76 9.1 66.4 16.9 58.4c2.2-2.2 4.8-4.2 7.5-5.8 5.5-3.2 11.1-3 16.5 0.5 2.2 1.4 4.1 3.2 6.2 4.6 2.4 1.7 4.8 3.6 7.5 4.9 6.1 3 12 2.5 17.3-2 3.4-2.9 6.5-6.3 10-9.1 1.9-1.5 4.2-3 6.5-3.3 6.9-0.9 11.9 6 9.6 12.9 -0.4 1.1-0.9 2.2-1.6 3.1C89.5 72.6 81.6 79.6 71 82.7c-8.1 2.4-16.2 1.8-23.8-2 -4.7-2.4-9-5.3-13.4-8.2 -1.5-1-2.4-0.9-3.6 0.4 -10.2 10.8-13.1 23.1-7.7 37 0.7 1.7 1.5 3.4 2.5 4.9 2.2 3.4 4 4 7.8 2.7 9.3-3.3 18.7-6.7 27.9-10.2 3.9-1.5 7.5-1.2 10.9 1.3 10.1 7.4 20.2 14.7 30.2 22.2 3 2.2 4.7 5.1 4.4 9.2 -0.5 6.5-7.2 11-12.9 7.8 -5-2.8-9.7-6.2-14.3-9.5 -4.3-3-8.4-6.3-12.5-9.5 -1.6-1.3-3.1-1.5-5-0.8 -7 2.6-14.1 5.1-21.1 7.7 -11.8 4.4-20.9 2.2-29.1-7.4 -5-5.8-8.1-12.5-9.8-20 -0.2-1-0.6-1.9-1-2.9C0.5 100.3 0.5 95.2 0.5 90z"/><path class="st0" d="M174 278.5c4.4-1.7 6-5 5.8-9.6 -0.2-4.4 0-8.8-0.1-13.2 -0.1-1.7 0.6-2.4 2.1-3.1 2.9-1.2 5.6-2.8 8.6-4.3 3.6 3.6 7.3 7.3 11 11 4.1 4.1 8.2 4.1 12.4 0 1.4-1.4 2.9-2.8 4.2-4.2 3.2-3.4 3.2-7.5 0-10.9 -3.8-3.9-7.7-7.8-11.7-11.6 -1.1-1-1.2-1.8-0.6-3.2 1-2.2 1.8-4.5 2.4-6.8 0.4-1.5 1.1-1.9 2.6-1.9 4.5 0.1 9-0.2 13.5 0.1 4.6 0.3 7.9-1.3 9.7-5.6 0 21.2 0 42.3 0 63.5C214 278.5 194 278.5 174 278.5z"/><path class="st2" d="M48 0.5c2.8 1.3 5.8 2.3 8.3 4.1 7.6 5.4 9.2 13.2 7.3 21.7 -1.8 8.2-7.7 13-15.7 14.6 -8.6 1.7-15.4-1.8-20.3-8.7C21.5 23.4 23.1 7 37.8 1.5c0.7-0.3 1.4-0.7 2.2-1C42.7 0.5 45.3 0.5 48 0.5z"/><path class="st3" d="M139.7 137.7c-22.4-0.2-40.3-18.7-40.1-41.5 0.2-22.7 18.5-40.9 41-40.6 22 0.2 39.8 19 39.5 41.5C179.8 119.7 161.8 137.9 139.7 137.7zM165.4 96.6c0-14.3-11.4-26-25.5-26.1 -14.2 0-25.8 11.8-25.7 26.2 0.1 14.3 11.5 26 25.5 26.1C153.9 122.9 165.4 111.1 165.4 96.6z"/><path class="st3" d="M54 224.7c-22.3-0.1-40.2-18.5-40.2-41.2 0.1-22.7 18.1-41 40.4-41 22.3 0 40.3 18.7 40.2 41.4C94.3 206.5 76.1 224.8 54 224.7zM54.2 209.7c14.1 0 25.6-11.9 25.6-26.2 -0.1-14.3-11.5-26-25.6-26 -14.1 0-25.7 11.7-25.7 26.1C28.6 198.1 40.1 209.8 54.2 209.7z"/><path class="st4" d="M183.5 211.3c-0.1 10.4-8.5 18.8-18.8 18.7 -10.4-0.1-18.7-8.5-18.6-18.9 0.1-10.3 8.6-18.6 19-18.5C175.2 192.7 183.5 201.1 183.5 211.3z"/><path class="st4" d="M165.4 96.6c0 14.4-11.6 26.3-25.7 26.2 -14-0.1-25.5-11.8-25.5-26.1 -0.1-14.4 11.5-26.2 25.7-26.2C154 70.6 165.4 82.3 165.4 96.6z"/><path class="st4" d="M54.2 209.7c-14.2 0-25.7-11.7-25.7-26.1 0-14.4 11.5-26.1 25.7-26.1 14 0 25.5 11.7 25.6 26C79.9 197.9 68.3 209.7 54.2 209.7z"/></svg>