<svg xmlns="http://www.w3.org/2000/svg" width="232" height="236" viewBox="0 0 232 236"><style type="text/css">  
	.st0{fill:#EC0303;}
	.st1{fill:#040404;}
</style><path class="st0" d="M129.9 143.9c0.8-0.1 1-0.1 1.1-0.1 7.6-1.6 10-6.2 9.1-13.8 -0.8-6.8 1.5-8.4 8.4-8.5 7.4 0 8.9 1.4 9 8.6 0 1.2 0.2 2.4 0 3.5 -1 5 1.2 7.5 5.9 8.9 2.3 0.7 3.6 0.5 5.2-1.1 2.3-2.4 4.6-4.8 7.1-7 3.9-3.5 6.2-3 11.3 2.2 4 4.1 4.3 6.7 1 10.2 -2.9 3-6 5.8-9.1 8.8 1.3 3 2.5 5.6 3.7 8.5 4.4 0 8.7-0.1 13 0 5.4 0.1 7.3 2.1 7.4 7.7 0.1 7.6-1.4 9.7-7.2 10 -2 0.1-4 0-6 0 -2 0-4 0-5.9 0 -4.1 7.6-4.1 7.6 1.6 13.4 0.7 0.7 1.4 1.4 2.1 2.1 6.4 6.5 5.7 11.7-2.3 16.1 -2.8 1.6-5.5 1.1-7.7-1.3 -2.8-3.1-5.5-6.2-7.9-8.9 -1.5 0.5-1.8 0.6-2.1 0.7 -6.2 1.9-8.5 5.9-7.4 12.3 0.4 2.4 0.5 5-0.5 7.4 -1.4 3.3-6.4 4.7-12.1 3.3 -3.4-0.8-4.9-3.1-4.8-6.6 0.1-3.7 0-7.3 0-11 -2.7-0.9-5.3-1.5-7.7-2.6 -1.8-0.8-2.7-0.2-3.9 0.9 -2.2 2.3-4.4 4.6-6.7 6.7 -3.5 3.1-6.2 2.7-10.3-1.2 -5-4.9-5.6-7.3-2.2-10.9 2.4-2.6 5.2-4.7 7.5-6.8 -0.3-1.4-0.4-1.8-0.6-2.3 -2.1-7-6.4-9.7-13.9-8.7 -6.1 0.7-7.8-1.8-7.8-8.7 0-6.7 1.7-8.6 8-8.6 8.7-0.1 8.7-0.1 12.8-10.8 -2.5-2.3-5.3-4.7-7.8-7.3 -3.4-3.6-3.1-6.1 1-10.3 5-5.1 7.5-5.7 11.4-2.2C125.2 138.7 127.5 141.4 129.9 143.9zM163.3 174.6c0.2-8.2-6-14.7-14.2-14.9 -8.2-0.2-14.8 6.1-15 14.2 -0.2 7.9 6.3 14.8 14.3 15C156.4 189.1 163.1 182.7 163.3 174.6z"/><path class="st1" d="M44.6 64.9c-9.8 8.9-12.1 20.4-6.5 31.7 1.9 3.8 4.2 5.6 8.7 3.7 6.7-2.8 13.8-4.9 20.6-7.5 2.9-1.1 5.5-0.9 8 0.8 8.5 5.5 16.7 11.6 24.5 18 3.7 3 4.1 7.4 1.7 10.6 -2.4 3.4-6.4 4.1-10.6 1.3 -5.9-4-11.7-8.2-17.3-12.6 -2.7-2.1-5-2.5-8.2-1.2 -5 2.1-10.3 3.7-15.4 5.7 -7.8 3-14.4 1.1-20.1-4.6 -8.5-8.5-11.2-19.2-9.8-30.7 1.4-10.7 6.2-19.9 14.3-27.3 6.8-6.2 12.4-6.3 19.6-0.8 1.5 1.1 2.8 2.3 4.3 3.4 7.3 5.3 13 5 19.7-1.1 2.1-1.9 4-4 6.2-5.8 3-2.5 6.4-3.1 9.5-0.5 3.2 2.7 3.7 6.2 1.9 9.9 -6.7 13.6-26.5 20.3-40.1 13.5C51.8 69.5 48.3 67.1 44.6 64.9z"/><path class="st1" d="M30.6 151.5c0.9-18.2 15.6-32.2 32.8-31.1 17.4 1 31.1 16.1 30.2 33.3 -0.9 18-15.8 32.1-32.9 31.1C43.2 183.8 29.7 168.8 30.6 151.5zM82 152.5c0-11.3-9.2-20.6-20.2-20.4 -10.9 0.1-19.8 9.2-19.8 20.3 -0.1 11.4 8.9 20.6 20 20.6C73.2 173.1 82.1 164 82 152.5z"/><path class="st1" d="M97.7 84.2c0.1-18 14.3-32.3 31.9-32.1 17.1 0.2 31.2 14.8 31.2 32.4 0 17.4-14.5 32.2-31.5 32.1C111.7 116.6 97.6 102.1 97.7 84.2zM149.2 84.5c0-11.5-8.8-20.6-19.9-20.6 -11.1 0-20.2 9.2-20.1 20.5 0.1 11 9 20.2 19.8 20.4C140 105.1 149.1 95.9 149.2 84.5z"/><path class="st1" d="M38.9 24.6C39 15.6 45.8 8.8 54.7 9c8.7 0.2 15.4 7.2 15.2 16.3C69.8 34.1 62.7 41.2 54 41 45.3 40.8 38.8 33.8 38.9 24.6z"/></svg>