<?xml version="1.0" encoding="utf-8"?>
<!-- Generator: Adobe Illustrator 19.0.0, SVG Export Plug-In . SVG Version: 6.00 Build 0)  -->
<svg version="1.1" id="Layer_1" xmlns="http://www.w3.org/2000/svg" xmlns:xlink="http://www.w3.org/1999/xlink" x="0px" y="0px"
	 viewBox="0 0 500 500" style="enable-background:new 0 0 500 500;" xml:space="preserve">
<style type="text/css">
	.st0{fill:#FECB44;}
</style>
<g>
	<g>
		<path class="st0" d="M14.9,194.1c29,0,57.9,0,86.9,0c30.1,0,60.3-0.1,90.4,0.1c4.5,0,5.8-1.7,6.9-5.6
			c17.2-57.9,34.6-115.7,52-173.6c0.4-1.3,0.9-2.5,1.9-5.3c2.3,7.6,4.3,13.8,6.2,20c13.9,46.4,27.8,92.8,41.7,139.1
			c2.1,6.9,4.2,13.7,6,20.6c0.9,3.4,2.3,4.9,6.1,4.8c22.5-0.2,45-0.1,67.5-0.1c33.3,0,66.6,0,99.9,0c3.6,0,7.2,0,10.7,0
			c0.1,0.3,0.3,0.7,0.4,1c-6.1,4.5-12.1,9-18.2,13.5c-42.1,31.1-84.1,62.1-126.3,93.1c-3.4,2.5-3.9,4.6-2.7,8.6
			c16.4,51.2,32.5,102.4,48.8,153.7c2.5,7.7,5.1,15.4,6.8,23.8c-3.3-2.5-6.7-5-10-7.5c-44.3-34.4-88.6-68.8-132.8-103.5
			c-4.2-3.3-6.4-1.7-9.6,0.9c-46.7,36.5-93.5,72.8-140.4,109.2c-0.5,0.4-1.1,0.5-2.4,1.2c1.9-6.3,3.6-11.8,5.4-17.3
			c17.2-53.9,34.3-107.8,51.6-161.7c1.1-3.4-0.1-5-2.6-6.9c-47.1-34.7-94.1-69.4-141.1-104.1c-1.3-1-2.5-2-3.8-3
			C14.6,194.8,14.8,194.5,14.9,194.1z"/>
	</g>
</g>
</svg>
